{"glyphs":{"0":{"ha":674,"x_min":24,"x_max":657,"o":"m 343 114 q 401 133 376 114 q 441 192 425 151 q 465 299 457 233 q 474 460 474 365 q 465 622 474 556 q 441 730 457 689 q 401 790 425 771 q 343 808 376 808 q 285 790 310 808 q 244 731 261 772 q 219 624 228 690 q 211 463 211 558 q 219 300 211 367 q 244 192 228 233 q 285 132 261 150 q 343 114 310 114 m 338 -32 q 204 -3 263 -32 q 106 87 146 26 q 44 241 65 147 q 24 465 24 335 q 44 687 24 594 q 106 838 65 779 q 204 925 146 897 q 338 953 263 953 q 472 925 413 953 q 572 839 531 897 q 635 689 613 781 q 657 468 657 597 q 572 90 657 211 q 338 -32 486 -32 z "},"1":{"ha":407,"x_min":6,"x_max":375,"o":"m 194 0 l 194 638 l 6 638 l 6 763 q 106 772 65 763 q 172 802 146 782 q 210 852 197 822 q 228 922 224 882 l 375 922 l 375 0 l 194 0 z "},"2":{"ha":639,"x_min":6,"x_max":633,"o":"m 6 0 q 16 119 6 64 q 56 229 26 175 q 140 339 86 283 q 283 458 194 394 q 366 521 333 493 q 418 574 399 549 q 446 624 438 599 q 454 678 454 649 q 444 736 454 713 q 417 774 435 760 q 376 793 400 788 q 326 799 353 799 q 228 763 264 799 q 192 635 192 728 l 18 635 q 97 869 18 785 q 318 953 175 953 q 445 936 388 953 q 544 886 503 919 q 608 802 585 853 q 631 683 631 751 q 617 588 631 631 q 572 503 603 544 q 489 418 540 461 q 364 322 438 375 q 275 238 311 283 q 236 157 239 193 l 633 157 l 633 0 l 6 0 z "},"3":{"ha":658,"x_min":18,"x_max":646,"o":"m 256 540 q 351 551 314 540 q 408 578 388 561 q 435 619 428 596 q 443 667 443 642 q 415 772 443 736 q 324 808 386 808 q 236 769 271 808 q 201 657 201 729 l 33 657 q 55 778 33 724 q 116 871 76 832 q 210 931 156 910 q 331 953 265 953 q 442 935 390 953 q 533 883 494 917 q 594 803 572 850 q 617 701 617 757 q 590 583 617 639 q 508 494 563 526 q 610 410 575 467 q 646 267 646 354 q 622 142 646 197 q 556 48 599 86 q 453 -11 513 10 q 321 -32 393 -32 q 97 49 176 -32 q 18 271 18 129 l 192 271 q 226 153 192 190 q 329 117 261 117 q 424 156 386 117 q 461 269 461 196 q 415 382 461 350 q 256 414 368 414 l 256 540 z "},"4":{"ha":654,"x_min":6,"x_max":649,"o":"m 368 667 l 179 342 l 368 342 l 368 667 m 364 0 l 364 201 l 6 201 l 6 358 l 342 922 l 544 922 l 544 342 l 649 342 l 649 201 l 544 201 l 544 0 l 364 0 z "},"5":{"ha":674,"x_min":36,"x_max":661,"o":"m 39 363 l 58 922 l 626 922 l 626 769 l 219 769 l 211 522 q 295 574 247 561 q 394 588 343 588 q 499 568 450 588 q 584 512 549 549 q 640 421 619 475 q 661 297 661 367 q 638 162 661 222 q 572 58 614 101 q 472 -8 531 15 q 343 -32 414 -32 q 226 -12 281 -32 q 129 44 171 8 q 63 128 88 79 q 36 238 39 178 l 217 238 q 256 147 222 179 q 343 115 289 115 q 449 163 418 115 q 481 289 481 210 q 449 401 481 361 q 354 442 418 442 q 275 422 306 442 q 225 363 244 401 l 39 363 z "},"6":{"ha":669,"x_min":21,"x_max":649,"o":"m 342 114 q 397 127 372 114 q 438 164 421 140 q 463 219 454 188 q 471 289 471 251 q 435 415 471 368 q 339 461 399 461 q 240 415 278 461 q 201 292 201 368 q 238 163 201 213 q 342 114 275 114 m 453 722 q 356 808 446 808 q 244 737 281 808 q 199 517 207 665 q 274 578 231 554 q 388 603 318 603 q 490 582 442 603 q 573 522 538 561 q 628 426 608 482 q 649 297 649 369 q 626 166 649 226 q 565 62 604 106 q 469 -7 525 18 q 344 -32 413 -32 q 101 85 181 -32 q 21 431 21 201 q 42 668 21 569 q 106 830 64 767 q 213 923 149 893 q 364 953 278 953 q 547 894 476 953 q 632 722 617 835 l 453 722 z "},"7":{"ha":657,"x_min":6,"x_max":651,"o":"m 132 0 q 164 200 140 100 q 228 397 188 300 q 326 587 269 494 q 456 763 382 679 l 6 763 l 6 922 l 651 922 l 651 783 q 413 409 496 610 q 318 0 329 208 l 132 0 z "},"8":{"ha":681,"x_min":21,"x_max":660,"o":"m 340 117 q 442 157 411 117 q 474 269 474 197 q 442 374 474 333 q 340 414 410 414 q 240 375 271 414 q 210 269 210 336 q 240 157 210 197 q 340 117 269 117 m 340 557 q 425 592 397 557 q 453 681 453 626 q 425 772 453 738 q 340 806 397 806 q 256 772 283 806 q 228 681 228 738 q 256 592 228 626 q 340 557 283 557 m 522 504 q 578 466 553 490 q 622 411 604 442 q 650 344 640 381 q 660 269 660 308 q 640 149 660 204 q 581 53 621 93 q 482 -10 542 13 q 342 -32 422 -32 q 202 -9 263 -32 q 101 53 142 14 q 41 147 61 93 q 21 261 21 200 q 57 401 21 342 q 165 496 93 461 q 85 583 108 525 q 61 699 61 640 q 82 799 61 753 q 140 880 103 846 q 229 933 178 914 q 342 953 281 953 q 462 933 410 953 q 549 881 514 914 q 601 802 583 847 q 618 704 618 757 q 597 588 618 643 q 522 504 575 532 z "},"9":{"ha":669,"x_min":21,"x_max":649,"o":"m 331 460 q 430 506 392 460 q 468 629 468 553 q 431 758 468 708 q 328 807 394 807 q 272 794 296 807 q 232 757 249 781 q 207 701 215 733 q 199 632 199 669 q 235 506 199 553 q 331 460 271 460 m 217 199 q 314 113 224 113 q 426 184 389 113 q 471 404 463 256 q 395 342 439 367 q 282 318 351 318 q 180 339 228 318 q 97 399 132 360 q 41 495 61 439 q 21 624 21 551 q 43 755 21 694 q 105 859 65 815 q 201 928 144 903 q 325 953 257 953 q 569 836 489 953 q 649 490 649 719 q 627 253 649 351 q 563 91 606 154 q 456 -2 521 28 q 306 -32 392 -32 q 123 27 193 -32 q 38 199 53 86 l 217 199 z "},"\u0017":{"ha":343,"x_min":0,"x_max":0,"o":""},"!":{"ha":335,"x_min":65,"x_max":269,"o":"m 72 0 l 72 182 l 260 182 l 260 0 l 72 0 m 119 256 q 78 564 92 422 q 65 824 65 706 q 66 876 65 851 q 72 922 67 901 l 264 922 q 268 873 267 899 q 269 819 269 847 q 256 563 269 704 q 215 256 243 422 l 119 256 z "},"\"":{"ha":367,"x_min":32,"x_max":339,"o":"m 32 575 m 32 575 l 32 922 l 156 922 l 156 575 l 32 575 m 215 575 l 215 922 l 339 922 l 339 575 l 215 575 z "},"#":{"ha":689,"x_min":13,"x_max":665,"o":"m 410 542 l 288 542 l 265 381 l 389 381 l 410 542 m 336 0 l 374 263 l 251 263 l 218 0 l 100 0 l 133 263 l 13 263 l 25 381 l 149 381 l 169 542 l 49 542 l 63 660 l 185 660 l 221 922 l 336 922 l 301 660 l 425 660 l 458 922 l 578 922 l 543 660 l 665 660 l 649 542 l 528 542 l 507 381 l 629 381 l 615 263 l 492 263 l 457 0 l 336 0 z "},"$":{"ha":663,"x_min":19,"x_max":653,"o":"m 368 115 q 452 153 421 118 q 483 232 483 188 q 452 314 483 281 q 368 361 421 347 l 368 115 m 311 776 q 231 743 260 774 q 201 672 201 713 q 230 597 201 631 q 311 556 258 563 l 311 776 m 311 -76 l 311 -22 q 178 4 233 -15 q 88 60 124 24 q 36 149 53 96 q 19 276 19 203 l 186 276 q 201 203 192 232 q 224 156 210 174 q 260 128 239 138 q 311 115 281 119 l 311 383 q 190 424 242 401 q 105 478 139 447 q 53 551 71 510 q 36 649 36 592 q 57 751 36 703 q 115 835 78 799 q 201 892 151 871 q 311 914 251 913 l 311 975 l 368 975 l 368 914 q 638 644 625 906 l 474 644 q 441 747 467 719 q 368 776 415 774 l 368 538 q 517 478 461 507 q 603 416 574 449 q 643 344 633 383 q 653 254 653 306 q 633 144 653 193 q 575 58 613 94 q 485 1 538 22 q 368 -22 432 -19 l 368 -76 l 311 -76 z "},"%":{"ha":917,"x_min":25,"x_max":900,"o":"m 25 0 m 185 533 q 234 572 218 533 q 250 706 250 611 q 234 841 250 801 q 185 881 218 881 q 136 842 153 881 q 119 707 119 803 q 136 572 119 611 q 185 533 153 533 m 182 460 q 66 519 107 460 q 25 708 25 578 q 66 896 25 839 q 182 953 107 953 q 299 896 257 953 q 342 710 342 839 q 299 520 342 581 q 182 460 257 460 m 93 -28 l 733 950 l 828 950 l 186 -28 l 93 -28 m 743 43 q 792 82 776 43 q 808 215 808 121 q 792 351 808 311 q 743 390 776 390 q 694 351 711 390 q 678 217 678 313 q 694 82 678 121 q 743 43 711 43 m 740 -31 q 624 28 665 -31 q 583 218 583 88 q 624 406 583 349 q 740 463 665 463 q 858 406 815 463 q 900 219 900 349 q 858 30 900 90 q 740 -31 815 -31 z "},"&":{"ha":692,"x_min":25,"x_max":667,"o":"m 493 529 l 667 529 l 667 281 q 644 152 667 210 q 580 53 621 94 q 482 -10 539 13 q 356 -32 425 -32 q 215 -10 276 -32 q 112 51 154 13 q 47 143 69 90 q 25 257 25 196 q 33 323 25 289 q 56 386 42 357 q 92 438 71 415 q 136 471 113 460 q 29 664 29 526 q 54 769 29 722 q 125 851 79 817 q 235 903 171 885 q 376 922 299 922 l 376 771 q 244 741 282 771 q 207 643 207 711 q 246 557 207 585 q 376 529 285 529 l 376 399 q 247 365 293 399 q 201 260 201 331 q 210 205 201 231 q 238 160 219 179 q 285 128 257 140 q 354 117 314 117 q 493 281 493 117 l 493 529 z "},"'":{"ha":183,"x_min":32,"x_max":156,"o":"m 32 575 l 32 922 l 156 922 l 156 575 l 32 575 z "},"(":{"ha":447,"x_min":93,"x_max":447,"o":"m 315 -199 q 150 92 207 -68 q 93 418 93 251 q 147 730 93 578 q 315 1011 201 882 l 447 1011 q 320 720 363 869 q 278 415 278 571 q 320 105 278 260 q 447 -199 363 -50 l 315 -199 z "},")":{"ha":447,"x_min":11,"x_max":365,"o":"m 11 -199 q 138 105 96 -50 q 181 415 181 260 q 138 720 181 571 q 11 1011 96 869 l 143 1011 q 311 730 257 882 q 365 418 365 578 q 308 92 365 251 q 143 -199 251 -68 l 11 -199 z "},"*":{"ha":742,"x_min":44,"x_max":701,"o":"m 507 274 l 371 453 l 239 274 l 114 361 l 247 550 l 44 614 l 90 754 l 289 690 l 289 922 l 453 922 l 453 690 l 651 754 l 701 614 l 496 550 l 629 361 l 507 274 z "},"+":{"ha":719,"x_min":32,"x_max":686,"o":"m 293 149 l 293 411 l 32 411 l 32 542 l 293 542 l 293 803 l 424 803 l 424 542 l 686 542 l 686 411 l 424 411 l 424 149 l 293 149 z "},",":{"ha":256,"x_min":32,"x_max":224,"o":"m 32 -147 q 111 -100 85 -133 q 139 0 138 -67 l 32 0 l 32 188 l 224 188 l 224 46 q 214 -57 224 -12 q 182 -133 204 -101 q 123 -185 160 -164 q 32 -217 86 -206 l 32 -147 z "},"-":{"ha":381,"x_min":18,"x_max":363,"o":"m 18 357 l 18 497 l 363 497 l 363 357 l 18 357 z "},".":{"ha":256,"x_min":32,"x_max":225,"o":"m 32 0 l 32 188 l 225 188 l 225 0 l 32 0 z "},"/":{"ha":408,"x_min":-7,"x_max":408,"o":"m -7 0 l 257 922 l 408 922 l 142 0 l -7 0 z "},":":{"ha":233,"x_min":19,"x_max":211,"o":"m 19 0 l 19 188 l 211 188 l 211 0 l 19 0 m 19 471 l 19 657 l 211 657 l 211 471 l 19 471 z "},";":{"ha":214,"x_min":14,"x_max":206,"o":"m 14 -147 q 93 -100 67 -133 q 121 0 119 -67 l 14 0 l 14 188 l 206 188 l 206 46 q 196 -57 206 -12 q 164 -133 186 -101 q 105 -185 142 -164 q 14 -217 68 -206 l 14 -147 m 14 471 l 14 657 l 206 657 l 206 471 l 14 471 z "},"<":{"ha":719,"x_min":32,"x_max":686,"o":"m 32 411 l 32 542 l 686 819 l 686 675 l 179 476 l 686 278 l 686 133 l 32 411 z "},"=":{"ha":719,"x_min":32,"x_max":686,"o":"m 32 550 l 32 681 l 686 681 l 686 550 l 32 550 m 32 272 l 32 403 l 686 403 l 686 272 l 32 272 z "},">":{"ha":719,"x_min":32,"x_max":686,"o":"m 32 133 l 32 278 l 539 476 l 32 675 l 32 819 l 686 542 l 686 411 l 32 133 z "},"?":{"ha":675,"x_min":22,"x_max":657,"o":"m 249 0 l 249 182 l 436 182 l 436 0 l 249 0 m 254 268 q 267 400 254 350 q 315 492 279 450 q 363 535 336 517 q 411 573 389 553 q 449 618 433 593 q 464 683 464 643 q 426 778 464 751 q 338 806 389 806 q 236 765 264 806 q 201 654 208 724 l 22 654 q 44 778 22 722 q 108 872 67 833 q 206 932 149 911 q 333 953 264 953 q 570 892 483 953 q 657 693 657 831 q 648 615 657 649 q 621 555 639 582 q 576 504 603 528 q 517 456 550 481 q 467 412 486 432 q 439 369 449 392 q 426 323 429 347 q 424 268 424 299 l 254 268 z "},"@":{"ha":983,"x_min":21,"x_max":963,"o":"m 467 214 q 567 274 529 214 q 604 426 604 333 q 580 514 604 483 q 508 544 556 544 q 405 494 447 544 q 363 333 363 444 q 385 244 363 275 q 467 214 408 214 m 897 -21 q 761 -85 857 -56 q 506 -115 665 -115 q 296 -80 386 -115 q 144 19 206 -44 q 52 170 83 82 q 21 363 21 258 q 54 565 21 472 q 151 726 88 658 q 305 831 214 793 q 511 869 396 869 q 685 847 603 869 q 828 776 767 825 q 926 651 890 728 q 963 468 963 575 q 940 309 963 378 q 883 194 918 240 q 806 124 849 147 q 719 100 763 100 q 631 122 661 100 q 593 174 600 143 q 533 120 571 136 q 446 104 494 104 q 353 124 392 104 q 291 175 315 143 q 256 248 267 207 q 244 333 244 289 q 263 458 244 400 q 315 557 281 515 q 397 623 349 599 q 504 647 444 647 q 589 626 553 647 q 640 560 625 604 l 658 633 l 767 633 l 694 290 q 686 240 686 253 q 697 220 686 226 q 718 214 707 214 q 767 229 742 214 q 813 274 792 244 q 847 349 833 304 q 860 454 860 394 q 835 601 860 540 q 765 701 811 663 q 655 757 719 739 q 510 775 590 775 q 345 740 417 775 q 226 647 274 704 q 153 517 178 590 q 128 369 128 444 q 229 86 128 183 q 514 -11 331 -11 q 724 8 636 -11 q 854 60 811 28 l 897 -21 z "},"A":{"ha":886,"x_min":4,"x_max":882,"o":"m 443 715 l 442 715 l 324 349 l 558 349 l 443 715 m 672 0 l 614 190 l 274 190 l 208 0 l 4 0 l 333 922 l 557 922 l 882 0 l 672 0 z "},"B":{"ha":792,"x_min":32,"x_max":792,"o":"m 463 157 q 567 194 529 157 q 604 289 604 232 q 567 378 604 350 q 465 406 531 406 l 218 406 l 218 157 l 463 157 m 218 763 l 218 563 l 461 563 q 578 663 578 563 q 548 739 578 715 q 450 763 518 763 l 218 763 m 32 0 l 32 922 l 486 922 q 693 855 622 922 q 764 671 764 788 q 732 565 764 611 q 651 499 700 518 q 706 470 681 488 q 751 426 732 453 q 781 362 769 399 q 792 275 792 325 q 707 74 792 149 q 447 0 622 0 l 32 0 z "},"C":{"ha":844,"x_min":21,"x_max":844,"o":"m 844 317 q 796 174 829 238 q 712 64 763 110 q 594 -7 661 18 q 447 -32 528 -32 q 278 -1 357 -32 q 143 90 200 29 q 53 241 86 151 q 21 450 21 331 q 51 660 21 567 q 136 819 81 754 q 272 918 192 883 q 450 953 351 953 q 606 927 536 953 q 727 856 676 901 q 808 750 778 811 q 844 619 838 689 l 651 619 q 576 742 632 699 q 451 786 521 786 q 274 699 331 786 q 217 461 217 613 q 273 222 217 307 q 442 136 329 136 q 580 183 528 136 q 651 317 632 229 l 844 317 z "},"D":{"ha":836,"x_min":32,"x_max":817,"o":"m 379 157 q 563 235 506 157 q 619 471 619 314 q 606 604 619 549 q 560 695 592 660 q 481 747 529 731 q 363 763 432 763 l 219 763 l 219 157 l 379 157 m 32 0 l 32 922 l 389 922 q 561 891 482 922 q 697 801 640 860 q 785 660 753 743 q 817 471 817 576 q 788 278 817 365 q 707 130 760 192 q 581 34 654 68 q 418 0 507 0 l 32 0 z "},"E":{"ha":732,"x_min":32,"x_max":732,"o":"m 32 0 l 32 922 l 710 922 l 710 761 l 219 761 l 219 564 l 671 564 l 671 401 l 219 401 l 219 164 l 732 164 l 732 0 l 32 0 z "},"F":{"ha":694,"x_min":32,"x_max":689,"o":"m 225 389 l 225 0 l 32 0 l 32 922 l 689 922 l 689 761 l 225 761 l 225 551 l 631 551 l 631 389 l 225 389 z "},"G":{"ha":915,"x_min":21,"x_max":879,"o":"m 719 0 l 715 92 q 608 1 682 33 q 439 -32 535 -32 q 266 9 343 -32 q 134 119 189 50 q 50 277 79 188 q 21 463 21 367 q 50 653 21 564 q 136 810 79 743 q 278 915 193 876 q 475 953 363 953 q 628 929 557 953 q 753 864 700 906 q 840 765 807 822 q 878 638 872 707 l 683 638 q 661 698 679 669 q 615 747 643 726 q 551 781 588 768 q 475 793 514 793 q 288 706 358 793 q 218 454 218 619 q 233 340 218 397 q 278 235 247 282 q 358 160 310 189 q 474 131 407 131 q 562 147 521 131 q 633 193 603 164 q 681 260 664 222 q 699 342 699 299 l 494 342 l 494 496 l 879 496 l 879 0 l 719 0 z "},"H":{"ha":808,"x_min":32,"x_max":779,"o":"m 585 0 l 585 414 l 225 414 l 225 0 l 32 0 l 32 922 l 225 922 l 225 575 l 585 575 l 585 922 l 779 922 l 779 0 l 585 0 z "},"I":{"ha":256,"x_min":32,"x_max":225,"o":"m 32 0 l 32 922 l 225 922 l 225 0 l 32 0 z "},"J":{"ha":624,"x_min":6,"x_max":593,"o":"m 400 922 l 593 922 l 593 249 q 517 45 593 122 q 290 -32 440 -32 q 81 40 156 -32 q 6 254 6 111 l 6 349 l 181 349 l 181 264 q 206 159 181 193 q 290 125 231 125 q 378 158 357 125 q 400 267 400 190 l 400 922 z "},"K":{"ha":833,"x_min":32,"x_max":833,"o":"m 599 0 l 325 415 l 222 314 l 222 0 l 32 0 l 32 922 l 222 922 l 222 547 l 575 922 l 825 922 l 461 558 l 833 0 l 599 0 z "},"L":{"ha":689,"x_min":32,"x_max":682,"o":"m 32 0 l 32 922 l 225 922 l 225 168 l 682 168 l 682 0 l 32 0 z "},"M":{"ha":958,"x_min":32,"x_max":926,"o":"m 746 0 l 746 632 l 574 0 l 382 0 l 211 629 l 211 0 l 32 0 l 32 922 l 315 922 l 482 246 l 649 922 l 926 922 l 926 0 l 746 0 z "},"N":{"ha":814,"x_min":32,"x_max":783,"o":"m 606 0 l 211 619 l 211 0 l 32 0 l 32 922 l 236 922 l 603 329 l 603 922 l 783 922 l 783 0 l 606 0 z "},"O":{"ha":925,"x_min":21,"x_max":904,"o":"m 464 133 q 561 152 515 133 q 641 209 607 171 q 694 307 675 247 q 714 449 714 367 q 650 697 714 613 q 464 782 586 782 q 276 697 342 782 q 211 449 211 613 q 277 209 211 285 q 464 133 343 133 m 464 -32 q 135 93 250 -32 q 21 453 21 218 q 50 663 21 569 q 136 820 79 756 q 275 919 193 885 q 464 953 357 953 q 652 919 569 953 q 790 819 735 885 q 875 660 846 754 q 904 449 904 567 q 791 89 904 210 q 464 -32 678 -32 z "},"P":{"ha":735,"x_min":32,"x_max":735,"o":"m 408 492 q 528 530 492 492 q 565 629 565 568 q 528 725 565 688 q 408 763 492 763 l 225 763 l 225 492 l 408 492 m 32 0 l 32 922 l 439 922 q 561 899 507 922 q 654 835 615 876 q 714 740 693 794 q 735 624 735 686 q 714 508 735 561 q 654 416 693 454 q 561 356 615 378 q 439 335 507 335 l 225 335 l 225 0 l 32 0 z "},"Q":{"ha":925,"x_min":21,"x_max":922,"o":"m 922 -19 q 901 -142 922 -86 q 843 -237 881 -197 q 754 -301 806 -278 q 642 -324 703 -324 q 536 -303 585 -324 q 453 -247 488 -283 q 399 -158 418 -210 q 379 -46 379 -107 l 379 -17 q 113 124 206 7 q 21 453 21 242 q 50 663 21 569 q 136 820 79 756 q 275 919 193 885 q 464 953 357 953 q 652 919 569 953 q 790 819 735 885 q 875 660 846 754 q 904 449 904 567 q 881 289 904 365 q 815 151 858 213 q 706 49 771 90 q 558 -6 642 7 q 586 -120 558 -85 q 658 -156 614 -156 q 726 -122 699 -156 q 753 -19 753 -87 l 922 -19 m 464 133 q 561 152 515 133 q 641 209 607 171 q 694 307 675 247 q 714 449 714 367 q 650 697 714 613 q 464 782 586 782 q 276 697 342 782 q 211 449 211 613 q 277 209 211 285 q 464 133 343 133 z "},"R":{"ha":796,"x_min":32,"x_max":783,"o":"m 219 763 l 219 517 l 461 517 q 571 551 539 517 q 603 639 603 586 q 572 728 603 693 q 468 763 540 763 l 219 763 m 569 0 l 569 238 q 539 333 569 304 q 425 361 508 361 l 219 361 l 219 0 l 32 0 l 32 922 l 500 922 q 616 902 564 922 q 706 847 668 882 q 763 762 743 811 q 783 656 783 713 q 748 523 783 581 q 646 442 713 465 q 733 382 707 422 q 758 261 758 342 l 758 0 l 569 0 z "},"S":{"ha":775,"x_min":8,"x_max":767,"o":"m 554 650 q 503 756 547 721 q 369 790 458 790 q 206 678 206 790 q 240 610 206 638 q 349 565 274 583 q 503 526 438 544 q 622 485 568 508 q 680 453 653 472 q 726 407 707 435 q 756 340 744 379 q 767 246 767 301 q 739 128 767 179 q 664 41 711 76 q 553 -13 617 6 q 418 -32 489 -32 q 115 46 217 -32 q 8 276 14 124 l 194 276 q 252 165 196 206 q 393 124 308 124 q 532 157 485 124 q 579 247 579 190 q 574 288 579 269 q 552 322 568 307 q 508 349 536 338 q 436 371 481 361 q 253 416 331 393 q 126 473 176 439 q 53 556 76 507 q 29 679 29 604 q 50 786 29 736 q 114 873 71 836 q 220 931 157 910 q 369 953 283 953 q 519 931 453 953 q 634 870 586 910 q 708 774 682 831 q 738 650 735 718 l 554 650 z "},"T":{"ha":763,"x_min":6,"x_max":756,"o":"m 283 0 l 283 761 l 6 761 l 6 922 l 756 922 l 756 761 l 476 761 l 476 0 l 283 0 z "},"U":{"ha":807,"x_min":32,"x_max":775,"o":"m 578 922 l 775 922 l 775 307 q 676 53 775 139 q 396 -32 578 -32 q 130 49 228 -32 q 32 296 32 129 l 32 922 l 228 922 l 228 314 q 271 178 228 228 q 393 128 314 128 q 578 307 578 128 l 578 922 z "},"V":{"ha":817,"x_min":4,"x_max":811,"o":"m 317 0 l 4 922 l 210 922 l 411 275 l 611 922 l 811 922 l 499 0 l 317 0 z "},"W":{"ha":1183,"x_min":4,"x_max":1179,"o":"m 735 0 l 592 600 l 446 0 l 265 0 l 4 922 l 210 922 l 361 325 l 489 922 l 692 922 l 832 325 l 982 922 l 1179 922 l 921 0 l 735 0 z "},"X":{"ha":833,"x_min":6,"x_max":828,"o":"m 593 0 l 417 317 l 231 0 l 6 0 l 304 471 l 22 922 l 250 922 l 417 624 l 585 922 l 808 922 l 528 479 l 828 0 l 593 0 z "},"Y":{"ha":829,"x_min":4,"x_max":825,"o":"m 324 0 l 324 349 l 4 922 l 229 922 l 424 547 l 603 922 l 825 922 l 517 346 l 517 0 l 324 0 z "},"Z":{"ha":732,"x_min":6,"x_max":726,"o":"m 6 0 l 6 164 l 485 761 l 19 761 l 19 922 l 726 922 l 726 771 l 244 164 l 726 164 l 726 0 l 6 0 z "},"[":{"ha":436,"x_min":100,"x_max":417,"o":"m 100 -181 l 100 999 l 417 999 l 417 875 l 260 875 l 260 -60 l 417 -60 l 417 -181 l 100 -181 z "},"\\":{"ha":400,"x_min":-7,"x_max":408,"o":"m 260 0 l -7 922 l 144 922 l 408 0 l 260 0 z "},"]":{"ha":433,"x_min":14,"x_max":333,"o":"m 14 -181 l 14 -60 l 174 -60 l 174 875 l 14 875 l 14 999 l 333 999 l 333 -181 l 14 -181 z "},"^":{"ha":631,"x_min":21,"x_max":611,"o":"m 418 657 l 317 778 l 213 657 l 21 657 l 250 922 l 379 922 l 611 657 l 418 657 z "},"_":{"ha":669,"x_min":0,"x_max":674,"o":"m 0 -175 l 0 -94 l 674 -94 l 674 -175 l 0 -175 z "},"`":{"ha":492,"x_min":69,"x_max":422,"o":"m 69 900 l 135 1014 l 422 846 l 379 769 l 69 900 z "},"a":{"ha":668,"x_min":18,"x_max":632,"o":"m 451 335 q 411 313 438 321 q 335 294 385 304 q 228 256 257 279 q 199 188 199 232 q 286 111 199 111 q 351 123 321 111 q 402 155 381 135 q 437 202 424 175 q 450 260 450 229 l 451 335 m 464 0 q 453 61 456 26 q 368 3 421 25 q 246 -18 315 -18 q 73 34 128 -18 q 18 169 18 86 q 42 287 18 243 q 107 356 65 331 q 206 392 149 381 q 332 414 264 404 q 424 440 400 424 q 447 492 447 456 q 416 544 447 525 q 332 563 385 563 q 242 535 269 563 q 208 461 215 507 l 40 461 q 58 558 42 514 q 109 635 74 603 q 201 684 144 667 q 340 701 258 701 q 477 683 421 701 q 567 631 533 665 q 617 547 601 597 q 632 432 632 496 l 632 0 l 464 0 z "},"b":{"ha":721,"x_min":36,"x_max":697,"o":"m 360 129 q 471 187 428 129 q 514 336 514 244 q 358 547 514 547 q 207 325 207 547 q 251 183 207 238 q 360 129 294 129 m 36 0 l 36 933 l 214 933 l 214 594 q 417 701 290 701 q 535 676 483 701 q 624 603 588 650 q 678 491 660 556 q 697 349 697 426 q 675 194 697 263 q 614 79 653 126 q 520 7 575 32 q 401 -18 465 -18 q 211 83 274 -18 l 210 0 l 36 0 z "},"c":{"ha":661,"x_min":24,"x_max":653,"o":"m 651 247 q 617 139 644 188 q 549 56 590 90 q 453 1 507 21 q 338 -18 400 -18 q 210 5 268 -18 q 111 74 153 28 q 47 190 69 121 q 24 350 24 258 q 47 508 24 442 q 111 617 69 575 q 212 681 153 660 q 343 701 271 701 q 465 683 410 701 q 560 631 519 665 q 625 547 601 596 q 653 439 649 499 l 471 439 q 428 522 464 492 q 342 551 393 551 q 288 542 313 551 q 244 509 263 532 q 214 448 225 486 q 203 354 203 410 q 243 188 203 242 q 336 133 283 133 q 426 163 389 133 q 469 247 464 192 l 651 247 z "},"d":{"ha":719,"x_min":22,"x_max":683,"o":"m 360 129 q 469 183 425 129 q 513 325 513 238 q 361 547 513 547 q 206 336 206 547 q 249 187 206 244 q 360 129 292 129 m 510 0 l 508 83 q 318 -18 446 -18 q 199 7 253 -18 q 106 79 144 32 q 44 194 67 126 q 22 349 22 263 q 41 491 22 426 q 96 603 60 556 q 184 676 132 650 q 303 701 236 701 q 506 594 429 701 l 506 933 l 683 933 l 683 0 l 510 0 z "},"e":{"ha":692,"x_min":21,"x_max":672,"o":"m 486 408 q 473 474 485 446 q 442 522 461 503 q 397 549 422 540 q 346 558 372 558 q 252 519 292 558 q 207 408 213 479 l 486 408 m 201 294 q 247 171 206 217 q 354 125 288 125 q 433 145 399 125 q 476 201 467 165 l 663 201 q 551 39 631 96 q 363 -18 472 -18 q 21 354 21 -18 q 43 497 21 433 q 108 607 65 561 q 211 677 150 653 q 351 701 272 701 q 591 600 510 701 q 672 294 672 499 l 201 294 z "},"f":{"ha":401,"x_min":6,"x_max":401,"o":"m 107 0 l 107 556 l 6 556 l 6 683 l 107 683 q 397 933 107 933 l 397 788 q 341 783 363 788 q 307 765 319 778 q 290 733 294 753 q 285 683 285 713 l 401 683 l 401 556 l 285 556 l 285 0 l 107 0 z "},"g":{"ha":729,"x_min":22,"x_max":693,"o":"m 364 136 q 474 187 431 136 q 518 325 518 238 q 364 544 518 544 q 210 336 210 544 q 253 190 210 244 q 364 136 297 136 m 513 92 q 442 20 493 46 q 325 -6 392 -6 q 183 24 240 -6 q 90 103 125 54 q 38 215 54 151 q 22 346 22 279 q 46 491 22 425 q 110 603 69 557 q 204 676 150 650 q 321 701 258 701 q 513 599 449 701 l 513 683 l 693 683 l 693 -7 q 667 -144 693 -85 q 594 -242 640 -203 q 486 -303 549 -282 q 353 -324 424 -324 q 221 -303 282 -324 q 116 -247 160 -283 q 47 -157 72 -210 q 22 -37 22 -104 l 190 -37 q 231 -134 190 -100 q 340 -168 272 -168 q 463 -128 413 -168 q 513 -21 513 -89 l 513 92 z "},"h":{"ha":692,"x_min":36,"x_max":656,"o":"m 474 0 l 474 424 q 447 530 474 501 q 357 558 419 558 q 297 545 324 558 q 253 509 271 532 q 226 456 235 486 q 217 392 217 426 l 217 0 l 36 0 l 36 933 l 217 933 l 217 594 q 247 637 226 617 q 293 671 267 657 q 351 693 319 685 q 418 701 383 701 q 590 644 524 701 q 656 483 656 586 l 656 0 l 474 0 z "},"i":{"ha":261,"x_min":40,"x_max":221,"o":"m 40 0 l 40 683 l 221 683 l 221 0 l 40 0 m 40 765 l 40 933 l 221 933 l 221 765 l 40 765 z "},"j":{"ha":254,"x_min":-326,"x_max":218,"o":"m 36 683 l 218 683 l 218 -46 q 197 -159 218 -108 q 140 -247 176 -210 q 55 -303 104 -283 q -51 -324 6 -324 q -259 -247 -192 -324 q -326 -37 -326 -169 l -157 -37 q -135 -130 -157 -96 q -61 -164 -114 -164 q 15 -131 -7 -164 q 36 -39 36 -97 l 36 683 m 36 765 l 36 933 l 218 933 l 218 765 l 36 765 z "},"k":{"ha":664,"x_min":36,"x_max":664,"o":"m 456 0 l 306 307 l 218 217 l 218 0 l 36 0 l 36 933 l 218 933 l 218 424 l 443 683 l 664 683 l 435 432 l 658 0 l 456 0 z "},"l":{"ha":251,"x_min":36,"x_max":217,"o":"m 36 0 l 36 933 l 217 933 l 217 0 l 36 0 z "},"m":{"ha":1050,"x_min":36,"x_max":1014,"o":"m 838 0 l 838 414 q 808 515 838 476 q 731 554 779 554 q 648 513 681 554 q 615 408 615 471 l 615 0 l 435 0 l 435 411 q 429 479 435 453 q 410 521 424 506 q 376 542 397 536 q 326 549 356 549 q 217 415 217 549 l 217 0 l 36 0 l 36 683 l 206 683 l 206 583 q 289 676 240 651 q 406 701 338 701 q 467 696 440 701 q 516 677 494 690 q 557 643 538 664 q 596 593 576 622 q 669 676 624 650 q 781 701 715 701 q 875 684 832 701 q 949 635 918 667 q 997 563 979 604 q 1014 474 1014 521 l 1014 0 l 838 0 z "},"n":{"ha":692,"x_min":36,"x_max":656,"o":"m 474 0 l 474 414 q 447 521 474 493 q 357 549 421 549 q 217 392 217 549 l 217 0 l 36 0 l 36 683 l 208 683 l 208 583 q 293 672 240 642 q 429 701 346 701 q 519 687 478 701 q 591 643 561 672 q 638 572 621 614 q 656 474 656 529 l 656 0 l 474 0 z "},"o":{"ha":742,"x_min":21,"x_max":719,"o":"m 372 133 q 538 342 538 133 q 372 549 538 549 q 207 342 207 549 q 372 133 207 133 m 372 -18 q 224 8 289 -18 q 113 82 158 35 q 44 196 68 129 q 21 342 21 263 q 45 489 21 422 q 115 603 69 556 q 226 676 161 650 q 372 701 290 701 q 517 676 453 701 q 626 603 581 650 q 695 490 671 557 q 719 342 719 424 q 695 194 719 260 q 626 81 671 128 q 516 8 581 33 q 372 -18 451 -18 z "},"p":{"ha":719,"x_min":36,"x_max":697,"o":"m 358 136 q 514 347 514 136 q 471 497 514 439 q 360 554 428 554 q 251 500 294 554 q 207 358 207 446 q 358 136 207 136 m 36 -324 l 36 683 l 210 683 l 211 600 q 401 701 274 701 q 520 676 465 701 q 614 604 575 651 q 675 489 653 557 q 697 335 697 421 q 678 192 697 257 q 624 81 660 128 q 535 8 588 33 q 417 -18 483 -18 q 214 89 290 -18 l 214 -324 l 36 -324 z "},"q":{"ha":719,"x_min":22,"x_max":1021,"o":"m 1021 -37 q 1001 -157 1021 -104 q 946 -247 981 -210 q 864 -303 911 -283 q 761 -324 817 -324 q 658 -303 706 -324 q 576 -244 611 -282 q 522 -154 542 -207 q 503 -39 503 -101 l 503 85 q 303 -18 426 -18 q 184 8 236 -18 q 96 81 132 33 q 41 192 60 128 q 22 335 22 257 q 44 489 22 421 q 106 604 67 557 q 199 676 144 651 q 318 701 253 701 q 508 600 446 701 l 510 683 l 683 683 l 683 -40 q 706 -137 683 -111 q 772 -164 729 -164 q 832 -135 813 -164 q 851 -37 851 -106 l 1021 -37 m 361 136 q 513 358 513 136 q 469 500 513 446 q 360 554 425 554 q 249 497 292 554 q 206 347 206 439 q 361 136 206 136 z "},"r":{"ha":438,"x_min":36,"x_max":432,"o":"m 36 0 l 36 683 l 206 683 l 206 601 q 252 656 228 636 q 302 685 276 675 q 354 699 328 696 q 408 701 381 701 l 432 701 l 432 517 q 382 521 407 521 q 217 356 217 521 l 217 0 l 36 0 z "},"s":{"ha":649,"x_min":13,"x_max":640,"o":"m 447 476 q 412 545 440 524 q 325 567 383 567 q 241 553 269 567 q 213 508 213 540 q 241 464 213 481 q 324 432 269 447 q 474 390 413 407 q 572 349 535 372 q 624 290 608 325 q 640 194 640 254 q 564 42 640 103 q 338 -18 488 -18 q 204 -1 264 -18 q 102 47 144 15 q 37 122 60 78 q 13 219 14 165 l 199 219 q 237 144 199 171 q 336 118 275 118 q 424 134 388 118 q 461 183 461 150 q 434 238 461 221 q 351 267 407 254 q 190 313 251 289 q 95 367 129 338 q 49 431 61 396 q 38 508 38 465 q 53 582 38 547 q 104 643 69 617 q 194 685 139 669 q 331 701 250 701 q 546 642 478 701 q 621 476 614 582 l 447 476 z "},"t":{"ha":621,"x_min":36,"x_max":592,"o":"m 424 450 l 592 450 l 592 256 q 576 152 592 201 q 526 65 560 103 q 440 4 492 26 q 315 -18 388 -18 q 188 4 240 -18 q 101 64 135 26 q 51 151 67 101 q 36 257 36 201 l 36 868 l 214 868 l 214 683 l 592 683 l 592 556 l 214 556 l 214 275 q 238 174 214 210 q 318 139 263 139 q 398 174 372 139 q 424 272 424 208 l 424 450 z "},"u":{"ha":688,"x_min":36,"x_max":651,"o":"m 481 0 l 481 96 q 268 -18 411 -18 q 174 0 217 -18 q 101 51 132 18 q 53 131 71 85 q 36 233 36 176 l 36 683 l 217 683 l 217 261 q 332 133 217 133 q 437 177 401 133 q 472 289 472 221 l 472 683 l 651 683 l 651 0 l 481 0 z "},"v":{"ha":689,"x_min":4,"x_max":683,"o":"m 249 0 l 4 683 l 206 683 l 349 232 l 493 683 l 683 683 l 438 0 l 249 0 z "},"w":{"ha":986,"x_min":4,"x_max":981,"o":"m 600 0 l 492 397 l 383 0 l 199 0 l 4 683 l 194 683 l 306 244 l 400 683 l 583 683 l 690 244 l 794 683 l 981 683 l 785 0 l 600 0 z "},"x":{"ha":682,"x_min":4,"x_max":678,"o":"m 457 0 l 338 206 l 221 0 l 4 0 l 233 349 l 11 683 l 229 683 l 344 485 l 461 683 l 671 683 l 444 349 l 678 0 l 457 0 z "},"y":{"ha":688,"x_min":36,"x_max":651,"o":"m 471 90 q 401 19 451 44 q 286 -7 350 -7 q 186 10 232 -7 q 107 60 140 28 q 55 138 74 93 q 36 240 36 183 l 36 683 l 217 683 l 217 267 q 332 139 217 139 q 433 175 394 139 q 471 267 471 211 l 471 683 l 651 683 l 651 -18 q 627 -147 651 -90 q 560 -243 603 -204 q 460 -303 518 -282 q 338 -324 403 -324 q 111 -247 186 -324 q 36 -37 36 -171 l 204 -37 q 240 -133 204 -99 q 346 -168 275 -168 q 393 -158 371 -168 q 433 -128 415 -147 q 460 -82 450 -110 q 471 -21 471 -54 l 471 90 z "},"z":{"ha":611,"x_min":13,"x_max":601,"o":"m 13 0 l 13 139 l 361 540 l 36 540 l 36 683 l 592 683 l 592 538 l 243 147 l 601 147 l 601 0 l 13 0 z "},"{":{"ha":457,"x_min":42,"x_max":436,"o":"m 385 -182 q 263 -169 310 -182 q 191 -128 217 -156 q 157 -60 165 -101 q 149 38 149 -18 q 150 74 149 50 q 152 124 151 97 q 154 173 153 150 q 156 206 156 196 q 131 318 156 286 q 42 350 107 350 l 42 469 q 131 502 107 469 q 156 615 156 535 q 154 648 156 625 q 152 696 153 671 q 150 744 151 721 q 149 781 149 768 q 157 878 149 836 q 191 947 165 919 q 263 987 217 974 q 385 1000 310 1000 l 436 1000 l 436 886 l 406 886 q 323 867 344 886 q 301 799 301 847 q 306 675 301 736 q 310 551 310 614 q 297 498 310 522 q 265 455 285 474 q 217 425 244 436 q 161 410 190 414 q 217 394 190 406 q 265 365 244 383 q 297 322 285 346 q 310 268 310 297 q 306 144 310 206 q 301 19 301 82 q 323 -49 301 -29 q 406 -68 344 -68 l 436 -68 l 436 -182 l 385 -182 z "},"|":{"ha":464,"x_min":161,"x_max":303,"o":"m 161 -174 l 161 1022 l 303 1022 l 303 -174 l 161 -174 z "},"}":{"ha":451,"x_min":14,"x_max":408,"o":"m 14 -182 l 14 -68 l 44 -68 q 127 -49 106 -68 q 149 19 149 -29 q 144 144 149 82 q 140 268 140 206 q 153 322 140 297 q 185 365 165 346 q 233 394 206 383 q 289 410 260 406 q 233 425 260 414 q 185 455 206 436 q 153 498 165 474 q 140 551 140 522 q 144 675 140 614 q 149 799 149 736 q 127 867 149 847 q 44 886 106 886 l 14 886 l 14 1000 l 65 1000 q 187 987 140 1000 q 259 947 233 974 q 293 878 285 919 q 301 781 301 836 q 300 744 301 768 q 298 696 299 721 q 296 648 297 671 q 294 615 294 625 q 319 502 294 535 q 408 469 343 469 l 408 350 q 319 318 343 350 q 294 206 294 286 q 296 173 294 196 q 298 124 297 150 q 300 74 299 97 q 301 38 301 50 q 293 -60 301 -18 q 259 -128 285 -101 q 187 -169 233 -156 q 65 -182 140 -182 l 14 -182 z "},"~":{"ha":764,"x_min":35,"x_max":729,"o":"m 729 424 q 636 353 685 375 q 524 331 588 331 q 444 343 482 331 q 369 371 406 356 q 296 399 332 386 q 224 411 260 411 q 121 385 165 411 q 35 306 76 358 l 35 446 q 110 510 65 482 q 218 539 154 539 q 310 526 268 539 q 390 499 353 514 q 463 472 428 485 q 532 460 497 460 q 638 483 590 460 q 729 564 686 506 l 729 424 z "}," ":{"ha":343,"x_min":0,"x_max":0,"o":""},"¡":{"ha":335,"x_min":65,"x_max":269,"o":"m 65 0 m 263 922 l 263 740 l 75 740 l 75 922 l 263 922 m 215 667 q 256 358 243 500 q 269 99 269 217 q 269 46 269 71 q 263 0 268 21 l 71 0 q 67 49 68 24 q 65 103 65 75 q 78 359 65 218 q 119 667 92 500 l 215 667 z "},"¢":{"ha":661,"x_min":24,"x_max":653,"o":"m 308 0 l 308 97 q 192 127 244 101 q 101 199 139 153 q 44 311 64 244 q 24 465 24 378 q 101 722 24 638 q 308 817 179 807 l 308 922 l 374 922 l 374 817 q 569 739 494 808 q 653 556 644 669 l 471 556 q 438 628 464 600 q 374 663 413 656 l 374 251 q 439 290 413 261 q 469 363 465 318 l 651 363 q 621 262 644 308 q 561 181 597 215 q 477 126 525 147 q 374 99 429 104 l 374 0 l 308 0 m 308 664 q 233 610 263 654 q 203 469 203 565 q 233 317 203 371 q 308 251 264 264 l 308 664 z "},"£":{"ha":663,"x_min":36,"x_max":632,"o":"m 36 0 l 36 672 q 113 876 36 799 q 339 953 189 953 q 460 940 406 953 q 551 894 514 926 q 610 807 589 861 q 631 669 631 753 l 631 563 l 449 563 l 449 668 q 428 763 449 732 q 339 794 407 794 q 283 787 304 794 q 249 764 261 779 q 233 725 238 749 q 229 669 229 701 l 229 485 l 632 485 l 632 371 l 229 371 l 229 168 l 632 168 l 632 0 l 36 0 z "},"¤":{"ha":744,"x_min":29,"x_max":714,"o":"m 528 228 q 454 195 493 207 q 372 183 415 183 q 290 195 329 183 q 217 228 250 207 l 129 133 l 29 233 l 124 321 q 91 394 103 354 q 79 476 79 433 q 91 558 79 519 q 124 632 103 597 l 31 718 l 129 817 l 214 725 q 288 759 249 747 q 372 771 328 771 q 455 759 415 771 q 529 725 494 747 l 614 817 l 713 718 l 621 633 q 655 559 643 599 q 667 476 667 519 q 621 319 667 389 l 714 233 l 615 133 l 528 228 m 578 476 q 562 557 578 519 q 518 622 546 594 q 453 666 490 650 q 372 682 415 682 q 292 666 329 682 q 228 622 256 650 q 184 557 200 594 q 168 476 168 519 q 184 397 168 433 q 228 332 200 360 q 292 288 256 304 q 372 272 329 272 q 453 288 415 272 q 518 332 490 304 q 562 397 546 360 q 578 476 578 433 z "},"¥":{"ha":735,"x_min":24,"x_max":710,"o":"m 443 111 l 443 0 l 293 0 l 293 111 l 92 111 l 92 217 l 293 217 l 293 301 l 92 301 l 92 406 l 293 406 l 293 497 l 24 922 l 186 922 l 367 618 l 549 922 l 710 922 l 443 497 l 443 406 l 644 406 l 644 301 l 443 301 l 443 217 l 644 217 l 644 111 l 443 111 z "},"¦":{"ha":464,"x_min":161,"x_max":303,"o":"m 161 -174 l 161 397 l 303 397 l 303 -174 l 161 -174 m 303 471 l 161 471 l 161 1022 l 303 1022 l 303 471 z "},"§":{"ha":733,"x_min":35,"x_max":685,"o":"m 506 683 q 462 773 499 744 q 350 801 425 801 q 211 707 211 801 q 240 651 211 674 q 332 613 268 628 q 462 579 407 594 q 563 544 517 564 q 611 517 589 533 q 650 478 633 501 q 676 422 667 456 q 685 343 685 389 q 668 258 685 296 q 622 190 651 219 q 660 130 646 167 q 674 35 674 93 q 650 -65 674 -21 q 587 -138 626 -108 q 494 -183 547 -168 q 381 -199 440 -199 q 35 61 43 -199 l 192 61 q 240 -33 193 1 q 358 -68 288 -68 q 476 -40 436 -68 q 515 36 515 -11 q 492 100 515 75 q 396 140 469 125 q 240 179 306 160 q 133 227 175 199 q 72 297 92 256 q 53 400 53 338 q 69 486 53 446 q 117 557 85 526 q 76 620 89 585 q 63 708 63 656 q 81 799 63 757 q 134 872 99 840 q 224 921 169 903 q 350 939 278 939 q 574 869 492 939 q 660 683 656 800 l 506 683 m 478 264 q 526 344 526 290 q 503 408 526 383 q 406 449 481 433 q 333 465 368 456 q 267 485 297 475 q 201 399 201 464 q 230 342 201 365 q 321 304 258 319 q 406 284 368 293 q 478 264 444 275 z "},"¨":{"ha":597,"x_min":69,"x_max":528,"o":"m 69 804 l 69 976 l 250 976 l 250 804 l 69 804 m 347 804 l 347 976 l 528 976 l 528 804 l 347 804 z "},"©":{"ha":925,"x_min":21,"x_max":904,"o":"m 463 -12 q 291 25 371 -12 q 151 127 211 63 q 56 278 90 192 q 21 463 21 364 q 56 647 21 560 q 151 797 90 733 q 291 899 211 861 q 463 936 371 936 q 635 899 554 936 q 775 797 715 861 q 869 647 835 733 q 904 463 904 560 q 869 278 904 364 q 775 127 835 192 q 635 25 715 63 q 463 -12 554 -12 m 465 61 q 610 92 542 61 q 728 178 678 124 q 809 305 779 232 q 839 461 839 378 q 809 616 839 543 q 728 744 779 689 q 610 831 678 799 q 465 863 542 863 q 319 831 388 863 q 201 744 251 799 q 122 616 151 689 q 93 461 93 543 q 122 305 93 378 q 201 178 151 232 q 319 92 251 124 q 465 61 388 61 m 542 513 q 517 553 536 539 q 475 568 499 568 q 419 540 440 568 q 399 467 399 511 q 472 353 399 353 q 517 369 497 353 q 539 414 536 385 l 639 414 q 584 313 632 351 q 468 274 536 274 q 341 323 385 274 q 297 456 297 372 q 342 598 297 547 q 472 649 386 649 q 590 612 544 649 q 640 513 636 575 l 542 513 z "},"ª":{"ha":451,"x_min":51,"x_max":389,"o":"m 290 601 q 255 583 278 588 q 209 572 232 578 q 169 556 186 567 q 151 519 151 544 q 199 478 151 478 q 263 502 239 478 q 289 560 288 526 l 290 601 m 297 417 q 290 450 292 433 q 244 419 272 431 q 176 407 215 407 q 82 435 113 407 q 51 510 51 464 q 64 574 51 550 q 99 613 76 599 q 154 633 122 626 q 224 644 186 639 q 274 659 261 650 q 288 688 288 668 q 270 716 288 706 q 224 726 253 726 q 175 711 190 726 q 156 671 160 696 l 64 671 q 102 766 65 729 q 229 803 139 803 q 354 764 319 803 q 389 654 389 725 l 389 417 l 297 417 z "},"«":{"ha":644,"x_min":18,"x_max":626,"o":"m 18 201 m 18 440 l 217 682 l 304 588 l 174 440 l 304 294 l 217 201 l 18 440 m 340 440 l 539 682 l 626 588 l 496 440 l 626 294 l 539 201 l 340 440 z "},"¬":{"ha":811,"x_min":35,"x_max":775,"o":"m 611 0 l 611 519 l 35 519 l 35 683 l 775 683 l 775 0 l 611 0 z "},"®":{"ha":621,"x_min":58,"x_max":590,"o":"m 590 686 q 569 583 590 631 q 513 499 549 535 q 428 442 476 463 q 324 421 379 421 q 220 442 268 421 q 136 499 172 463 q 79 583 100 535 q 58 686 58 631 q 79 790 58 742 q 136 875 100 839 q 220 932 172 911 q 324 953 268 953 q 428 932 379 953 q 513 875 476 911 q 569 790 549 839 q 590 686 590 742 m 547 686 q 530 773 547 732 q 482 844 513 814 q 410 892 451 875 q 324 910 369 910 q 237 892 278 910 q 165 844 196 875 q 117 773 135 814 q 100 686 100 732 q 117 599 100 640 q 165 528 135 558 q 237 480 196 497 q 324 463 278 463 q 410 480 369 463 q 482 528 451 497 q 530 599 513 558 q 547 686 547 640 m 283 778 l 283 713 l 347 713 q 376 722 367 713 q 385 744 385 731 q 376 769 385 760 q 349 778 368 778 l 283 778 m 375 576 l 375 639 q 367 665 375 657 q 338 672 360 672 l 283 672 l 283 576 l 233 576 l 233 819 l 357 819 q 412 799 392 819 q 432 749 432 779 q 423 715 432 729 q 396 693 414 700 q 419 677 413 688 q 425 646 425 667 l 425 576 l 375 576 z "},"¯":{"ha":668,"x_min":69,"x_max":599,"o":"m 69 836 l 69 963 l 599 963 l 599 836 l 69 836 z "},"°":{"ha":511,"x_min":44,"x_max":465,"o":"m 254 493 q 158 510 197 493 q 93 558 118 528 q 56 628 68 588 q 44 714 44 668 q 56 800 44 760 q 93 870 68 840 q 158 917 118 900 q 254 933 197 933 q 350 917 310 933 q 416 870 390 900 q 453 800 442 840 q 465 714 465 760 q 453 628 465 668 q 416 558 442 588 q 350 510 390 528 q 254 493 310 493 m 254 581 q 343 620 317 581 q 369 715 369 660 q 343 810 369 771 q 254 849 317 849 q 165 810 192 849 q 139 715 139 771 q 165 620 139 660 q 254 581 192 581 z "},"±":{"ha":719,"x_min":32,"x_max":686,"o":"m 32 0 m 293 149 l 293 411 l 32 411 l 32 542 l 293 542 l 293 803 l 424 803 l 424 542 l 686 542 l 686 411 l 424 411 l 424 149 l 293 149 m 32 -18 l 32 113 l 686 113 l 686 -18 l 32 -18 z "},"²":{"ha":361,"x_min":24,"x_max":338,"o":"m 24 476 m 24 476 q 28 536 24 508 q 49 591 33 564 q 91 646 64 618 q 163 706 118 674 q 229 764 211 742 q 247 815 247 786 q 229 863 247 850 q 183 875 211 875 q 135 858 153 875 q 117 793 117 840 l 29 793 q 69 910 29 868 q 179 953 108 953 q 293 919 250 953 q 336 818 336 886 q 329 770 336 792 q 306 728 322 749 q 265 685 290 707 q 203 638 240 664 q 158 595 175 618 q 139 554 140 572 l 338 554 l 338 476 l 24 476 z "},"³":{"ha":371,"x_min":29,"x_max":343,"o":"m 29 460 m 149 746 q 224 765 207 746 q 242 810 242 783 q 182 881 242 881 q 138 860 156 881 q 121 804 121 840 l 38 804 q 78 912 38 871 q 186 953 119 953 q 288 918 246 953 q 329 826 329 883 q 316 767 329 794 q 275 724 303 739 q 325 682 307 710 q 343 610 343 654 q 299 499 343 539 q 181 460 254 460 q 69 500 108 460 q 29 611 29 540 l 117 611 q 185 535 117 535 q 232 555 213 535 q 251 611 251 575 q 228 667 251 651 q 149 683 206 683 l 149 746 z "},"´":{"ha":492,"x_min":69,"x_max":422,"o":"m 113 769 l 69 846 l 357 1014 l 422 900 l 113 769 z "},"μ":{"ha":688,"x_min":36,"x_max":651,"o":"m 481 0 l 481 96 q 268 -18 411 -18 q 241 -17 254 -18 q 217 -12 228 -15 l 217 -324 l 36 -324 l 36 683 l 217 683 l 217 261 q 332 133 217 133 q 437 177 401 133 q 472 289 472 221 l 472 683 l 651 683 l 651 0 l 481 0 z "},"¶":{"ha":800,"x_min":38,"x_max":783,"o":"m 567 -139 l 567 828 l 342 828 l 342 -139 l 190 -139 l 190 644 q 71 700 104 657 q 38 794 38 743 q 51 856 38 828 q 92 906 64 885 q 164 940 121 928 q 267 953 207 953 l 783 953 l 717 826 l 717 -139 l 567 -139 z "},"·":{"ha":256,"x_min":32,"x_max":225,"o":"m 32 368 l 32 556 l 225 556 l 225 368 l 32 368 z "},"¸":{"ha":299,"x_min":69,"x_max":229,"o":"m 69 -264 q 158 -174 156 -257 l 69 -174 l 69 -60 l 229 -60 l 229 -135 q 222 -205 229 -172 q 196 -262 214 -237 q 147 -303 178 -287 q 69 -324 115 -319 l 69 -264 z "},"¹":{"ha":244,"x_min":24,"x_max":208,"o":"m 24 476 m 118 476 l 118 794 l 24 794 l 24 857 q 107 877 83 857 q 135 938 131 897 l 208 938 l 208 476 l 118 476 z "},"º":{"ha":492,"x_min":53,"x_max":438,"o":"m 246 490 q 338 604 338 490 q 246 718 338 718 q 156 604 156 718 q 246 490 156 490 m 246 407 q 103 462 154 407 q 53 604 53 517 q 105 749 53 694 q 246 803 157 803 q 386 749 335 803 q 438 604 438 696 q 386 461 438 515 q 246 407 335 407 z "},"»":{"ha":644,"x_min":18,"x_max":626,"o":"m 18 201 m 18 294 l 149 440 l 18 588 l 106 682 l 304 440 l 106 201 l 18 294 m 340 294 l 471 440 l 340 588 l 428 682 l 626 440 l 428 201 l 340 294 z "},"¼":{"ha":843,"x_min":24,"x_max":826,"o":"m 24 0 m 146 476 l 146 794 l 51 794 l 51 857 q 135 877 111 857 q 163 938 158 897 l 236 938 l 236 476 l 146 476 m 24 -28 l 664 950 l 758 950 l 117 -28 l 24 -28 m 686 319 l 592 157 l 686 157 l 686 319 m 685 -14 l 685 86 l 506 86 l 506 165 l 674 447 l 775 447 l 775 157 l 826 157 l 826 86 l 775 86 l 775 -14 l 685 -14 z "},"½":{"ha":836,"x_min":24,"x_max":819,"o":"m 24 0 m 146 476 l 146 794 l 51 794 l 51 857 q 135 877 111 857 q 163 938 158 897 l 236 938 l 236 476 l 146 476 m 24 -28 l 664 950 l 758 950 l 117 -28 l 24 -28 m 506 -14 q 510 46 506 18 q 531 101 515 74 q 573 156 546 128 q 644 215 600 183 q 711 274 693 251 q 729 325 729 296 q 711 372 729 360 q 665 385 693 385 q 617 367 635 385 q 599 303 599 350 l 511 303 q 551 420 511 378 q 661 463 590 463 q 775 429 732 463 q 818 328 818 396 q 811 280 818 301 q 788 238 804 258 q 747 195 772 217 q 685 147 722 174 q 640 105 657 128 q 621 64 622 82 l 819 64 l 819 -14 l 506 -14 z "},"¾":{"ha":881,"x_min":25,"x_max":864,"o":"m 25 0 m 144 746 q 220 765 203 746 q 238 810 238 783 q 178 881 238 881 q 134 860 151 881 q 117 804 117 840 l 33 804 q 74 912 33 871 q 182 953 115 953 q 283 918 242 953 q 325 826 325 883 q 312 767 325 794 q 271 724 299 739 q 321 682 303 710 q 339 610 339 654 q 294 499 339 539 q 176 460 250 460 q 65 500 104 460 q 25 611 25 540 l 113 611 q 181 535 113 535 q 228 555 208 535 q 247 611 247 575 q 224 667 247 651 q 144 683 201 683 l 144 746 m 89 -28 l 729 950 l 824 950 l 182 -28 l 89 -28 m 724 319 l 629 157 l 724 157 l 724 319 m 722 -14 l 722 86 l 543 86 l 543 165 l 711 447 l 813 447 l 813 157 l 864 157 l 864 86 l 813 86 l 813 -14 l 722 -14 z "},"¿":{"ha":675,"x_min":17,"x_max":651,"o":"m 17 0 m 425 922 l 425 740 l 238 740 l 238 922 l 425 922 m 419 654 q 407 522 419 572 q 358 431 394 472 q 311 388 338 406 q 263 349 285 369 q 225 304 240 329 q 210 239 210 279 q 247 144 210 171 q 336 117 285 117 q 438 158 410 117 q 472 268 465 199 l 651 268 q 629 144 651 200 q 566 50 607 89 q 467 -10 525 11 q 340 -30 410 -30 q 104 31 190 -30 q 17 229 17 92 q 26 307 17 274 q 53 367 35 340 q 97 418 71 394 q 157 467 124 442 q 206 510 188 490 q 235 553 225 531 q 247 599 244 575 q 250 654 250 624 l 419 654 z "},"À":{"ha":886,"x_min":4,"x_max":882,"o":"m 4 0 m 443 715 l 442 715 l 324 349 l 558 349 l 443 715 m 672 0 l 614 190 l 274 190 l 208 0 l 4 0 l 333 922 l 557 922 l 882 0 l 672 0 m 225 1139 l 290 1253 l 578 1085 l 535 1008 l 225 1139 z "},"Á":{"ha":886,"x_min":4,"x_max":882,"o":"m 4 0 m 443 715 l 442 715 l 324 349 l 558 349 l 443 715 m 672 0 l 614 190 l 274 190 l 208 0 l 4 0 l 333 922 l 557 922 l 882 0 l 672 0 m 351 1008 l 308 1085 l 596 1253 l 661 1139 l 351 1008 z "},"Â":{"ha":886,"x_min":4,"x_max":882,"o":"m 4 0 m 443 715 l 442 715 l 324 349 l 558 349 l 443 715 m 672 0 l 614 190 l 274 190 l 208 0 l 4 0 l 333 922 l 557 922 l 882 0 l 672 0 m 443 1182 l 256 1018 l 192 1089 l 369 1275 l 517 1275 l 694 1089 l 631 1018 l 443 1182 z "},"Ã":{"ha":886,"x_min":4,"x_max":882,"o":"m 4 0 m 443 715 l 442 715 l 324 349 l 558 349 l 443 715 m 672 0 l 614 190 l 274 190 l 208 0 l 4 0 l 333 922 l 557 922 l 882 0 l 672 0 m 682 1175 q 617 1069 658 1100 q 531 1039 575 1039 q 481 1049 504 1039 q 438 1070 458 1058 q 396 1092 417 1082 q 353 1101 375 1101 q 328 1090 344 1101 q 299 1040 311 1079 l 203 1092 q 260 1187 225 1160 q 338 1214 294 1214 q 394 1203 369 1214 q 442 1181 419 1193 q 483 1158 464 1168 q 522 1147 503 1147 q 553 1162 535 1147 q 578 1213 571 1176 l 682 1175 z "},"Ä":{"ha":886,"x_min":4,"x_max":882,"o":"m 4 0 m 443 715 l 442 715 l 324 349 l 558 349 l 443 715 m 672 0 l 614 190 l 274 190 l 208 0 l 4 0 l 333 922 l 557 922 l 882 0 l 672 0 m 214 1043 l 214 1215 l 394 1215 l 394 1043 l 214 1043 m 492 1043 l 492 1215 l 672 1215 l 672 1043 l 492 1043 z "},"Å":{"ha":886,"x_min":4,"x_max":882,"o":"m 4 0 m 443 715 l 442 715 l 324 349 l 558 349 l 443 715 m 672 0 l 614 190 l 274 190 l 208 0 l 4 0 l 333 922 l 557 922 l 882 0 l 672 0 m 588 1142 q 554 1042 588 1076 q 443 1008 521 1008 q 299 1142 299 1008 q 334 1240 299 1206 q 443 1275 369 1275 q 554 1240 521 1275 q 588 1142 588 1206 m 515 1142 q 443 1213 515 1213 q 374 1142 374 1213 q 443 1074 374 1074 q 515 1142 515 1074 z "},"Æ":{"ha":1224,"x_min":4,"x_max":1224,"o":"m 519 0 l 519 190 l 274 190 l 208 0 l 4 0 l 333 922 l 1201 922 l 1201 761 l 711 761 l 711 564 l 1163 564 l 1163 401 l 711 401 l 711 164 l 1224 164 l 1224 0 l 519 0 m 519 761 l 458 761 l 324 349 l 519 349 l 519 761 z "},"Ç":{"ha":844,"x_min":21,"x_max":844,"o":"m 21 0 m 844 317 q 796 174 829 238 q 712 64 763 110 q 594 -7 661 18 q 447 -32 528 -32 q 278 -1 357 -32 q 143 90 200 29 q 53 241 86 151 q 21 450 21 331 q 51 660 21 567 q 136 819 81 754 q 272 918 192 883 q 450 953 351 953 q 606 927 536 953 q 727 856 676 901 q 808 750 778 811 q 844 619 838 689 l 651 619 q 576 742 632 699 q 451 786 521 786 q 274 699 331 786 q 217 461 217 613 q 273 222 217 307 q 442 136 329 136 q 580 183 528 136 q 651 317 632 229 l 844 317 m 365 -264 q 454 -174 451 -257 l 365 -174 l 365 -60 l 525 -60 l 525 -135 q 517 -205 525 -172 q 492 -262 510 -237 q 442 -303 474 -287 q 365 -324 411 -319 l 365 -264 z "},"È":{"ha":732,"x_min":32,"x_max":732,"o":"m 32 0 m 32 0 l 32 922 l 710 922 l 710 761 l 219 761 l 219 564 l 671 564 l 671 401 l 219 401 l 219 164 l 732 164 l 732 0 l 32 0 m 147 1139 l 213 1253 l 500 1085 l 457 1008 l 147 1139 z "},"É":{"ha":732,"x_min":32,"x_max":732,"o":"m 32 0 m 32 0 l 32 922 l 710 922 l 710 761 l 219 761 l 219 564 l 671 564 l 671 401 l 219 401 l 219 164 l 732 164 l 732 0 l 32 0 m 274 1008 l 231 1085 l 518 1253 l 583 1139 l 274 1008 z "},"Ê":{"ha":732,"x_min":32,"x_max":732,"o":"m 32 0 m 32 0 l 32 922 l 710 922 l 710 761 l 219 761 l 219 564 l 671 564 l 671 401 l 219 401 l 219 164 l 732 164 l 732 0 l 32 0 m 365 1182 l 178 1018 l 114 1089 l 292 1275 l 439 1275 l 617 1089 l 553 1018 l 365 1182 z "},"Ë":{"ha":732,"x_min":32,"x_max":732,"o":"m 32 0 m 32 0 l 32 922 l 710 922 l 710 761 l 219 761 l 219 564 l 671 564 l 671 401 l 219 401 l 219 164 l 732 164 l 732 0 l 32 0 m 136 1043 l 136 1215 l 317 1215 l 317 1043 l 136 1043 m 414 1043 l 414 1215 l 594 1215 l 594 1043 l 414 1043 z "},"Ì":{"ha":256,"x_min":-89,"x_max":264,"o":"m 0 0 m 32 0 l 32 922 l 225 922 l 225 0 l 32 0 m -89 1139 l -24 1253 l 264 1085 l 221 1008 l -89 1139 z "},"Í":{"ha":256,"x_min":-6,"x_max":347,"o":"m 0 0 m 32 0 l 32 922 l 225 922 l 225 0 l 32 0 m 38 1008 l -6 1085 l 282 1253 l 347 1139 l 38 1008 z "},"Î":{"ha":256,"x_min":-122,"x_max":381,"o":"m 0 0 m 32 0 l 32 922 l 225 922 l 225 0 l 32 0 m 129 1182 l -58 1018 l -122 1089 l 56 1275 l 203 1275 l 381 1089 l 317 1018 l 129 1182 z "},"Ï":{"ha":256,"x_min":-100,"x_max":358,"o":"m 0 0 m 32 0 l 32 922 l 225 922 l 225 0 l 32 0 m -100 1043 l -100 1215 l 81 1215 l 81 1043 l -100 1043 m 178 1043 l 178 1215 l 358 1215 l 358 1043 l 178 1043 z "},"Ð":{"ha":836,"x_min":0,"x_max":817,"o":"m 32 0 l 32 392 l 0 392 l 0 529 l 32 529 l 32 922 l 389 922 q 561 891 482 922 q 697 801 640 860 q 785 660 753 743 q 817 471 817 576 q 788 278 817 365 q 707 130 760 192 q 581 34 654 68 q 418 0 507 0 l 32 0 m 379 157 q 563 235 506 157 q 619 471 619 314 q 606 604 619 549 q 560 695 592 660 q 481 747 529 731 q 363 763 432 763 l 219 763 l 219 529 l 368 529 l 368 392 l 219 392 l 219 157 l 379 157 z "},"Ñ":{"ha":814,"x_min":32,"x_max":783,"o":"m 32 0 m 606 0 l 211 619 l 211 0 l 32 0 l 32 922 l 236 922 l 603 329 l 603 922 l 783 922 l 783 0 l 606 0 m 646 1175 q 581 1069 622 1100 q 494 1039 539 1039 q 445 1049 468 1039 q 401 1070 422 1058 q 360 1092 381 1082 q 317 1101 339 1101 q 292 1090 308 1101 q 263 1040 275 1079 l 167 1092 q 224 1187 189 1160 q 301 1214 258 1214 q 358 1203 333 1214 q 406 1181 383 1193 q 447 1158 428 1168 q 486 1147 467 1147 q 517 1162 499 1147 q 542 1213 535 1176 l 646 1175 z "},"Ò":{"ha":925,"x_min":21,"x_max":904,"o":"m 21 0 m 464 133 q 561 152 515 133 q 641 209 607 171 q 694 307 675 247 q 714 449 714 367 q 650 697 714 613 q 464 782 586 782 q 276 697 342 782 q 211 449 211 613 q 277 209 211 285 q 464 133 343 133 m 464 -32 q 135 93 250 -32 q 21 453 21 218 q 50 663 21 569 q 136 820 79 756 q 275 919 193 885 q 464 953 357 953 q 652 919 569 953 q 790 819 735 885 q 875 660 846 754 q 904 449 904 567 q 791 89 904 210 q 464 -32 678 -32 m 244 1139 l 310 1253 l 597 1085 l 554 1008 l 244 1139 z "},"Ó":{"ha":925,"x_min":21,"x_max":904,"o":"m 21 0 m 464 133 q 561 152 515 133 q 641 209 607 171 q 694 307 675 247 q 714 449 714 367 q 650 697 714 613 q 464 782 586 782 q 276 697 342 782 q 211 449 211 613 q 277 209 211 285 q 464 133 343 133 m 464 -32 q 135 93 250 -32 q 21 453 21 218 q 50 663 21 569 q 136 820 79 756 q 275 919 193 885 q 464 953 357 953 q 652 919 569 953 q 790 819 735 885 q 875 660 846 754 q 904 449 904 567 q 791 89 904 210 q 464 -32 678 -32 m 371 1008 l 328 1085 l 615 1253 l 681 1139 l 371 1008 z "},"Ô":{"ha":925,"x_min":21,"x_max":904,"o":"m 21 0 m 464 133 q 561 152 515 133 q 641 209 607 171 q 694 307 675 247 q 714 449 714 367 q 650 697 714 613 q 464 782 586 782 q 276 697 342 782 q 211 449 211 613 q 277 209 211 285 q 464 133 343 133 m 464 -32 q 135 93 250 -32 q 21 453 21 218 q 50 663 21 569 q 136 820 79 756 q 275 919 193 885 q 464 953 357 953 q 652 919 569 953 q 790 819 735 885 q 875 660 846 754 q 904 449 904 567 q 791 89 904 210 q 464 -32 678 -32 m 463 1182 l 275 1018 l 211 1089 l 389 1275 l 536 1275 l 714 1089 l 650 1018 l 463 1182 z "},"Õ":{"ha":925,"x_min":21,"x_max":904,"o":"m 21 0 m 464 133 q 561 152 515 133 q 641 209 607 171 q 694 307 675 247 q 714 449 714 367 q 650 697 714 613 q 464 782 586 782 q 276 697 342 782 q 211 449 211 613 q 277 209 211 285 q 464 133 343 133 m 464 -32 q 135 93 250 -32 q 21 453 21 218 q 50 663 21 569 q 136 820 79 756 q 275 919 193 885 q 464 953 357 953 q 652 919 569 953 q 790 819 735 885 q 875 660 846 754 q 904 449 904 567 q 791 89 904 210 q 464 -32 678 -32 m 701 1175 q 636 1069 678 1100 q 550 1039 594 1039 q 501 1049 524 1039 q 457 1070 478 1058 q 415 1092 436 1082 q 372 1101 394 1101 q 347 1090 364 1101 q 318 1040 331 1079 l 222 1092 q 279 1187 244 1160 q 357 1214 314 1214 q 414 1203 389 1214 q 461 1181 439 1193 q 503 1158 483 1168 q 542 1147 522 1147 q 572 1162 554 1147 q 597 1213 590 1176 l 701 1175 z "},"Ö":{"ha":925,"x_min":21,"x_max":904,"o":"m 21 0 m 464 133 q 561 152 515 133 q 641 209 607 171 q 694 307 675 247 q 714 449 714 367 q 650 697 714 613 q 464 782 586 782 q 276 697 342 782 q 211 449 211 613 q 277 209 211 285 q 464 133 343 133 m 464 -32 q 135 93 250 -32 q 21 453 21 218 q 50 663 21 569 q 136 820 79 756 q 275 919 193 885 q 464 953 357 953 q 652 919 569 953 q 790 819 735 885 q 875 660 846 754 q 904 449 904 567 q 791 89 904 210 q 464 -32 678 -32 m 233 1043 l 233 1215 l 414 1215 l 414 1043 l 233 1043 m 511 1043 l 511 1215 l 692 1215 l 692 1043 l 511 1043 z "},"×":{"ha":719,"x_min":81,"x_max":635,"o":"m 543 199 l 357 383 l 172 199 l 81 292 l 265 476 l 81 661 l 172 753 l 357 568 l 543 754 l 635 661 l 450 476 l 635 290 l 543 199 z "},"Ø":{"ha":925,"x_min":21,"x_max":904,"o":"m 154 -19 l 188 47 q 63 210 106 108 q 21 453 21 311 q 50 663 21 569 q 136 820 79 756 q 275 919 193 885 q 464 953 357 953 q 551 946 510 953 q 629 926 592 939 l 663 993 l 765 956 l 726 878 q 859 707 814 815 q 904 449 904 599 q 791 89 904 210 q 464 -32 678 -32 q 365 -24 411 -32 q 279 -1 319 -17 l 251 -57 l 154 -19 m 357 151 q 464 133 401 133 q 561 152 515 133 q 641 209 607 171 q 694 307 675 247 q 714 449 714 367 q 640 708 714 624 l 357 151 m 550 768 q 509 778 531 775 q 464 782 488 782 q 276 697 342 782 q 211 449 211 613 q 272 217 211 294 l 550 768 z "},"Ù":{"ha":807,"x_min":32,"x_max":775,"o":"m 32 0 m 578 922 l 775 922 l 775 307 q 676 53 775 139 q 396 -32 578 -32 q 130 49 228 -32 q 32 296 32 129 l 32 922 l 228 922 l 228 314 q 271 178 228 228 q 393 128 314 128 q 578 307 578 128 l 578 922 m 185 1139 l 250 1253 l 538 1085 l 494 1008 l 185 1139 z "},"Ú":{"ha":807,"x_min":32,"x_max":775,"o":"m 32 0 m 578 922 l 775 922 l 775 307 q 676 53 775 139 q 396 -32 578 -32 q 130 49 228 -32 q 32 296 32 129 l 32 922 l 228 922 l 228 314 q 271 178 228 228 q 393 128 314 128 q 578 307 578 128 l 578 922 m 311 1008 l 268 1085 l 556 1253 l 621 1139 l 311 1008 z "},"Û":{"ha":807,"x_min":32,"x_max":775,"o":"m 32 0 m 578 922 l 775 922 l 775 307 q 676 53 775 139 q 396 -32 578 -32 q 130 49 228 -32 q 32 296 32 129 l 32 922 l 228 922 l 228 314 q 271 178 228 228 q 393 128 314 128 q 578 307 578 128 l 578 922 m 403 1182 l 215 1018 l 151 1089 l 329 1275 l 476 1275 l 654 1089 l 590 1018 l 403 1182 z "},"Ü":{"ha":807,"x_min":32,"x_max":775,"o":"m 32 0 m 578 922 l 775 922 l 775 307 q 676 53 775 139 q 396 -32 578 -32 q 130 49 228 -32 q 32 296 32 129 l 32 922 l 228 922 l 228 314 q 271 178 228 228 q 393 128 314 128 q 578 307 578 128 l 578 922 m 174 1043 l 174 1215 l 354 1215 l 354 1043 l 174 1043 m 451 1043 l 451 1215 l 632 1215 l 632 1043 l 451 1043 z "},"Ý":{"ha":829,"x_min":4,"x_max":825,"o":"m 4 0 m 324 0 l 324 349 l 4 922 l 229 922 l 424 547 l 603 922 l 825 922 l 517 346 l 517 0 l 324 0 m 329 1008 l 286 1085 l 574 1253 l 639 1139 l 329 1008 z "},"Þ":{"ha":735,"x_min":32,"x_max":735,"o":"m 408 349 q 521 387 476 349 q 565 485 565 425 q 523 581 565 543 q 408 618 481 618 l 225 618 l 225 349 l 408 349 m 225 190 l 225 0 l 32 0 l 32 922 l 225 922 l 225 779 l 457 779 q 569 756 518 779 q 656 692 619 732 q 714 597 693 651 q 735 481 735 543 q 714 365 735 418 q 656 272 693 311 q 566 212 618 233 q 450 190 514 190 l 225 190 z "},"ß":{"ha":701,"x_min":36,"x_max":690,"o":"m 303 133 q 322 131 313 132 q 342 131 332 131 q 467 174 421 131 q 513 286 513 218 q 498 363 513 332 q 458 413 483 394 q 395 441 432 432 q 314 451 358 450 l 314 565 q 384 576 357 567 q 427 600 411 585 q 449 636 443 615 q 456 682 456 657 q 419 773 456 747 q 335 799 383 799 q 249 771 285 799 q 214 682 214 743 l 214 0 l 36 0 l 36 692 q 55 794 36 747 q 112 874 74 840 q 207 925 150 907 q 342 943 264 943 q 474 925 418 943 q 566 875 529 907 q 620 799 603 843 q 638 701 638 754 q 630 635 638 663 q 609 588 622 607 q 579 554 596 568 q 544 529 563 540 q 617 484 589 510 q 662 429 646 458 q 684 366 678 400 q 690 296 690 332 q 669 165 690 222 q 607 66 647 107 q 510 3 567 25 q 382 -18 453 -18 q 303 -12 329 -18 l 303 133 z "},"à":{"ha":668,"x_min":18,"x_max":632,"o":"m 18 0 m 451 335 q 411 313 438 321 q 335 294 385 304 q 228 256 257 279 q 199 188 199 232 q 286 111 199 111 q 351 123 321 111 q 402 155 381 135 q 437 202 424 175 q 450 260 450 229 l 451 335 m 464 0 q 453 61 456 26 q 368 3 421 25 q 246 -18 315 -18 q 73 34 128 -18 q 18 169 18 86 q 42 287 18 243 q 107 356 65 331 q 206 392 149 381 q 332 414 264 404 q 424 440 400 424 q 447 492 447 456 q 416 544 447 525 q 332 563 385 563 q 242 535 269 563 q 208 461 215 507 l 40 461 q 58 558 42 514 q 109 635 74 603 q 201 684 144 667 q 340 701 258 701 q 477 683 421 701 q 567 631 533 665 q 617 547 601 597 q 632 432 632 496 l 632 0 l 464 0 m 115 900 l 181 1014 l 468 846 l 425 769 l 115 900 z "},"á":{"ha":668,"x_min":18,"x_max":632,"o":"m 18 0 m 451 335 q 411 313 438 321 q 335 294 385 304 q 228 256 257 279 q 199 188 199 232 q 286 111 199 111 q 351 123 321 111 q 402 155 381 135 q 437 202 424 175 q 450 260 450 229 l 451 335 m 464 0 q 453 61 456 26 q 368 3 421 25 q 246 -18 315 -18 q 73 34 128 -18 q 18 169 18 86 q 42 287 18 243 q 107 356 65 331 q 206 392 149 381 q 332 414 264 404 q 424 440 400 424 q 447 492 447 456 q 416 544 447 525 q 332 563 385 563 q 242 535 269 563 q 208 461 215 507 l 40 461 q 58 558 42 514 q 109 635 74 603 q 201 684 144 667 q 340 701 258 701 q 477 683 421 701 q 567 631 533 665 q 617 547 601 597 q 632 432 632 496 l 632 0 l 464 0 m 242 769 l 199 846 l 486 1014 l 551 900 l 242 769 z "},"â":{"ha":668,"x_min":18,"x_max":632,"o":"m 18 0 m 451 335 q 411 313 438 321 q 335 294 385 304 q 228 256 257 279 q 199 188 199 232 q 286 111 199 111 q 351 123 321 111 q 402 155 381 135 q 437 202 424 175 q 450 260 450 229 l 451 335 m 464 0 q 453 61 456 26 q 368 3 421 25 q 246 -18 315 -18 q 73 34 128 -18 q 18 169 18 86 q 42 287 18 243 q 107 356 65 331 q 206 392 149 381 q 332 414 264 404 q 424 440 400 424 q 447 492 447 456 q 416 544 447 525 q 332 563 385 563 q 242 535 269 563 q 208 461 215 507 l 40 461 q 58 558 42 514 q 109 635 74 603 q 201 684 144 667 q 340 701 258 701 q 477 683 421 701 q 567 631 533 665 q 617 547 601 597 q 632 432 632 496 l 632 0 l 464 0 m 333 943 l 146 779 l 82 850 l 260 1036 l 407 1036 l 585 850 l 521 779 l 333 943 z "},"ã":{"ha":668,"x_min":18,"x_max":632,"o":"m 18 0 m 451 335 q 411 313 438 321 q 335 294 385 304 q 228 256 257 279 q 199 188 199 232 q 286 111 199 111 q 351 123 321 111 q 402 155 381 135 q 437 202 424 175 q 450 260 450 229 l 451 335 m 464 0 q 453 61 456 26 q 368 3 421 25 q 246 -18 315 -18 q 73 34 128 -18 q 18 169 18 86 q 42 287 18 243 q 107 356 65 331 q 206 392 149 381 q 332 414 264 404 q 424 440 400 424 q 447 492 447 456 q 416 544 447 525 q 332 563 385 563 q 242 535 269 563 q 208 461 215 507 l 40 461 q 58 558 42 514 q 109 635 74 603 q 201 684 144 667 q 340 701 258 701 q 477 683 421 701 q 567 631 533 665 q 617 547 601 597 q 632 432 632 496 l 632 0 l 464 0 m 574 936 q 508 831 550 861 q 422 800 467 800 q 373 810 396 800 q 329 831 350 819 q 288 853 308 843 q 244 863 267 863 q 219 851 236 863 q 190 801 203 840 l 94 853 q 151 948 117 921 q 229 975 186 975 q 286 965 261 975 q 333 942 311 954 q 375 919 356 929 q 414 908 394 908 q 444 923 426 908 q 469 974 463 938 l 574 936 z "},"ä":{"ha":668,"x_min":18,"x_max":632,"o":"m 18 0 m 451 335 q 411 313 438 321 q 335 294 385 304 q 228 256 257 279 q 199 188 199 232 q 286 111 199 111 q 351 123 321 111 q 402 155 381 135 q 437 202 424 175 q 450 260 450 229 l 451 335 m 464 0 q 453 61 456 26 q 368 3 421 25 q 246 -18 315 -18 q 73 34 128 -18 q 18 169 18 86 q 42 287 18 243 q 107 356 65 331 q 206 392 149 381 q 332 414 264 404 q 424 440 400 424 q 447 492 447 456 q 416 544 447 525 q 332 563 385 563 q 242 535 269 563 q 208 461 215 507 l 40 461 q 58 558 42 514 q 109 635 74 603 q 201 684 144 667 q 340 701 258 701 q 477 683 421 701 q 567 631 533 665 q 617 547 601 597 q 632 432 632 496 l 632 0 l 464 0 m 104 804 l 104 976 l 285 976 l 285 804 l 104 804 m 382 804 l 382 976 l 563 976 l 563 804 l 382 804 z "},"å":{"ha":668,"x_min":18,"x_max":632,"o":"m 18 0 m 451 335 q 411 313 438 321 q 335 294 385 304 q 228 256 257 279 q 199 188 199 232 q 286 111 199 111 q 351 123 321 111 q 402 155 381 135 q 437 202 424 175 q 450 260 450 229 l 451 335 m 464 0 q 453 61 456 26 q 368 3 421 25 q 246 -18 315 -18 q 73 34 128 -18 q 18 169 18 86 q 42 287 18 243 q 107 356 65 331 q 206 392 149 381 q 332 414 264 404 q 424 440 400 424 q 447 492 447 456 q 416 544 447 525 q 332 563 385 563 q 242 535 269 563 q 208 461 215 507 l 40 461 q 58 558 42 514 q 109 635 74 603 q 201 684 144 667 q 340 701 258 701 q 477 683 421 701 q 567 631 533 665 q 617 547 601 597 q 632 432 632 496 l 632 0 l 464 0 m 478 903 q 444 803 478 838 q 333 769 411 769 q 189 903 189 769 q 224 1001 189 967 q 333 1036 260 1036 q 444 1001 411 1036 q 478 903 478 967 m 406 903 q 333 974 406 974 q 264 903 264 974 q 333 835 264 835 q 406 903 406 835 z "},"æ":{"ha":1119,"x_min":18,"x_max":1103,"o":"m 632 294 q 677 171 636 217 q 785 125 718 125 q 863 145 829 125 q 907 201 897 165 l 1093 201 q 982 39 1061 96 q 793 -18 903 -18 q 642 7 715 -18 q 518 97 569 32 q 403 10 468 39 q 246 -18 339 -18 q 73 34 128 -18 q 18 169 18 86 q 42 287 18 243 q 107 356 65 331 q 206 392 149 381 q 332 414 264 404 q 424 440 400 424 q 447 492 447 456 q 416 544 447 525 q 332 563 385 563 q 242 535 269 563 q 208 461 215 507 l 40 461 q 58 558 42 514 q 109 635 74 603 q 201 684 144 667 q 340 701 258 701 q 476 684 421 701 q 565 632 531 667 q 782 701 651 701 q 1022 600 940 701 q 1103 294 1103 499 l 632 294 m 451 335 q 411 313 438 321 q 335 294 385 304 q 228 256 257 279 q 199 188 199 232 q 286 111 199 111 q 351 123 321 111 q 402 155 381 135 q 437 202 424 175 q 450 260 450 229 l 451 335 m 917 408 q 903 474 915 446 q 872 522 892 503 q 828 549 853 540 q 776 558 803 558 q 683 519 722 558 q 638 408 643 479 l 917 408 z "},"ç":{"ha":661,"x_min":24,"x_max":653,"o":"m 24 0 m 651 247 q 617 139 644 188 q 549 56 590 90 q 453 1 507 21 q 338 -18 400 -18 q 210 5 268 -18 q 111 74 153 28 q 47 190 69 121 q 24 350 24 258 q 47 508 24 442 q 111 617 69 575 q 212 681 153 660 q 343 701 271 701 q 465 683 410 701 q 560 631 519 665 q 625 547 601 596 q 653 439 649 499 l 471 439 q 428 522 464 492 q 342 551 393 551 q 288 542 313 551 q 244 509 263 532 q 214 448 225 486 q 203 354 203 410 q 243 188 203 242 q 336 133 283 133 q 426 163 389 133 q 469 247 464 192 l 651 247 m 269 -264 q 358 -174 356 -257 l 269 -174 l 269 -60 l 429 -60 l 429 -135 q 422 -205 429 -172 q 396 -262 414 -237 q 347 -303 378 -287 q 269 -324 315 -319 l 269 -264 z "},"è":{"ha":692,"x_min":21,"x_max":672,"o":"m 21 0 m 486 408 q 473 474 485 446 q 442 522 461 503 q 397 549 422 540 q 346 558 372 558 q 252 519 292 558 q 207 408 213 479 l 486 408 m 201 294 q 247 171 206 217 q 354 125 288 125 q 433 145 399 125 q 476 201 467 165 l 663 201 q 551 39 631 96 q 363 -18 472 -18 q 21 354 21 -18 q 43 497 21 433 q 108 607 65 561 q 211 677 150 653 q 351 701 272 701 q 591 600 510 701 q 672 294 672 499 l 201 294 m 128 900 l 193 1014 l 481 846 l 438 769 l 128 900 z "},"é":{"ha":692,"x_min":21,"x_max":672,"o":"m 21 0 m 486 408 q 473 474 485 446 q 442 522 461 503 q 397 549 422 540 q 346 558 372 558 q 252 519 292 558 q 207 408 213 479 l 486 408 m 201 294 q 247 171 206 217 q 354 125 288 125 q 433 145 399 125 q 476 201 467 165 l 663 201 q 551 39 631 96 q 363 -18 472 -18 q 21 354 21 -18 q 43 497 21 433 q 108 607 65 561 q 211 677 150 653 q 351 701 272 701 q 591 600 510 701 q 672 294 672 499 l 201 294 m 254 769 l 211 846 l 499 1014 l 564 900 l 254 769 z "},"ê":{"ha":692,"x_min":21,"x_max":672,"o":"m 21 0 m 486 408 q 473 474 485 446 q 442 522 461 503 q 397 549 422 540 q 346 558 372 558 q 252 519 292 558 q 207 408 213 479 l 486 408 m 201 294 q 247 171 206 217 q 354 125 288 125 q 433 145 399 125 q 476 201 467 165 l 663 201 q 551 39 631 96 q 363 -18 472 -18 q 21 354 21 -18 q 43 497 21 433 q 108 607 65 561 q 211 677 150 653 q 351 701 272 701 q 591 600 510 701 q 672 294 672 499 l 201 294 m 346 943 l 158 779 l 94 850 l 272 1036 l 419 1036 l 597 850 l 533 779 l 346 943 z "},"ë":{"ha":692,"x_min":21,"x_max":672,"o":"m 21 0 m 486 408 q 473 474 485 446 q 442 522 461 503 q 397 549 422 540 q 346 558 372 558 q 252 519 292 558 q 207 408 213 479 l 486 408 m 201 294 q 247 171 206 217 q 354 125 288 125 q 433 145 399 125 q 476 201 467 165 l 663 201 q 551 39 631 96 q 363 -18 472 -18 q 21 354 21 -18 q 43 497 21 433 q 108 607 65 561 q 211 677 150 653 q 351 701 272 701 q 591 600 510 701 q 672 294 672 499 l 201 294 m 117 804 l 117 976 l 297 976 l 297 804 l 117 804 m 394 804 l 394 976 l 575 976 l 575 804 l 394 804 z "},"ì":{"ha":372,"x_min":-31,"x_max":322,"o":"m 0 0 m 96 0 l 96 683 l 276 683 l 276 0 l 96 0 m -31 900 l 35 1014 l 322 846 l 279 769 l -31 900 z "},"í":{"ha":372,"x_min":53,"x_max":406,"o":"m 53 0 m 96 0 l 96 683 l 276 683 l 276 0 l 96 0 m 96 769 l 53 846 l 340 1014 l 406 900 l 96 769 z "},"î":{"ha":372,"x_min":-64,"x_max":439,"o":"m 0 0 m 96 0 l 96 683 l 276 683 l 276 0 l 96 0 m 188 943 l 0 779 l -64 850 l 114 1036 l 261 1036 l 439 850 l 375 779 l 188 943 z "},"ï":{"ha":372,"x_min":-42,"x_max":417,"o":"m 0 0 m 96 0 l 96 683 l 276 683 l 276 0 l 96 0 m -42 804 l -42 976 l 139 976 l 139 804 l -42 804 m 236 804 l 236 976 l 417 976 l 417 804 l 236 804 z "},"ð":{"ha":714,"x_min":21,"x_max":683,"o":"m 558 854 q 652 662 621 778 q 683 394 683 546 q 655 196 683 275 q 581 69 626 117 q 479 2 536 22 q 367 -18 422 -18 q 208 9 274 -18 q 101 84 143 36 q 40 196 60 132 q 21 335 21 260 q 41 470 21 408 q 99 576 61 532 q 193 646 138 621 q 321 671 249 671 q 371 669 346 671 q 419 660 396 667 q 464 637 443 653 q 504 594 485 621 q 480 692 499 644 q 433 782 461 740 l 318 715 l 293 754 l 406 819 q 341 885 375 856 q 274 933 307 914 l 467 933 q 525 889 496 915 l 619 943 l 644 904 l 558 854 m 358 132 q 469 179 426 132 q 513 311 513 226 q 474 463 513 410 q 360 517 436 517 q 244 465 282 517 q 206 322 206 413 q 247 181 206 231 q 358 132 289 132 z "},"ñ":{"ha":692,"x_min":36,"x_max":656,"o":"m 36 0 m 474 0 l 474 414 q 447 521 474 493 q 357 549 421 549 q 217 392 217 549 l 217 0 l 36 0 l 36 683 l 208 683 l 208 583 q 293 672 240 642 q 429 701 346 701 q 519 687 478 701 q 591 643 561 672 q 638 572 621 614 q 656 474 656 529 l 656 0 l 474 0 m 599 936 q 533 831 575 861 q 447 800 492 800 q 398 810 421 800 q 354 831 375 819 q 313 853 333 843 q 269 863 292 863 q 244 851 261 863 q 215 801 228 840 l 119 853 q 176 948 142 921 q 254 975 211 975 q 311 965 286 975 q 358 942 336 954 q 400 919 381 929 q 439 908 419 908 q 469 923 451 908 q 494 974 488 938 l 599 936 z "},"ò":{"ha":742,"x_min":21,"x_max":719,"o":"m 21 0 m 372 133 q 538 342 538 133 q 372 549 538 549 q 207 342 207 549 q 372 133 207 133 m 372 -18 q 224 8 289 -18 q 113 82 158 35 q 44 196 68 129 q 21 342 21 263 q 45 489 21 422 q 115 603 69 556 q 226 676 161 650 q 372 701 290 701 q 517 676 453 701 q 626 603 581 650 q 695 490 671 557 q 719 342 719 424 q 695 194 719 260 q 626 81 671 128 q 516 8 581 33 q 372 -18 451 -18 m 153 900 l 218 1014 l 506 846 l 463 769 l 153 900 z "},"ó":{"ha":742,"x_min":21,"x_max":719,"o":"m 21 0 m 372 133 q 538 342 538 133 q 372 549 538 549 q 207 342 207 549 q 372 133 207 133 m 372 -18 q 224 8 289 -18 q 113 82 158 35 q 44 196 68 129 q 21 342 21 263 q 45 489 21 422 q 115 603 69 556 q 226 676 161 650 q 372 701 290 701 q 517 676 453 701 q 626 603 581 650 q 695 490 671 557 q 719 342 719 424 q 695 194 719 260 q 626 81 671 128 q 516 8 581 33 q 372 -18 451 -18 m 279 769 l 236 846 l 524 1014 l 589 900 l 279 769 z "},"ô":{"ha":742,"x_min":21,"x_max":719,"o":"m 21 0 m 372 133 q 538 342 538 133 q 372 549 538 549 q 207 342 207 549 q 372 133 207 133 m 372 -18 q 224 8 289 -18 q 113 82 158 35 q 44 196 68 129 q 21 342 21 263 q 45 489 21 422 q 115 603 69 556 q 226 676 161 650 q 372 701 290 701 q 517 676 453 701 q 626 603 581 650 q 695 490 671 557 q 719 342 719 424 q 695 194 719 260 q 626 81 671 128 q 516 8 581 33 q 372 -18 451 -18 m 371 943 l 183 779 l 119 850 l 297 1036 l 444 1036 l 622 850 l 558 779 l 371 943 z "},"õ":{"ha":742,"x_min":21,"x_max":719,"o":"m 21 0 m 372 133 q 538 342 538 133 q 372 549 538 549 q 207 342 207 549 q 372 133 207 133 m 372 -18 q 224 8 289 -18 q 113 82 158 35 q 44 196 68 129 q 21 342 21 263 q 45 489 21 422 q 115 603 69 556 q 226 676 161 650 q 372 701 290 701 q 517 676 453 701 q 626 603 581 650 q 695 490 671 557 q 719 342 719 424 q 695 194 719 260 q 626 81 671 128 q 516 8 581 33 q 372 -18 451 -18 m 610 936 q 544 831 586 861 q 458 800 503 800 q 409 810 432 800 q 365 831 386 819 q 324 853 344 843 q 281 863 303 863 q 256 851 272 863 q 226 801 239 840 l 131 853 q 188 948 153 921 q 265 975 222 975 q 322 965 297 975 q 369 942 347 954 q 411 919 392 929 q 450 908 431 908 q 481 923 463 908 q 506 974 499 938 l 610 936 z "},"ö":{"ha":742,"x_min":21,"x_max":719,"o":"m 21 0 m 372 133 q 538 342 538 133 q 372 549 538 549 q 207 342 207 549 q 372 133 207 133 m 372 -18 q 224 8 289 -18 q 113 82 158 35 q 44 196 68 129 q 21 342 21 263 q 45 489 21 422 q 115 603 69 556 q 226 676 161 650 q 372 701 290 701 q 517 676 453 701 q 626 603 581 650 q 695 490 671 557 q 719 342 719 424 q 695 194 719 260 q 626 81 671 128 q 516 8 581 33 q 372 -18 451 -18 m 142 804 l 142 976 l 322 976 l 322 804 l 142 804 m 419 804 l 419 976 l 600 976 l 600 804 l 419 804 z "},"÷":{"ha":719,"x_min":32,"x_max":686,"o":"m 32 88 m 32 411 l 32 542 l 686 542 l 686 411 l 32 411 m 263 681 l 263 868 l 456 868 l 456 681 l 263 681 m 263 88 l 263 275 l 456 275 l 456 88 l 263 88 z "},"ø":{"ha":742,"x_min":21,"x_max":719,"o":"m 147 -43 l 179 29 q 62 155 103 74 q 21 342 21 236 q 45 489 21 422 q 115 603 69 556 q 226 676 161 650 q 372 701 290 701 q 427 698 400 701 q 478 688 454 694 l 510 757 l 597 721 l 565 651 q 679 528 639 607 q 719 342 719 449 q 695 194 719 260 q 626 81 671 128 q 516 8 581 33 q 372 -18 451 -18 q 315 -15 343 -18 q 263 -4 288 -11 l 229 -79 l 147 -43 m 328 138 q 372 133 349 133 q 538 342 538 133 q 494 499 538 444 l 328 138 m 413 544 q 393 547 403 546 q 372 549 383 549 q 207 342 207 549 q 250 183 207 235 l 413 544 z "},"ù":{"ha":688,"x_min":36,"x_max":651,"o":"m 36 0 m 481 0 l 481 96 q 268 -18 411 -18 q 174 0 217 -18 q 101 51 132 18 q 53 131 71 85 q 36 233 36 176 l 36 683 l 217 683 l 217 261 q 332 133 217 133 q 437 177 401 133 q 472 289 472 221 l 472 683 l 651 683 l 651 0 l 481 0 m 125 900 l 190 1014 l 478 846 l 435 769 l 125 900 z "},"ú":{"ha":688,"x_min":36,"x_max":651,"o":"m 36 0 m 481 0 l 481 96 q 268 -18 411 -18 q 174 0 217 -18 q 101 51 132 18 q 53 131 71 85 q 36 233 36 176 l 36 683 l 217 683 l 217 261 q 332 133 217 133 q 437 177 401 133 q 472 289 472 221 l 472 683 l 651 683 l 651 0 l 481 0 m 251 769 l 208 846 l 496 1014 l 561 900 l 251 769 z "},"û":{"ha":688,"x_min":36,"x_max":651,"o":"m 36 0 m 481 0 l 481 96 q 268 -18 411 -18 q 174 0 217 -18 q 101 51 132 18 q 53 131 71 85 q 36 233 36 176 l 36 683 l 217 683 l 217 261 q 332 133 217 133 q 437 177 401 133 q 472 289 472 221 l 472 683 l 651 683 l 651 0 l 481 0 m 343 943 l 156 779 l 92 850 l 269 1036 l 417 1036 l 594 850 l 531 779 l 343 943 z "},"ü":{"ha":688,"x_min":36,"x_max":651,"o":"m 36 0 m 481 0 l 481 96 q 268 -18 411 -18 q 174 0 217 -18 q 101 51 132 18 q 53 131 71 85 q 36 233 36 176 l 36 683 l 217 683 l 217 261 q 332 133 217 133 q 437 177 401 133 q 472 289 472 221 l 472 683 l 651 683 l 651 0 l 481 0 m 128 804 l 128 976 l 308 976 l 308 804 l 128 804 m 406 804 l 406 976 l 586 976 l 586 804 l 406 804 z "},"ý":{"ha":688,"x_min":36,"x_max":651,"o":"m 36 0 m 471 90 q 401 19 451 44 q 286 -7 350 -7 q 186 10 232 -7 q 107 60 140 28 q 55 138 74 93 q 36 240 36 183 l 36 683 l 217 683 l 217 267 q 332 139 217 139 q 433 175 394 139 q 471 267 471 211 l 471 683 l 651 683 l 651 -18 q 627 -147 651 -90 q 560 -243 603 -204 q 460 -303 518 -282 q 338 -324 403 -324 q 111 -247 186 -324 q 36 -37 36 -171 l 204 -37 q 240 -133 204 -99 q 346 -168 275 -168 q 393 -158 371 -168 q 433 -128 415 -147 q 460 -82 450 -110 q 471 -21 471 -54 l 471 90 m 251 769 l 208 846 l 496 1014 l 561 900 l 251 769 z "},"þ":{"ha":719,"x_min":36,"x_max":699,"o":"m 358 129 q 469 187 426 129 q 513 336 513 244 q 357 547 513 547 q 206 325 206 547 q 217 246 206 282 q 249 184 228 210 q 297 144 269 158 q 358 129 325 129 m 36 -324 l 36 933 l 214 933 l 214 599 q 285 677 242 653 q 401 701 329 701 q 532 672 476 701 q 625 591 588 642 q 681 474 663 540 q 699 336 699 408 q 680 193 699 258 q 625 81 661 128 q 536 8 589 35 q 417 -18 483 -18 q 299 6 354 -18 q 214 86 244 31 l 214 -324 l 36 -324 z "},"ÿ":{"ha":688,"x_min":36,"x_max":651,"o":"m 36 0 m 471 90 q 401 19 451 44 q 286 -7 350 -7 q 186 10 232 -7 q 107 60 140 28 q 55 138 74 93 q 36 240 36 183 l 36 683 l 217 683 l 217 267 q 332 139 217 139 q 433 175 394 139 q 471 267 471 211 l 471 683 l 651 683 l 651 -18 q 627 -147 651 -90 q 560 -243 603 -204 q 460 -303 518 -282 q 338 -324 403 -324 q 111 -247 186 -324 q 36 -37 36 -171 l 204 -37 q 240 -133 204 -99 q 346 -168 275 -168 q 393 -158 371 -168 q 433 -128 415 -147 q 460 -82 450 -110 q 471 -21 471 -54 l 471 90 m 114 804 l 114 976 l 294 976 l 294 804 l 114 804 m 392 804 l 392 976 l 572 976 l 572 804 l 392 804 z "},"Ā":{"ha":886,"x_min":4,"x_max":882,"o":"m 4 0 m 443 715 l 442 715 l 324 349 l 558 349 l 443 715 m 672 0 l 614 190 l 274 190 l 208 0 l 4 0 l 333 922 l 557 922 l 882 0 l 672 0 m 178 1075 l 178 1201 l 707 1201 l 707 1075 l 178 1075 z "},"ā":{"ha":668,"x_min":18,"x_max":632,"o":"m 18 0 m 451 335 q 411 313 438 321 q 335 294 385 304 q 228 256 257 279 q 199 188 199 232 q 286 111 199 111 q 351 123 321 111 q 402 155 381 135 q 437 202 424 175 q 450 260 450 229 l 451 335 m 464 0 q 453 61 456 26 q 368 3 421 25 q 246 -18 315 -18 q 73 34 128 -18 q 18 169 18 86 q 42 287 18 243 q 107 356 65 331 q 206 392 149 381 q 332 414 264 404 q 424 440 400 424 q 447 492 447 456 q 416 544 447 525 q 332 563 385 563 q 242 535 269 563 q 208 461 215 507 l 40 461 q 58 558 42 514 q 109 635 74 603 q 201 684 144 667 q 340 701 258 701 q 477 683 421 701 q 567 631 533 665 q 617 547 601 597 q 632 432 632 496 l 632 0 l 464 0 m 69 836 l 69 963 l 599 963 l 599 836 l 69 836 z "},"Ă":{"ha":886,"x_min":4,"x_max":882,"o":"m 4 0 m 443 715 l 442 715 l 324 349 l 558 349 l 443 715 m 672 0 l 614 190 l 274 190 l 208 0 l 4 0 l 333 922 l 557 922 l 882 0 l 672 0 m 668 1275 q 649 1174 668 1217 q 599 1102 631 1131 q 527 1059 568 1074 q 443 1044 486 1044 q 359 1059 400 1044 q 287 1102 318 1074 q 237 1174 256 1131 q 218 1275 218 1217 l 332 1275 q 363 1185 335 1217 q 443 1154 392 1154 q 523 1185 494 1154 q 554 1275 551 1217 l 668 1275 z "},"ă":{"ha":668,"x_min":18,"x_max":632,"o":"m 18 0 m 451 335 q 411 313 438 321 q 335 294 385 304 q 228 256 257 279 q 199 188 199 232 q 286 111 199 111 q 351 123 321 111 q 402 155 381 135 q 437 202 424 175 q 450 260 450 229 l 451 335 m 464 0 q 453 61 456 26 q 368 3 421 25 q 246 -18 315 -18 q 73 34 128 -18 q 18 169 18 86 q 42 287 18 243 q 107 356 65 331 q 206 392 149 381 q 332 414 264 404 q 424 440 400 424 q 447 492 447 456 q 416 544 447 525 q 332 563 385 563 q 242 535 269 563 q 208 461 215 507 l 40 461 q 58 558 42 514 q 109 635 74 603 q 201 684 144 667 q 340 701 258 701 q 477 683 421 701 q 567 631 533 665 q 617 547 601 597 q 632 432 632 496 l 632 0 l 464 0 m 558 1036 q 540 935 558 978 q 490 863 521 892 q 417 820 458 835 q 333 806 376 806 q 249 820 290 806 q 177 863 208 835 q 127 935 146 892 q 108 1036 108 978 l 222 1036 q 253 947 225 978 q 333 915 282 915 q 413 947 385 915 q 444 1036 442 978 l 558 1036 z "},"Ą":{"ha":886,"x_min":4,"x_max":882,"o":"m 882 -287 q 828 -313 863 -303 q 736 -324 793 -324 q 622 -292 661 -324 q 583 -206 583 -260 q 649 -85 583 -137 q 822 0 714 -33 l 672 0 l 614 190 l 274 190 l 208 0 l 4 0 l 333 922 l 557 922 l 882 0 q 798 -41 829 -24 q 751 -73 767 -58 q 730 -101 735 -87 q 725 -128 725 -114 q 749 -162 725 -151 q 814 -174 774 -174 q 851 -170 833 -174 q 882 -162 869 -167 l 882 -287 m 443 715 l 442 715 l 324 349 l 558 349 l 443 715 z "},"ą":{"ha":668,"x_min":18,"x_max":632,"o":"m 632 -287 q 578 -313 613 -303 q 486 -324 543 -324 q 372 -292 411 -324 q 333 -206 333 -260 q 399 -85 333 -137 q 572 0 464 -33 l 464 0 q 453 61 456 26 q 368 3 421 25 q 246 -18 315 -18 q 73 34 128 -18 q 18 169 18 86 q 42 287 18 243 q 107 356 65 331 q 206 392 149 381 q 332 414 264 404 q 424 440 400 424 q 447 492 447 456 q 416 544 447 525 q 332 563 385 563 q 242 535 269 563 q 208 461 215 507 l 40 461 q 58 558 42 514 q 109 635 74 603 q 201 684 144 667 q 340 701 258 701 q 477 683 421 701 q 567 631 533 665 q 617 547 601 597 q 632 432 632 496 l 632 0 q 548 -41 579 -24 q 501 -73 517 -58 q 480 -101 485 -87 q 475 -128 475 -114 q 499 -162 475 -151 q 564 -174 524 -174 q 601 -170 583 -174 q 632 -162 619 -167 l 632 -287 m 451 335 q 411 313 438 321 q 335 294 385 304 q 228 256 257 279 q 199 188 199 232 q 286 111 199 111 q 351 123 321 111 q 402 155 381 135 q 437 202 424 175 q 450 260 450 229 l 451 335 z "},"Ć":{"ha":844,"x_min":21,"x_max":844,"o":"m 21 0 m 844 317 q 796 174 829 238 q 712 64 763 110 q 594 -7 661 18 q 447 -32 528 -32 q 278 -1 357 -32 q 143 90 200 29 q 53 241 86 151 q 21 450 21 331 q 51 660 21 567 q 136 819 81 754 q 272 918 192 883 q 450 953 351 953 q 606 927 536 953 q 727 856 676 901 q 808 750 778 811 q 844 619 838 689 l 651 619 q 576 742 632 699 q 451 786 521 786 q 274 699 331 786 q 217 461 217 613 q 273 222 217 307 q 442 136 329 136 q 580 183 528 136 q 651 317 632 229 l 844 317 m 331 1008 l 288 1085 l 575 1253 l 640 1139 l 331 1008 z "},"ć":{"ha":661,"x_min":24,"x_max":653,"o":"m 24 0 m 651 247 q 617 139 644 188 q 549 56 590 90 q 453 1 507 21 q 338 -18 400 -18 q 210 5 268 -18 q 111 74 153 28 q 47 190 69 121 q 24 350 24 258 q 47 508 24 442 q 111 617 69 575 q 212 681 153 660 q 343 701 271 701 q 465 683 410 701 q 560 631 519 665 q 625 547 601 596 q 653 439 649 499 l 471 439 q 428 522 464 492 q 342 551 393 551 q 288 542 313 551 q 244 509 263 532 q 214 448 225 486 q 203 354 203 410 q 243 188 203 242 q 336 133 283 133 q 426 163 389 133 q 469 247 464 192 l 651 247 m 239 769 l 196 846 l 483 1014 l 549 900 l 239 769 z "},"Ċ":{"ha":844,"x_min":21,"x_max":844,"o":"m 21 0 m 844 317 q 796 174 829 238 q 712 64 763 110 q 594 -7 661 18 q 447 -32 528 -32 q 278 -1 357 -32 q 143 90 200 29 q 53 241 86 151 q 21 450 21 331 q 51 660 21 567 q 136 819 81 754 q 272 918 192 883 q 450 953 351 953 q 606 927 536 953 q 727 856 676 901 q 808 750 778 811 q 844 619 838 689 l 651 619 q 576 742 632 699 q 451 786 521 786 q 274 699 331 786 q 217 461 217 613 q 273 222 217 307 q 442 136 329 136 q 580 183 528 136 q 651 317 632 229 l 844 317 m 351 1043 l 351 1215 l 532 1215 l 532 1043 l 351 1043 z "},"ċ":{"ha":661,"x_min":24,"x_max":653,"o":"m 24 0 m 651 247 q 617 139 644 188 q 549 56 590 90 q 453 1 507 21 q 338 -18 400 -18 q 210 5 268 -18 q 111 74 153 28 q 47 190 69 121 q 24 350 24 258 q 47 508 24 442 q 111 617 69 575 q 212 681 153 660 q 343 701 271 701 q 465 683 410 701 q 560 631 519 665 q 625 547 601 596 q 653 439 649 499 l 471 439 q 428 522 464 492 q 342 551 393 551 q 288 542 313 551 q 244 509 263 532 q 214 448 225 486 q 203 354 203 410 q 243 188 203 242 q 336 133 283 133 q 426 163 389 133 q 469 247 464 192 l 651 247 m 249 804 l 249 976 l 429 976 l 429 804 l 249 804 z "},"Č":{"ha":844,"x_min":21,"x_max":844,"o":"m 21 0 m 844 317 q 796 174 829 238 q 712 64 763 110 q 594 -7 661 18 q 447 -32 528 -32 q 278 -1 357 -32 q 143 90 200 29 q 53 241 86 151 q 21 450 21 331 q 51 660 21 567 q 136 819 81 754 q 272 918 192 883 q 450 953 351 953 q 606 927 536 953 q 727 856 676 901 q 808 750 778 811 q 844 619 838 689 l 651 619 q 576 742 632 699 q 451 786 521 786 q 274 699 331 786 q 217 461 217 613 q 273 222 217 307 q 442 136 329 136 q 580 183 528 136 q 651 317 632 229 l 844 317 m 369 1018 l 192 1204 l 256 1275 l 443 1111 l 631 1275 l 694 1204 l 517 1018 l 369 1018 z "},"č":{"ha":661,"x_min":24,"x_max":653,"o":"m 24 0 m 651 247 q 617 139 644 188 q 549 56 590 90 q 453 1 507 21 q 338 -18 400 -18 q 210 5 268 -18 q 111 74 153 28 q 47 190 69 121 q 24 350 24 258 q 47 508 24 442 q 111 617 69 575 q 212 681 153 660 q 343 701 271 701 q 465 683 410 701 q 560 631 519 665 q 625 547 601 596 q 653 439 649 499 l 471 439 q 428 522 464 492 q 342 551 393 551 q 288 542 313 551 q 244 509 263 532 q 214 448 225 486 q 203 354 203 410 q 243 188 203 242 q 336 133 283 133 q 426 163 389 133 q 469 247 464 192 l 651 247 m 257 779 l 79 965 l 143 1036 l 331 872 l 518 1036 l 582 965 l 404 779 l 257 779 z "},"Ď":{"ha":836,"x_min":32,"x_max":817,"o":"m 32 0 m 379 157 q 563 235 506 157 q 619 471 619 314 q 606 604 619 549 q 560 695 592 660 q 481 747 529 731 q 363 763 432 763 l 219 763 l 219 157 l 379 157 m 32 0 l 32 922 l 389 922 q 561 891 482 922 q 697 801 640 860 q 785 660 753 743 q 817 471 817 576 q 788 278 817 365 q 707 130 760 192 q 581 34 654 68 q 418 0 507 0 l 32 0 m 292 1018 l 114 1204 l 178 1275 l 365 1111 l 553 1275 l 617 1204 l 439 1018 l 292 1018 z "},"ď":{"ha":911,"x_min":22,"x_max":911,"o":"m 22 0 m 360 129 q 469 183 425 129 q 513 325 513 238 q 361 547 513 547 q 206 336 206 547 q 249 187 206 244 q 360 129 292 129 m 510 0 l 508 83 q 318 -18 446 -18 q 199 7 253 -18 q 106 79 144 32 q 44 194 67 126 q 22 349 22 263 q 41 491 22 426 q 96 603 60 556 q 184 676 132 650 q 303 701 236 701 q 506 594 429 701 l 506 933 l 683 933 l 683 0 l 510 0 m 719 625 q 799 672 772 639 q 826 772 825 706 l 719 772 l 719 960 l 911 960 l 911 818 q 901 715 911 760 q 869 640 892 671 q 810 588 847 608 q 719 556 774 567 l 719 625 z "},"Đ":{"ha":836,"x_min":0,"x_max":817,"o":"m 0 0 m 32 0 l 32 392 l 0 392 l 0 529 l 32 529 l 32 922 l 389 922 q 561 891 482 922 q 697 801 640 860 q 785 660 753 743 q 817 471 817 576 q 788 278 817 365 q 707 130 760 192 q 581 34 654 68 q 418 0 507 0 l 32 0 m 379 157 q 563 235 506 157 q 619 471 619 314 q 606 604 619 549 q 560 695 592 660 q 481 747 529 731 q 363 763 432 763 l 219 763 l 219 529 l 368 529 l 368 392 l 219 392 l 219 157 l 379 157 z "},"đ":{"ha":719,"x_min":22,"x_max":719,"o":"m 510 0 l 508 83 q 318 -18 446 -18 q 199 7 253 -18 q 106 79 144 32 q 44 194 67 126 q 22 349 22 263 q 41 491 22 426 q 96 603 60 556 q 184 676 132 650 q 303 701 236 701 q 506 594 429 701 l 506 740 l 274 740 l 274 867 l 506 867 l 506 933 l 683 933 l 683 867 l 719 867 l 719 740 l 683 740 l 683 0 l 510 0 m 360 129 q 469 183 425 129 q 513 325 513 238 q 361 547 513 547 q 206 336 206 547 q 249 187 206 244 q 360 129 292 129 z "},"Ē":{"ha":732,"x_min":32,"x_max":732,"o":"m 32 0 m 32 0 l 32 922 l 710 922 l 710 761 l 219 761 l 219 564 l 671 564 l 671 401 l 219 401 l 219 164 l 732 164 l 732 0 l 32 0 m 101 1075 l 101 1201 l 631 1201 l 631 1075 l 101 1075 z "},"ē":{"ha":692,"x_min":21,"x_max":672,"o":"m 21 0 m 486 408 q 473 474 485 446 q 442 522 461 503 q 397 549 422 540 q 346 558 372 558 q 252 519 292 558 q 207 408 213 479 l 486 408 m 201 294 q 247 171 206 217 q 354 125 288 125 q 433 145 399 125 q 476 201 467 165 l 663 201 q 551 39 631 96 q 363 -18 472 -18 q 21 354 21 -18 q 43 497 21 433 q 108 607 65 561 q 211 677 150 653 q 351 701 272 701 q 591 600 510 701 q 672 294 672 499 l 201 294 m 81 836 l 81 963 l 610 963 l 610 836 l 81 836 z "},"Ĕ":{"ha":732,"x_min":32,"x_max":732,"o":"m 32 0 m 32 0 l 32 922 l 710 922 l 710 761 l 219 761 l 219 564 l 671 564 l 671 401 l 219 401 l 219 164 l 732 164 l 732 0 l 32 0 m 590 1275 q 572 1174 590 1217 q 522 1102 553 1131 q 449 1059 490 1074 q 365 1044 408 1044 q 281 1059 322 1044 q 209 1102 240 1074 q 159 1174 178 1131 q 140 1275 140 1217 l 254 1275 q 285 1185 257 1217 q 365 1154 314 1154 q 445 1185 417 1154 q 476 1275 474 1217 l 590 1275 z "},"ĕ":{"ha":692,"x_min":21,"x_max":672,"o":"m 21 0 m 486 408 q 473 474 485 446 q 442 522 461 503 q 397 549 422 540 q 346 558 372 558 q 252 519 292 558 q 207 408 213 479 l 486 408 m 201 294 q 247 171 206 217 q 354 125 288 125 q 433 145 399 125 q 476 201 467 165 l 663 201 q 551 39 631 96 q 363 -18 472 -18 q 21 354 21 -18 q 43 497 21 433 q 108 607 65 561 q 211 677 150 653 q 351 701 272 701 q 591 600 510 701 q 672 294 672 499 l 201 294 m 571 1036 q 552 935 571 978 q 502 863 533 892 q 430 820 471 835 q 346 806 389 806 q 262 820 303 806 q 190 863 221 835 q 140 935 158 892 q 121 1036 121 978 l 235 1036 q 266 947 238 978 q 346 915 294 915 q 426 947 397 915 q 457 1036 454 978 l 571 1036 z "},"Ė":{"ha":732,"x_min":32,"x_max":732,"o":"m 32 0 m 32 0 l 32 922 l 710 922 l 710 761 l 219 761 l 219 564 l 671 564 l 671 401 l 219 401 l 219 164 l 732 164 l 732 0 l 32 0 m 289 1043 l 289 1215 l 469 1215 l 469 1043 l 289 1043 z "},"ė":{"ha":692,"x_min":21,"x_max":672,"o":"m 21 0 m 486 408 q 473 474 485 446 q 442 522 461 503 q 397 549 422 540 q 346 558 372 558 q 252 519 292 558 q 207 408 213 479 l 486 408 m 201 294 q 247 171 206 217 q 354 125 288 125 q 433 145 399 125 q 476 201 467 165 l 663 201 q 551 39 631 96 q 363 -18 472 -18 q 21 354 21 -18 q 43 497 21 433 q 108 607 65 561 q 211 677 150 653 q 351 701 272 701 q 591 600 510 701 q 672 294 672 499 l 201 294 m 263 804 l 263 976 l 443 976 l 443 804 l 263 804 z "},"Ę":{"ha":732,"x_min":32,"x_max":732,"o":"m 732 -287 q 678 -313 713 -303 q 586 -324 643 -324 q 472 -292 511 -324 q 433 -206 433 -260 q 499 -85 433 -137 q 672 0 564 -33 l 32 0 l 32 922 l 710 922 l 710 761 l 219 761 l 219 564 l 671 564 l 671 401 l 219 401 l 219 164 l 732 164 l 732 0 q 648 -41 679 -24 q 601 -73 617 -58 q 580 -101 585 -87 q 575 -128 575 -114 q 599 -162 575 -151 q 664 -174 624 -174 q 701 -170 683 -174 q 732 -162 719 -167 l 732 -287 z "},"ę":{"ha":692,"x_min":21,"x_max":672,"o":"m 476 -287 q 422 -313 457 -303 q 331 -324 388 -324 q 217 -292 256 -324 q 178 -206 178 -260 q 227 -99 178 -146 q 364 -18 276 -51 l 363 -18 q 21 354 21 -18 q 43 497 21 433 q 108 607 65 561 q 211 677 150 653 q 351 701 272 701 q 591 600 510 701 q 672 294 672 499 l 201 294 q 247 171 206 217 q 354 125 288 125 q 433 145 399 125 q 476 201 467 165 l 663 201 q 591 74 639 125 q 476 0 543 24 q 392 -41 424 -24 q 345 -73 361 -58 q 324 -101 329 -87 q 319 -128 319 -114 q 344 -162 319 -151 q 408 -174 368 -174 q 446 -170 428 -174 q 476 -162 464 -167 l 476 -287 m 486 408 q 473 474 485 446 q 442 522 461 503 q 397 549 422 540 q 346 558 372 558 q 252 519 292 558 q 207 408 213 479 l 486 408 z "},"Ě":{"ha":732,"x_min":32,"x_max":732,"o":"m 32 0 m 32 0 l 32 922 l 710 922 l 710 761 l 219 761 l 219 564 l 671 564 l 671 401 l 219 401 l 219 164 l 732 164 l 732 0 l 32 0 m 292 1018 l 114 1204 l 178 1275 l 365 1111 l 553 1275 l 617 1204 l 439 1018 l 292 1018 z "},"ě":{"ha":692,"x_min":21,"x_max":672,"o":"m 21 0 m 486 408 q 473 474 485 446 q 442 522 461 503 q 397 549 422 540 q 346 558 372 558 q 252 519 292 558 q 207 408 213 479 l 486 408 m 201 294 q 247 171 206 217 q 354 125 288 125 q 433 145 399 125 q 476 201 467 165 l 663 201 q 551 39 631 96 q 363 -18 472 -18 q 21 354 21 -18 q 43 497 21 433 q 108 607 65 561 q 211 677 150 653 q 351 701 272 701 q 591 600 510 701 q 672 294 672 499 l 201 294 m 272 779 l 94 965 l 158 1036 l 346 872 l 533 1036 l 597 965 l 419 779 l 272 779 z "},"Ğ":{"ha":915,"x_min":21,"x_max":879,"o":"m 21 0 m 719 0 l 715 92 q 608 1 682 33 q 439 -32 535 -32 q 266 9 343 -32 q 134 119 189 50 q 50 277 79 188 q 21 463 21 367 q 50 653 21 564 q 136 810 79 743 q 278 915 193 876 q 475 953 363 953 q 628 929 557 953 q 753 864 700 906 q 840 765 807 822 q 878 638 872 707 l 683 638 q 661 698 679 669 q 615 747 643 726 q 551 781 588 768 q 475 793 514 793 q 288 706 358 793 q 218 454 218 619 q 233 340 218 397 q 278 235 247 282 q 358 160 310 189 q 474 131 407 131 q 562 147 521 131 q 633 193 603 164 q 681 260 664 222 q 699 342 699 299 l 494 342 l 494 496 l 879 496 l 879 0 l 719 0 m 696 1275 q 677 1174 696 1217 q 627 1102 658 1131 q 555 1059 596 1074 q 471 1044 514 1044 q 387 1059 428 1044 q 315 1102 346 1074 q 265 1174 283 1131 q 246 1275 246 1217 l 360 1275 q 391 1185 363 1217 q 471 1154 419 1154 q 551 1185 522 1154 q 582 1275 579 1217 l 696 1275 z "},"ğ":{"ha":729,"x_min":22,"x_max":693,"o":"m 22 0 m 364 136 q 474 187 431 136 q 518 325 518 238 q 364 544 518 544 q 210 336 210 544 q 253 190 210 244 q 364 136 297 136 m 513 92 q 442 20 493 46 q 325 -6 392 -6 q 183 24 240 -6 q 90 103 125 54 q 38 215 54 151 q 22 346 22 279 q 46 491 22 425 q 110 603 69 557 q 204 676 150 650 q 321 701 258 701 q 513 599 449 701 l 513 683 l 693 683 l 693 -7 q 667 -144 693 -85 q 594 -242 640 -203 q 486 -303 549 -282 q 353 -324 424 -324 q 221 -303 282 -324 q 116 -247 160 -283 q 47 -157 72 -210 q 22 -37 22 -104 l 190 -37 q 231 -134 190 -100 q 340 -168 272 -168 q 463 -128 413 -168 q 513 -21 513 -89 l 513 92 m 565 1036 q 547 935 565 978 q 497 863 528 892 q 424 820 465 835 q 340 806 383 806 q 256 820 297 806 q 184 863 215 835 q 134 935 153 892 q 115 1036 115 978 l 229 1036 q 260 947 232 978 q 340 915 289 915 q 420 947 392 915 q 451 1036 449 978 l 565 1036 z "},"Ġ":{"ha":915,"x_min":21,"x_max":879,"o":"m 21 0 m 719 0 l 715 92 q 608 1 682 33 q 439 -32 535 -32 q 266 9 343 -32 q 134 119 189 50 q 50 277 79 188 q 21 463 21 367 q 50 653 21 564 q 136 810 79 743 q 278 915 193 876 q 475 953 363 953 q 628 929 557 953 q 753 864 700 906 q 840 765 807 822 q 878 638 872 707 l 683 638 q 661 698 679 669 q 615 747 643 726 q 551 781 588 768 q 475 793 514 793 q 288 706 358 793 q 218 454 218 619 q 233 340 218 397 q 278 235 247 282 q 358 160 310 189 q 474 131 407 131 q 562 147 521 131 q 633 193 603 164 q 681 260 664 222 q 699 342 699 299 l 494 342 l 494 496 l 879 496 l 879 0 l 719 0 m 381 1043 l 381 1215 l 561 1215 l 561 1043 l 381 1043 z "},"ġ":{"ha":729,"x_min":22,"x_max":693,"o":"m 22 0 m 364 136 q 474 187 431 136 q 518 325 518 238 q 364 544 518 544 q 210 336 210 544 q 253 190 210 244 q 364 136 297 136 m 513 92 q 442 20 493 46 q 325 -6 392 -6 q 183 24 240 -6 q 90 103 125 54 q 38 215 54 151 q 22 346 22 279 q 46 491 22 425 q 110 603 69 557 q 204 676 150 650 q 321 701 258 701 q 513 599 449 701 l 513 683 l 693 683 l 693 -7 q 667 -144 693 -85 q 594 -242 640 -203 q 486 -303 549 -282 q 353 -324 424 -324 q 221 -303 282 -324 q 116 -247 160 -283 q 47 -157 72 -210 q 22 -37 22 -104 l 190 -37 q 231 -134 190 -100 q 340 -168 272 -168 q 463 -128 413 -168 q 513 -21 513 -89 l 513 92 m 257 804 l 257 976 l 438 976 l 438 804 l 257 804 z "},"Ģ":{"ha":915,"x_min":21,"x_max":879,"o":"m 21 0 m 719 0 l 715 92 q 608 1 682 33 q 439 -32 535 -32 q 266 9 343 -32 q 134 119 189 50 q 50 277 79 188 q 21 463 21 367 q 50 653 21 564 q 136 810 79 743 q 278 915 193 876 q 475 953 363 953 q 628 929 557 953 q 753 864 700 906 q 840 765 807 822 q 878 638 872 707 l 683 638 q 661 698 679 669 q 615 747 643 726 q 551 781 588 768 q 475 793 514 793 q 288 706 358 793 q 218 454 218 619 q 233 340 218 397 q 278 235 247 282 q 358 160 310 189 q 474 131 407 131 q 562 147 521 131 q 633 193 603 164 q 681 260 664 222 q 699 342 699 299 l 494 342 l 494 496 l 879 496 l 879 0 l 719 0 m 378 -264 q 467 -174 464 -257 l 378 -174 l 378 -60 l 538 -60 l 538 -135 q 530 -205 538 -172 q 504 -262 522 -237 q 455 -303 486 -287 q 378 -324 424 -319 l 378 -264 z "},"ģ":{"ha":729,"x_min":22,"x_max":693,"o":"m 22 0 m 364 136 q 474 187 431 136 q 518 325 518 238 q 364 544 518 544 q 210 336 210 544 q 253 190 210 244 q 364 136 297 136 m 513 92 q 442 20 493 46 q 325 -6 392 -6 q 183 24 240 -6 q 90 103 125 54 q 38 215 54 151 q 22 346 22 279 q 46 491 22 425 q 110 603 69 557 q 204 676 150 650 q 321 701 258 701 q 513 599 449 701 l 513 683 l 693 683 l 693 -7 q 667 -144 693 -85 q 594 -242 640 -203 q 486 -303 549 -282 q 353 -324 424 -324 q 221 -303 282 -324 q 116 -247 160 -283 q 47 -157 72 -210 q 22 -37 22 -104 l 190 -37 q 231 -134 190 -100 q 340 -168 272 -168 q 463 -128 413 -168 q 513 -21 513 -89 l 513 92 m 444 953 q 356 862 358 946 l 444 862 l 444 749 l 285 749 l 285 824 q 292 894 285 861 q 318 951 300 926 q 367 992 336 976 q 444 1012 399 1008 l 444 953 z "},"Ħ":{"ha":808,"x_min":32,"x_max":779,"o":"m 585 0 l 585 414 l 225 414 l 225 0 l 32 0 l 32 922 l 225 922 l 225 811 l 585 811 l 585 922 l 779 922 l 779 0 l 585 0 m 585 575 l 585 685 l 225 685 l 225 575 l 585 575 z "},"ħ":{"ha":692,"x_min":0,"x_max":656,"o":"m 217 747 l 217 594 q 247 637 226 617 q 293 671 267 657 q 351 693 319 685 q 418 701 383 701 q 590 644 524 701 q 656 483 656 586 l 656 0 l 474 0 l 474 424 q 447 530 474 501 q 357 558 419 558 q 297 545 324 558 q 253 509 271 532 q 226 456 235 486 q 217 392 217 426 l 217 0 l 36 0 l 36 747 l 0 747 l 0 874 l 36 874 l 36 933 l 217 933 l 217 874 l 446 874 l 446 747 l 217 747 z "},"Ĩ":{"ha":256,"x_min":-110,"x_max":369,"o":"m 0 0 m 32 0 l 32 922 l 225 922 l 225 0 l 32 0 m 369 1175 q 304 1069 346 1100 q 218 1039 263 1039 q 169 1049 192 1039 q 125 1070 146 1058 q 83 1092 104 1082 q 40 1101 63 1101 q 15 1090 32 1101 q -14 1040 -1 1079 l -110 1092 q -53 1187 -87 1160 q 25 1214 -18 1214 q 82 1203 57 1214 q 129 1181 107 1193 q 171 1158 151 1168 q 210 1147 190 1147 q 240 1162 222 1147 q 265 1213 258 1176 l 369 1175 z "},"ĩ":{"ha":372,"x_min":-51,"x_max":428,"o":"m 0 0 m 96 0 l 96 683 l 276 683 l 276 0 l 96 0 m 428 936 q 363 831 404 861 q 276 800 321 800 q 227 810 250 800 q 183 831 204 819 q 142 853 163 843 q 99 863 121 863 q 74 851 90 863 q 44 801 57 840 l -51 853 q 6 948 -29 921 q 83 975 40 975 q 140 965 115 975 q 188 942 165 954 q 229 919 210 929 q 268 908 249 908 q 299 923 281 908 q 324 974 317 938 l 428 936 z "},"Ī":{"ha":256,"x_min":-135,"x_max":394,"o":"m 0 0 m 32 0 l 32 922 l 225 922 l 225 0 l 32 0 m -135 1075 l -135 1201 l 394 1201 l 394 1075 l -135 1075 z "},"ī":{"ha":372,"x_min":-76,"x_max":453,"o":"m 0 0 m 96 0 l 96 683 l 276 683 l 276 0 l 96 0 m -76 836 l -76 963 l 453 963 l 453 836 l -76 836 z "},"Ĭ":{"ha":256,"x_min":-96,"x_max":354,"o":"m 0 0 m 32 0 l 32 922 l 225 922 l 225 0 l 32 0 m 354 1275 q 335 1174 354 1217 q 285 1102 317 1131 q 213 1059 254 1074 q 129 1044 172 1044 q 45 1059 86 1044 q -27 1102 4 1074 q -77 1174 -58 1131 q -96 1275 -96 1217 l 18 1275 q 49 1185 21 1217 q 129 1154 78 1154 q 209 1185 181 1154 q 240 1275 238 1217 l 354 1275 z "},"ĭ":{"ha":372,"x_min":-37,"x_max":413,"o":"m 0 0 m 96 0 l 96 683 l 276 683 l 276 0 l 96 0 m 413 1036 q 394 935 413 978 q 344 863 375 892 q 272 820 313 835 q 188 806 231 806 q 103 820 144 806 q 31 863 63 835 q -19 935 0 892 q -37 1036 -37 978 l 76 1036 q 108 947 79 978 q 188 915 136 915 q 267 947 239 915 q 299 1036 296 978 l 413 1036 z "},"Į":{"ha":256,"x_min":-74,"x_max":225,"o":"m 225 -287 q 171 -313 206 -303 q 79 -324 136 -324 q -35 -292 4 -324 q -74 -206 -74 -260 q -8 -85 -74 -137 q 165 0 57 -33 l 32 0 l 32 922 l 225 922 l 225 0 q 141 -41 172 -24 q 94 -73 110 -58 q 73 -101 78 -87 q 68 -128 68 -114 q 92 -162 68 -151 q 157 -174 117 -174 q 194 -170 176 -174 q 225 -162 213 -167 l 225 -287 z "},"į":{"ha":261,"x_min":-78,"x_max":221,"o":"m 221 -287 q 167 -313 201 -303 q 75 -324 132 -324 q -39 -292 0 -324 q -78 -206 -78 -260 q -12 -85 -78 -137 q 161 0 53 -33 l 40 0 l 40 683 l 221 683 l 221 0 q 137 -41 168 -24 q 90 -73 106 -58 q 69 -101 74 -87 q 64 -128 64 -114 q 88 -162 64 -151 q 153 -174 113 -174 q 190 -170 172 -174 q 221 -162 208 -167 l 221 -287 m 40 765 l 40 933 l 221 933 l 221 765 l 40 765 z "},"İ":{"ha":256,"x_min":32,"x_max":225,"o":"m 32 0 m 32 0 l 32 922 l 225 922 l 225 0 l 32 0 m 39 1043 l 39 1215 l 219 1215 l 219 1043 l 39 1043 z "},"ı":{"ha":261,"x_min":40,"x_max":221,"o":"m 40 0 l 40 683 l 221 683 l 221 0 l 40 0 z "},"Ĳ":{"ha":879,"x_min":32,"x_max":849,"o":"m 32 0 m 32 0 l 32 922 l 225 922 l 225 0 l 32 0 m 656 922 l 849 922 l 849 249 q 772 45 849 122 q 546 -32 696 -32 q 336 40 411 -32 q 261 254 261 111 l 261 349 l 436 349 l 436 264 q 461 159 436 193 q 546 125 486 125 q 634 158 613 125 q 656 267 656 190 l 656 922 z "},"ĳ":{"ha":522,"x_min":-58,"x_max":486,"o":"m 0 0 m 40 0 l 40 683 l 221 683 l 221 0 l 40 0 m 40 765 l 40 933 l 221 933 l 221 765 l 40 765 m 304 683 l 486 683 l 486 -46 q 465 -159 486 -108 q 408 -247 444 -210 q 323 -303 372 -283 q 217 -324 274 -324 q 9 -247 76 -324 q -58 -37 -58 -169 l 111 -37 q 133 -130 111 -96 q 207 -164 154 -164 q 283 -131 261 -164 q 304 -39 304 -97 l 304 683 m 304 765 l 304 933 l 486 933 l 486 765 l 304 765 z "},"Ķ":{"ha":833,"x_min":32,"x_max":833,"o":"m 32 0 m 599 0 l 325 415 l 222 314 l 222 0 l 32 0 l 32 922 l 222 922 l 222 547 l 575 922 l 825 922 l 461 558 l 833 0 l 599 0 m 350 -264 q 439 -174 436 -257 l 350 -174 l 350 -60 l 510 -60 l 510 -135 q 502 -205 510 -172 q 476 -262 494 -237 q 427 -303 458 -287 q 350 -324 396 -319 l 350 -264 z "},"ķ":{"ha":664,"x_min":36,"x_max":664,"o":"m 36 0 m 456 0 l 306 307 l 218 217 l 218 0 l 36 0 l 36 933 l 218 933 l 218 424 l 443 683 l 664 683 l 435 432 l 658 0 l 456 0 m 265 -264 q 354 -174 351 -257 l 265 -174 l 265 -60 l 425 -60 l 425 -135 q 417 -205 425 -172 q 392 -262 410 -237 q 342 -303 374 -287 q 265 -324 311 -319 l 265 -264 z "},"Ĺ":{"ha":689,"x_min":3,"x_max":682,"o":"m 3 0 m 32 0 l 32 922 l 225 922 l 225 168 l 682 168 l 682 0 l 32 0 m 46 1008 l 3 1085 l 290 1253 l 356 1139 l 46 1008 z "},"ĺ":{"ha":251,"x_min":-7,"x_max":346,"o":"m 0 0 m 36 0 l 36 933 l 217 933 l 217 0 l 36 0 m 36 1008 l -7 1085 l 281 1253 l 346 1139 l 36 1008 z "},"Ļ":{"ha":689,"x_min":32,"x_max":682,"o":"m 32 0 m 32 0 l 32 922 l 225 922 l 225 168 l 682 168 l 682 0 l 32 0 m 278 -264 q 367 -174 364 -257 l 278 -174 l 278 -60 l 438 -60 l 438 -135 q 430 -205 438 -172 q 404 -262 422 -237 q 355 -303 386 -287 q 278 -324 324 -319 l 278 -264 z "},"ļ":{"ha":251,"x_min":36,"x_max":217,"o":"m 36 0 m 36 0 l 36 933 l 217 933 l 217 0 l 36 0 m 47 -264 q 136 -174 133 -257 l 47 -174 l 47 -60 l 207 -60 l 207 -135 q 199 -205 207 -172 q 174 -262 192 -237 q 124 -303 156 -287 q 47 -324 93 -319 l 47 -264 z "},"Ľ":{"ha":689,"x_min":32,"x_max":682,"o":"m 32 0 m 32 0 l 32 922 l 225 922 l 225 168 l 682 168 l 682 0 l 32 0 m 275 625 q 354 672 328 639 q 382 772 381 706 l 275 772 l 275 960 l 467 960 l 467 818 q 457 715 467 760 q 425 640 447 671 q 366 588 403 608 q 275 556 329 567 l 275 625 z "},"ľ":{"ha":443,"x_min":36,"x_max":443,"o":"m 36 0 m 36 0 l 36 933 l 217 933 l 217 0 l 36 0 m 251 625 q 331 672 304 639 q 358 772 357 706 l 251 772 l 251 960 l 443 960 l 443 818 q 433 715 443 760 q 401 640 424 671 q 342 588 379 608 q 251 556 306 567 l 251 625 z "},"Ŀ":{"ha":689,"x_min":32,"x_max":682,"o":"m 32 0 m 32 0 l 32 922 l 225 922 l 225 168 l 682 168 l 682 0 l 32 0 m 264 436 l 264 608 l 444 608 l 444 436 l 264 436 z "},"ŀ":{"ha":432,"x_min":36,"x_max":432,"o":"m 36 0 m 36 0 l 36 933 l 217 933 l 217 0 l 36 0 m 251 389 l 251 561 l 432 561 l 432 389 l 251 389 z "},"Ł":{"ha":689,"x_min":32,"x_max":682,"o":"m 32 0 l 32 922 l 225 922 l 225 524 l 421 611 l 421 488 l 225 400 l 225 168 l 682 168 l 682 0 l 32 0 z "},"ł":{"ha":354,"x_min":0,"x_max":354,"o":"m 86 0 l 86 369 l 0 332 l 0 454 l 86 492 l 86 933 l 267 933 l 267 571 l 354 611 l 354 488 l 267 449 l 267 0 l 86 0 z "},"Ń":{"ha":814,"x_min":32,"x_max":783,"o":"m 32 0 m 606 0 l 211 619 l 211 0 l 32 0 l 32 922 l 236 922 l 603 329 l 603 922 l 783 922 l 783 0 l 606 0 m 315 1008 l 272 1085 l 560 1253 l 625 1139 l 315 1008 z "},"ń":{"ha":692,"x_min":36,"x_max":656,"o":"m 36 0 m 474 0 l 474 414 q 447 521 474 493 q 357 549 421 549 q 217 392 217 549 l 217 0 l 36 0 l 36 683 l 208 683 l 208 583 q 293 672 240 642 q 429 701 346 701 q 519 687 478 701 q 591 643 561 672 q 638 572 621 614 q 656 474 656 529 l 656 0 l 474 0 m 254 769 l 211 846 l 499 1014 l 564 900 l 254 769 z "},"Ņ":{"ha":814,"x_min":32,"x_max":783,"o":"m 32 0 m 606 0 l 211 619 l 211 0 l 32 0 l 32 922 l 236 922 l 603 329 l 603 922 l 783 922 l 783 0 l 606 0 m 340 -264 q 429 -174 426 -257 l 340 -174 l 340 -60 l 500 -60 l 500 -135 q 492 -205 500 -172 q 467 -262 485 -237 q 417 -303 449 -287 q 340 -324 386 -319 l 340 -264 z "},"ņ":{"ha":692,"x_min":36,"x_max":656,"o":"m 36 0 m 474 0 l 474 414 q 447 521 474 493 q 357 549 421 549 q 217 392 217 549 l 217 0 l 36 0 l 36 683 l 208 683 l 208 583 q 293 672 240 642 q 429 701 346 701 q 519 687 478 701 q 591 643 561 672 q 638 572 621 614 q 656 474 656 529 l 656 0 l 474 0 m 279 -264 q 368 -174 365 -257 l 279 -174 l 279 -60 l 439 -60 l 439 -135 q 431 -205 439 -172 q 406 -262 424 -237 q 356 -303 388 -287 q 279 -324 325 -319 l 279 -264 z "},"Ň":{"ha":814,"x_min":32,"x_max":783,"o":"m 32 0 m 606 0 l 211 619 l 211 0 l 32 0 l 32 922 l 236 922 l 603 329 l 603 922 l 783 922 l 783 0 l 606 0 m 333 1018 l 156 1204 l 219 1275 l 407 1111 l 594 1275 l 658 1204 l 481 1018 l 333 1018 z "},"ň":{"ha":692,"x_min":36,"x_max":656,"o":"m 36 0 m 474 0 l 474 414 q 447 521 474 493 q 357 549 421 549 q 217 392 217 549 l 217 0 l 36 0 l 36 683 l 208 683 l 208 583 q 293 672 240 642 q 429 701 346 701 q 519 687 478 701 q 591 643 561 672 q 638 572 621 614 q 656 474 656 529 l 656 0 l 474 0 m 286 779 l 108 965 l 172 1036 l 360 872 l 547 1036 l 611 965 l 433 779 l 286 779 z "},"Ŋ":{"ha":814,"x_min":32,"x_max":783,"o":"m 603 4 l 211 619 l 211 0 l 32 0 l 32 922 l 236 922 l 603 329 l 603 922 l 783 922 l 783 -46 q 763 -159 783 -108 q 706 -247 742 -210 q 620 -303 669 -283 q 514 -324 571 -324 q 497 -323 504 -324 q 481 -322 489 -322 l 481 -161 q 504 -164 494 -164 q 581 -131 558 -164 q 603 -39 603 -97 l 603 4 z "},"ŋ":{"ha":692,"x_min":36,"x_max":656,"o":"m 474 429 q 444 524 471 499 q 357 549 418 549 q 217 392 217 549 l 217 0 l 36 0 l 36 683 l 208 683 l 208 583 q 293 672 240 642 q 429 701 346 701 q 519 687 478 701 q 591 643 561 672 q 638 572 621 614 q 656 474 656 529 l 656 -46 q 635 -159 656 -108 q 578 -247 614 -210 q 492 -303 542 -283 q 386 -324 443 -324 q 370 -323 378 -324 q 356 -322 363 -322 l 356 -162 q 365 -163 360 -162 q 376 -164 369 -164 q 452 -131 431 -164 q 474 -39 474 -97 l 474 429 z "},"Ō":{"ha":925,"x_min":21,"x_max":904,"o":"m 21 0 m 464 133 q 561 152 515 133 q 641 209 607 171 q 694 307 675 247 q 714 449 714 367 q 650 697 714 613 q 464 782 586 782 q 276 697 342 782 q 211 449 211 613 q 277 209 211 285 q 464 133 343 133 m 464 -32 q 135 93 250 -32 q 21 453 21 218 q 50 663 21 569 q 136 820 79 756 q 275 919 193 885 q 464 953 357 953 q 652 919 569 953 q 790 819 735 885 q 875 660 846 754 q 904 449 904 567 q 791 89 904 210 q 464 -32 678 -32 m 197 1075 l 197 1201 l 726 1201 l 726 1075 l 197 1075 z "},"ō":{"ha":742,"x_min":21,"x_max":719,"o":"m 21 0 m 372 133 q 538 342 538 133 q 372 549 538 549 q 207 342 207 549 q 372 133 207 133 m 372 -18 q 224 8 289 -18 q 113 82 158 35 q 44 196 68 129 q 21 342 21 263 q 45 489 21 422 q 115 603 69 556 q 226 676 161 650 q 372 701 290 701 q 517 676 453 701 q 626 603 581 650 q 695 490 671 557 q 719 342 719 424 q 695 194 719 260 q 626 81 671 128 q 516 8 581 33 q 372 -18 451 -18 m 106 836 l 106 963 l 635 963 l 635 836 l 106 836 z "},"Ŏ":{"ha":925,"x_min":21,"x_max":904,"o":"m 21 0 m 464 133 q 561 152 515 133 q 641 209 607 171 q 694 307 675 247 q 714 449 714 367 q 650 697 714 613 q 464 782 586 782 q 276 697 342 782 q 211 449 211 613 q 277 209 211 285 q 464 133 343 133 m 464 -32 q 135 93 250 -32 q 21 453 21 218 q 50 663 21 569 q 136 820 79 756 q 275 919 193 885 q 464 953 357 953 q 652 919 569 953 q 790 819 735 885 q 875 660 846 754 q 904 449 904 567 q 791 89 904 210 q 464 -32 678 -32 m 688 1275 q 669 1174 688 1217 q 619 1102 650 1131 q 547 1059 588 1074 q 463 1044 506 1044 q 378 1059 419 1044 q 306 1102 338 1074 q 256 1174 275 1131 q 238 1275 238 1217 l 351 1275 q 383 1185 354 1217 q 463 1154 411 1154 q 542 1185 514 1154 q 574 1275 571 1217 l 688 1275 z "},"ŏ":{"ha":742,"x_min":21,"x_max":719,"o":"m 21 0 m 372 133 q 538 342 538 133 q 372 549 538 549 q 207 342 207 549 q 372 133 207 133 m 372 -18 q 224 8 289 -18 q 113 82 158 35 q 44 196 68 129 q 21 342 21 263 q 45 489 21 422 q 115 603 69 556 q 226 676 161 650 q 372 701 290 701 q 517 676 453 701 q 626 603 581 650 q 695 490 671 557 q 719 342 719 424 q 695 194 719 260 q 626 81 671 128 q 516 8 581 33 q 372 -18 451 -18 m 596 1036 q 577 935 596 978 q 527 863 558 892 q 455 820 496 835 q 371 806 414 806 q 287 820 328 806 q 215 863 246 835 q 165 935 183 892 q 146 1036 146 978 l 260 1036 q 291 947 263 978 q 371 915 319 915 q 451 947 422 915 q 482 1036 479 978 l 596 1036 z "},"Ő":{"ha":925,"x_min":21,"x_max":904,"o":"m 21 0 m 464 133 q 561 152 515 133 q 641 209 607 171 q 694 307 675 247 q 714 449 714 367 q 650 697 714 613 q 464 782 586 782 q 276 697 342 782 q 211 449 211 613 q 277 209 211 285 q 464 133 343 133 m 464 -32 q 135 93 250 -32 q 21 453 21 218 q 50 663 21 569 q 136 820 79 756 q 275 919 193 885 q 464 953 357 953 q 652 919 569 953 q 790 819 735 885 q 875 660 846 754 q 904 449 904 567 q 791 89 904 210 q 464 -32 678 -32 m 290 1075 l 479 1279 l 540 1228 l 342 1029 l 290 1075 m 508 1029 l 457 1075 l 654 1275 l 717 1224 l 508 1029 z "},"ő":{"ha":742,"x_min":21,"x_max":719,"o":"m 21 0 m 372 133 q 538 342 538 133 q 372 549 538 549 q 207 342 207 549 q 372 133 207 133 m 372 -18 q 224 8 289 -18 q 113 82 158 35 q 44 196 68 129 q 21 342 21 263 q 45 489 21 422 q 115 603 69 556 q 226 676 161 650 q 372 701 290 701 q 517 676 453 701 q 626 603 581 650 q 695 490 671 557 q 719 342 719 424 q 695 194 719 260 q 626 81 671 128 q 516 8 581 33 q 372 -18 451 -18 m 213 836 l 401 1040 l 463 989 l 264 790 l 213 836 m 431 790 l 379 836 l 576 1036 l 639 985 l 431 790 z "},"Œ":{"ha":1418,"x_min":21,"x_max":1418,"o":"m 717 0 l 717 33 q 607 -15 668 1 q 475 -32 546 -32 q 281 3 365 -32 q 138 106 196 39 q 51 268 81 172 q 21 485 21 364 q 53 674 21 588 q 143 822 85 760 q 283 918 201 883 q 465 953 365 953 q 601 933 538 953 q 717 876 664 913 l 717 922 l 1394 922 l 1394 761 l 904 761 l 904 564 l 1356 564 l 1356 401 l 904 401 l 904 164 l 1418 164 l 1418 0 l 717 0 m 479 133 q 574 156 531 133 q 649 221 618 179 q 697 319 679 263 q 714 444 714 376 q 458 782 714 782 q 356 759 401 782 q 278 694 310 736 q 228 596 246 653 q 211 472 211 539 q 231 340 211 401 q 285 232 250 278 q 370 160 321 186 q 479 133 419 133 z "},"œ":{"ha":1194,"x_min":21,"x_max":1175,"o":"m 704 294 q 749 171 708 217 q 857 125 790 125 q 935 145 901 125 q 979 201 969 165 l 1165 201 q 1054 39 1133 96 q 865 -18 975 -18 q 614 69 699 -18 q 372 -18 522 -18 q 224 8 289 -18 q 113 82 158 35 q 44 196 68 129 q 21 342 21 263 q 45 489 21 422 q 115 603 69 556 q 226 676 161 650 q 372 701 290 701 q 510 678 449 701 q 615 613 571 656 q 718 678 658 656 q 854 701 778 701 q 1094 600 1013 701 q 1175 294 1175 499 l 704 294 m 372 133 q 538 342 538 133 q 372 549 538 549 q 207 342 207 549 q 372 133 207 133 m 989 408 q 976 474 988 446 q 944 522 964 503 q 900 549 925 540 q 849 558 875 558 q 755 519 794 558 q 710 408 715 479 l 989 408 z "},"Ŕ":{"ha":796,"x_min":32,"x_max":783,"o":"m 32 0 m 219 763 l 219 517 l 461 517 q 571 551 539 517 q 603 639 603 586 q 572 728 603 693 q 468 763 540 763 l 219 763 m 569 0 l 569 238 q 539 333 569 304 q 425 361 508 361 l 219 361 l 219 0 l 32 0 l 32 922 l 500 922 q 616 902 564 922 q 706 847 668 882 q 763 762 743 811 q 783 656 783 713 q 748 523 783 581 q 646 442 713 465 q 733 382 707 422 q 758 261 758 342 l 758 0 l 569 0 m 306 1008 l 263 1085 l 550 1253 l 615 1139 l 306 1008 z "},"ŕ":{"ha":438,"x_min":36,"x_max":436,"o":"m 36 0 m 36 0 l 36 683 l 206 683 l 206 601 q 252 656 228 636 q 302 685 276 675 q 354 699 328 696 q 408 701 381 701 l 432 701 l 432 517 q 382 521 407 521 q 217 356 217 521 l 217 0 l 36 0 m 126 769 l 83 846 l 371 1014 l 436 900 l 126 769 z "},"Ŗ":{"ha":796,"x_min":32,"x_max":783,"o":"m 32 0 m 219 763 l 219 517 l 461 517 q 571 551 539 517 q 603 639 603 586 q 572 728 603 693 q 468 763 540 763 l 219 763 m 569 0 l 569 238 q 539 333 569 304 q 425 361 508 361 l 219 361 l 219 0 l 32 0 l 32 922 l 500 922 q 616 902 564 922 q 706 847 668 882 q 763 762 743 811 q 783 656 783 713 q 748 523 783 581 q 646 442 713 465 q 733 382 707 422 q 758 261 758 342 l 758 0 l 569 0 m 318 -264 q 407 -174 404 -257 l 318 -174 l 318 -60 l 478 -60 l 478 -135 q 470 -205 478 -172 q 444 -262 463 -237 q 395 -303 426 -287 q 318 -324 364 -319 l 318 -264 z "},"ŗ":{"ha":438,"x_min":36,"x_max":432,"o":"m 36 0 m 36 0 l 36 683 l 206 683 l 206 601 q 252 656 228 636 q 302 685 276 675 q 354 699 328 696 q 408 701 381 701 l 432 701 l 432 517 q 382 521 407 521 q 217 356 217 521 l 217 0 l 36 0 m 54 -264 q 143 -174 140 -257 l 54 -174 l 54 -60 l 214 -60 l 214 -135 q 206 -205 214 -172 q 181 -262 199 -237 q 131 -303 163 -287 q 54 -324 100 -319 l 54 -264 z "},"Ř":{"ha":796,"x_min":32,"x_max":783,"o":"m 32 0 m 219 763 l 219 517 l 461 517 q 571 551 539 517 q 603 639 603 586 q 572 728 603 693 q 468 763 540 763 l 219 763 m 569 0 l 569 238 q 539 333 569 304 q 425 361 508 361 l 219 361 l 219 0 l 32 0 l 32 922 l 500 922 q 616 902 564 922 q 706 847 668 882 q 763 762 743 811 q 783 656 783 713 q 748 523 783 581 q 646 442 713 465 q 733 382 707 422 q 758 261 758 342 l 758 0 l 569 0 m 310 1018 l 132 1204 l 196 1275 l 383 1111 l 571 1275 l 635 1204 l 457 1018 l 310 1018 z "},"ř":{"ha":438,"x_min":-31,"x_max":472,"o":"m 0 0 m 36 0 l 36 683 l 206 683 l 206 601 q 252 656 228 636 q 302 685 276 675 q 354 699 328 696 q 408 701 381 701 l 432 701 l 432 517 q 382 521 407 521 q 217 356 217 521 l 217 0 l 36 0 m 147 779 l -31 965 l 33 1036 l 221 872 l 408 1036 l 472 965 l 294 779 l 147 779 z "},"Ś":{"ha":775,"x_min":8,"x_max":767,"o":"m 8 0 m 554 650 q 503 756 547 721 q 369 790 458 790 q 206 678 206 790 q 240 610 206 638 q 349 565 274 583 q 503 526 438 544 q 622 485 568 508 q 680 453 653 472 q 726 407 707 435 q 756 340 744 379 q 767 246 767 301 q 739 128 767 179 q 664 41 711 76 q 553 -13 617 6 q 418 -32 489 -32 q 115 46 217 -32 q 8 276 14 124 l 194 276 q 252 165 196 206 q 393 124 308 124 q 532 157 485 124 q 579 247 579 190 q 574 288 579 269 q 552 322 568 307 q 508 349 536 338 q 436 371 481 361 q 253 416 331 393 q 126 473 176 439 q 53 556 76 507 q 29 679 29 604 q 50 786 29 736 q 114 873 71 836 q 220 931 157 910 q 369 953 283 953 q 519 931 453 953 q 634 870 586 910 q 708 774 682 831 q 738 650 735 718 l 554 650 m 296 1008 l 253 1085 l 540 1253 l 606 1139 l 296 1008 z "},"ś":{"ha":649,"x_min":13,"x_max":640,"o":"m 13 0 m 447 476 q 412 545 440 524 q 325 567 383 567 q 241 553 269 567 q 213 508 213 540 q 241 464 213 481 q 324 432 269 447 q 474 390 413 407 q 572 349 535 372 q 624 290 608 325 q 640 194 640 254 q 564 42 640 103 q 338 -18 488 -18 q 204 -1 264 -18 q 102 47 144 15 q 37 122 60 78 q 13 219 14 165 l 199 219 q 237 144 199 171 q 336 118 275 118 q 424 134 388 118 q 461 183 461 150 q 434 238 461 221 q 351 267 407 254 q 190 313 251 289 q 95 367 129 338 q 49 431 61 396 q 38 508 38 465 q 53 582 38 547 q 104 643 69 617 q 194 685 139 669 q 331 701 250 701 q 546 642 478 701 q 621 476 614 582 l 447 476 m 232 769 l 189 846 l 476 1014 l 542 900 l 232 769 z "},"Ş":{"ha":775,"x_min":8,"x_max":767,"o":"m 8 0 m 554 650 q 503 756 547 721 q 369 790 458 790 q 206 678 206 790 q 240 610 206 638 q 349 565 274 583 q 503 526 438 544 q 622 485 568 508 q 680 453 653 472 q 726 407 707 435 q 756 340 744 379 q 767 246 767 301 q 739 128 767 179 q 664 41 711 76 q 553 -13 617 6 q 418 -32 489 -32 q 115 46 217 -32 q 8 276 14 124 l 194 276 q 252 165 196 206 q 393 124 308 124 q 532 157 485 124 q 579 247 579 190 q 574 288 579 269 q 552 322 568 307 q 508 349 536 338 q 436 371 481 361 q 253 416 331 393 q 126 473 176 439 q 53 556 76 507 q 29 679 29 604 q 50 786 29 736 q 114 873 71 836 q 220 931 157 910 q 369 953 283 953 q 519 931 453 953 q 634 870 586 910 q 708 774 682 831 q 738 650 735 718 l 554 650 m 321 -264 q 410 -174 407 -257 l 321 -174 l 321 -60 l 481 -60 l 481 -135 q 473 -205 481 -172 q 447 -262 465 -237 q 398 -303 429 -287 q 321 -324 367 -319 l 321 -264 z "},"ş":{"ha":649,"x_min":13,"x_max":640,"o":"m 13 0 m 447 476 q 412 545 440 524 q 325 567 383 567 q 241 553 269 567 q 213 508 213 540 q 241 464 213 481 q 324 432 269 447 q 474 390 413 407 q 572 349 535 372 q 624 290 608 325 q 640 194 640 254 q 564 42 640 103 q 338 -18 488 -18 q 204 -1 264 -18 q 102 47 144 15 q 37 122 60 78 q 13 219 14 165 l 199 219 q 237 144 199 171 q 336 118 275 118 q 424 134 388 118 q 461 183 461 150 q 434 238 461 221 q 351 267 407 254 q 190 313 251 289 q 95 367 129 338 q 49 431 61 396 q 38 508 38 465 q 53 582 38 547 q 104 643 69 617 q 194 685 139 669 q 331 701 250 701 q 546 642 478 701 q 621 476 614 582 l 447 476 m 258 -264 q 347 -174 344 -257 l 258 -174 l 258 -60 l 418 -60 l 418 -135 q 410 -205 418 -172 q 385 -262 403 -237 q 335 -303 367 -287 q 258 -324 304 -319 l 258 -264 z "},"Š":{"ha":775,"x_min":8,"x_max":767,"o":"m 8 0 m 554 650 q 503 756 547 721 q 369 790 458 790 q 206 678 206 790 q 240 610 206 638 q 349 565 274 583 q 503 526 438 544 q 622 485 568 508 q 680 453 653 472 q 726 407 707 435 q 756 340 744 379 q 767 246 767 301 q 739 128 767 179 q 664 41 711 76 q 553 -13 617 6 q 418 -32 489 -32 q 115 46 217 -32 q 8 276 14 124 l 194 276 q 252 165 196 206 q 393 124 308 124 q 532 157 485 124 q 579 247 579 190 q 574 288 579 269 q 552 322 568 307 q 508 349 536 338 q 436 371 481 361 q 253 416 331 393 q 126 473 176 439 q 53 556 76 507 q 29 679 29 604 q 50 786 29 736 q 114 873 71 836 q 220 931 157 910 q 369 953 283 953 q 519 931 453 953 q 634 870 586 910 q 708 774 682 831 q 738 650 735 718 l 554 650 m 314 1018 l 136 1204 l 200 1275 l 388 1111 l 575 1275 l 639 1204 l 461 1018 l 314 1018 z "},"š":{"ha":649,"x_min":13,"x_max":640,"o":"m 13 0 m 447 476 q 412 545 440 524 q 325 567 383 567 q 241 553 269 567 q 213 508 213 540 q 241 464 213 481 q 324 432 269 447 q 474 390 413 407 q 572 349 535 372 q 624 290 608 325 q 640 194 640 254 q 564 42 640 103 q 338 -18 488 -18 q 204 -1 264 -18 q 102 47 144 15 q 37 122 60 78 q 13 219 14 165 l 199 219 q 237 144 199 171 q 336 118 275 118 q 424 134 388 118 q 461 183 461 150 q 434 238 461 221 q 351 267 407 254 q 190 313 251 289 q 95 367 129 338 q 49 431 61 396 q 38 508 38 465 q 53 582 38 547 q 104 643 69 617 q 194 685 139 669 q 331 701 250 701 q 546 642 478 701 q 621 476 614 582 l 447 476 m 250 779 l 72 965 l 136 1036 l 324 872 l 511 1036 l 575 965 l 397 779 l 250 779 z "},"Ţ":{"ha":763,"x_min":6,"x_max":756,"o":"m 6 0 m 283 0 l 283 761 l 6 761 l 6 922 l 756 922 l 756 761 l 476 761 l 476 0 l 283 0 m 301 -264 q 390 -174 388 -257 l 301 -174 l 301 -60 l 461 -60 l 461 -135 q 453 -205 461 -172 q 428 -262 446 -237 q 378 -303 410 -287 q 301 -324 347 -319 l 301 -264 z "},"ţ":{"ha":621,"x_min":36,"x_max":592,"o":"m 36 0 m 424 450 l 592 450 l 592 256 q 576 152 592 201 q 526 65 560 103 q 440 4 492 26 q 315 -18 388 -18 q 188 4 240 -18 q 101 64 135 26 q 51 151 67 101 q 36 257 36 201 l 36 868 l 214 868 l 214 683 l 592 683 l 592 556 l 214 556 l 214 275 q 238 174 214 210 q 318 139 263 139 q 398 174 372 139 q 424 272 424 208 l 424 450 m 231 -264 q 319 -174 317 -257 l 231 -174 l 231 -60 l 390 -60 l 390 -135 q 383 -205 390 -172 q 357 -262 375 -237 q 308 -303 339 -287 q 231 -324 276 -319 l 231 -264 z "},"Ť":{"ha":763,"x_min":6,"x_max":756,"o":"m 6 0 m 283 0 l 283 761 l 6 761 l 6 922 l 756 922 l 756 761 l 476 761 l 476 0 l 283 0 m 307 1018 l 129 1204 l 193 1275 l 381 1111 l 568 1275 l 632 1204 l 454 1018 l 307 1018 z "},"ť":{"ha":813,"x_min":36,"x_max":813,"o":"m 36 0 m 424 450 l 592 450 l 592 256 q 576 152 592 201 q 526 65 560 103 q 440 4 492 26 q 315 -18 388 -18 q 188 4 240 -18 q 101 64 135 26 q 51 151 67 101 q 36 257 36 201 l 36 868 l 214 868 l 214 683 l 592 683 l 592 556 l 214 556 l 214 275 q 238 174 214 210 q 318 139 263 139 q 398 174 372 139 q 424 272 424 208 l 424 450 m 621 625 q 700 672 674 639 q 728 772 726 706 l 621 772 l 621 960 l 813 960 l 813 818 q 803 715 813 760 q 771 640 793 671 q 712 588 749 608 q 621 556 675 567 l 621 625 z "},"Ŧ":{"ha":763,"x_min":6,"x_max":756,"o":"m 283 0 l 283 344 l 153 344 l 153 485 l 283 485 l 283 761 l 6 761 l 6 922 l 756 922 l 756 761 l 476 761 l 476 485 l 608 485 l 608 344 l 476 344 l 476 0 l 283 0 z "},"ŧ":{"ha":621,"x_min":36,"x_max":592,"o":"m 214 363 l 214 275 q 238 174 214 210 q 318 139 263 139 q 398 174 372 139 q 424 272 424 208 l 424 297 l 592 297 l 592 256 q 576 152 592 201 q 526 65 560 103 q 440 4 492 26 q 315 -18 388 -18 q 188 4 240 -18 q 101 64 135 26 q 51 151 67 101 q 36 257 36 201 l 36 868 l 214 868 l 214 683 l 592 683 l 592 556 l 214 556 l 214 483 l 582 483 l 582 363 l 214 363 z "},"Ũ":{"ha":807,"x_min":32,"x_max":775,"o":"m 32 0 m 578 922 l 775 922 l 775 307 q 676 53 775 139 q 396 -32 578 -32 q 130 49 228 -32 q 32 296 32 129 l 32 922 l 228 922 l 228 314 q 271 178 228 228 q 393 128 314 128 q 578 307 578 128 l 578 922 m 643 1175 q 578 1069 619 1100 q 492 1039 536 1039 q 442 1049 465 1039 q 399 1070 419 1058 q 357 1092 378 1082 q 314 1101 336 1101 q 289 1090 306 1101 q 260 1040 272 1079 l 164 1092 q 221 1187 186 1160 q 299 1214 256 1214 q 356 1203 331 1214 q 403 1181 381 1193 q 444 1158 425 1168 q 483 1147 464 1147 q 514 1162 496 1147 q 539 1213 532 1176 l 643 1175 z "},"ũ":{"ha":688,"x_min":36,"x_max":651,"o":"m 36 0 m 481 0 l 481 96 q 268 -18 411 -18 q 174 0 217 -18 q 101 51 132 18 q 53 131 71 85 q 36 233 36 176 l 36 683 l 217 683 l 217 261 q 332 133 217 133 q 437 177 401 133 q 472 289 472 221 l 472 683 l 651 683 l 651 0 l 481 0 m 583 936 q 518 831 560 861 q 432 800 476 800 q 383 810 406 800 q 339 831 360 819 q 297 853 318 843 q 254 863 276 863 q 229 851 246 863 q 200 801 213 840 l 104 853 q 161 948 126 921 q 239 975 196 975 q 296 965 271 975 q 343 942 321 954 q 385 919 365 929 q 424 908 404 908 q 454 923 436 908 q 479 974 472 938 l 583 936 z "},"Ū":{"ha":807,"x_min":32,"x_max":775,"o":"m 32 0 m 578 922 l 775 922 l 775 307 q 676 53 775 139 q 396 -32 578 -32 q 130 49 228 -32 q 32 296 32 129 l 32 922 l 228 922 l 228 314 q 271 178 228 228 q 393 128 314 128 q 578 307 578 128 l 578 922 m 139 1075 l 139 1201 l 668 1201 l 668 1075 l 139 1075 z "},"ū":{"ha":688,"x_min":36,"x_max":651,"o":"m 36 0 m 481 0 l 481 96 q 268 -18 411 -18 q 174 0 217 -18 q 101 51 132 18 q 53 131 71 85 q 36 233 36 176 l 36 683 l 217 683 l 217 261 q 332 133 217 133 q 437 177 401 133 q 472 289 472 221 l 472 683 l 651 683 l 651 0 l 481 0 m 79 836 l 79 963 l 608 963 l 608 836 l 79 836 z "},"Ŭ":{"ha":807,"x_min":32,"x_max":775,"o":"m 32 0 m 578 922 l 775 922 l 775 307 q 676 53 775 139 q 396 -32 578 -32 q 130 49 228 -32 q 32 296 32 129 l 32 922 l 228 922 l 228 314 q 271 178 228 228 q 393 128 314 128 q 578 307 578 128 l 578 922 m 628 1275 q 609 1174 628 1217 q 559 1102 590 1131 q 487 1059 528 1074 q 403 1044 446 1044 q 319 1059 360 1044 q 247 1102 278 1074 q 197 1174 215 1131 q 178 1275 178 1217 l 292 1275 q 323 1185 294 1217 q 403 1154 351 1154 q 483 1185 454 1154 q 514 1275 511 1217 l 628 1275 z "},"ŭ":{"ha":688,"x_min":36,"x_max":651,"o":"m 36 0 m 481 0 l 481 96 q 268 -18 411 -18 q 174 0 217 -18 q 101 51 132 18 q 53 131 71 85 q 36 233 36 176 l 36 683 l 217 683 l 217 261 q 332 133 217 133 q 437 177 401 133 q 472 289 472 221 l 472 683 l 651 683 l 651 0 l 481 0 m 582 1036 q 563 935 582 978 q 513 863 544 892 q 441 820 482 835 q 357 806 400 806 q 273 820 314 806 q 201 863 232 835 q 151 935 169 892 q 132 1036 132 978 l 246 1036 q 277 947 249 978 q 357 915 306 915 q 437 947 408 915 q 468 1036 465 978 l 582 1036 z "},"Ů":{"ha":807,"x_min":32,"x_max":775,"o":"m 32 0 m 578 922 l 775 922 l 775 307 q 676 53 775 139 q 396 -32 578 -32 q 130 49 228 -32 q 32 296 32 129 l 32 922 l 228 922 l 228 314 q 271 178 228 228 q 393 128 314 128 q 578 307 578 128 l 578 922 m 547 1142 q 514 1042 547 1076 q 403 1008 481 1008 q 258 1142 258 1008 q 294 1240 258 1206 q 403 1275 329 1275 q 514 1240 481 1275 q 547 1142 547 1206 m 475 1142 q 403 1213 475 1213 q 333 1142 333 1213 q 403 1074 333 1074 q 475 1142 475 1074 z "},"ů":{"ha":688,"x_min":36,"x_max":651,"o":"m 36 0 m 481 0 l 481 96 q 268 -18 411 -18 q 174 0 217 -18 q 101 51 132 18 q 53 131 71 85 q 36 233 36 176 l 36 683 l 217 683 l 217 261 q 332 133 217 133 q 437 177 401 133 q 472 289 472 221 l 472 683 l 651 683 l 651 0 l 481 0 m 501 903 q 468 803 501 838 q 357 769 435 769 q 213 903 213 769 q 248 1001 213 967 q 357 1036 283 1036 q 468 1001 435 1036 q 501 903 501 967 m 429 903 q 357 974 429 974 q 288 903 288 974 q 357 835 288 835 q 429 903 429 835 z "},"Ű":{"ha":807,"x_min":32,"x_max":775,"o":"m 32 0 m 578 922 l 775 922 l 775 307 q 676 53 775 139 q 396 -32 578 -32 q 130 49 228 -32 q 32 296 32 129 l 32 922 l 228 922 l 228 314 q 271 178 228 228 q 393 128 314 128 q 578 307 578 128 l 578 922 m 232 1075 l 421 1279 l 482 1228 l 283 1029 l 232 1075 m 450 1029 l 399 1075 l 596 1275 l 658 1224 l 450 1029 z "},"ű":{"ha":688,"x_min":36,"x_max":651,"o":"m 36 0 m 481 0 l 481 96 q 268 -18 411 -18 q 174 0 217 -18 q 101 51 132 18 q 53 131 71 85 q 36 233 36 176 l 36 683 l 217 683 l 217 261 q 332 133 217 133 q 437 177 401 133 q 472 289 472 221 l 472 683 l 651 683 l 651 0 l 481 0 m 186 836 l 375 1040 l 436 989 l 238 790 l 186 836 m 404 790 l 353 836 l 550 1036 l 613 985 l 404 790 z "},"Ų":{"ha":807,"x_min":32,"x_max":775,"o":"m 586 -287 q 532 -313 567 -303 q 440 -324 497 -324 q 326 -292 365 -324 q 288 -206 288 -260 q 329 -107 288 -151 q 444 -29 371 -62 q 421 -31 433 -31 q 396 -32 408 -32 q 130 49 228 -32 q 32 296 32 129 l 32 922 l 228 922 l 228 314 q 271 178 228 228 q 393 128 314 128 q 578 307 578 128 l 578 922 l 775 922 l 775 307 q 726 111 775 188 q 582 -1 676 35 q 500 -42 531 -25 q 454 -74 469 -60 q 434 -101 439 -87 q 429 -128 429 -114 q 453 -162 429 -151 q 518 -174 478 -174 q 556 -170 538 -174 q 586 -162 574 -167 l 586 -287 z "},"ų":{"ha":688,"x_min":36,"x_max":651,"o":"m 651 -287 q 597 -313 632 -303 q 506 -324 563 -324 q 392 -292 431 -324 q 353 -206 353 -260 q 418 -85 353 -137 q 592 0 483 -33 l 481 0 l 481 96 q 268 -18 411 -18 q 174 0 217 -18 q 101 51 132 18 q 53 131 71 85 q 36 233 36 176 l 36 683 l 217 683 l 217 261 q 332 133 217 133 q 437 177 401 133 q 472 289 472 221 l 472 683 l 651 683 l 651 0 q 567 -41 599 -24 q 520 -73 536 -58 q 499 -101 504 -87 q 494 -128 494 -114 q 519 -162 494 -151 q 583 -174 543 -174 q 621 -170 603 -174 q 651 -162 639 -167 l 651 -287 z "},"Ŵ":{"ha":1183,"x_min":4,"x_max":1179,"o":"m 4 0 m 735 0 l 592 600 l 446 0 l 265 0 l 4 922 l 210 922 l 361 325 l 489 922 l 692 922 l 832 325 l 982 922 l 1179 922 l 921 0 l 735 0 m 592 1182 l 404 1018 l 340 1089 l 518 1275 l 665 1275 l 843 1089 l 779 1018 l 592 1182 z "},"ŵ":{"ha":986,"x_min":4,"x_max":981,"o":"m 4 0 m 600 0 l 492 397 l 383 0 l 199 0 l 4 683 l 194 683 l 306 244 l 400 683 l 583 683 l 690 244 l 794 683 l 981 683 l 785 0 l 600 0 m 493 943 l 306 779 l 242 850 l 419 1036 l 567 1036 l 744 850 l 681 779 l 493 943 z "},"Ŷ":{"ha":829,"x_min":4,"x_max":825,"o":"m 4 0 m 324 0 l 324 349 l 4 922 l 229 922 l 424 547 l 603 922 l 825 922 l 517 346 l 517 0 l 324 0 m 425 1182 l 238 1018 l 174 1089 l 351 1275 l 499 1275 l 676 1089 l 613 1018 l 425 1182 z "},"ŷ":{"ha":688,"x_min":36,"x_max":651,"o":"m 36 0 m 471 90 q 401 19 451 44 q 286 -7 350 -7 q 186 10 232 -7 q 107 60 140 28 q 55 138 74 93 q 36 240 36 183 l 36 683 l 217 683 l 217 267 q 332 139 217 139 q 433 175 394 139 q 471 267 471 211 l 471 683 l 651 683 l 651 -18 q 627 -147 651 -90 q 560 -243 603 -204 q 460 -303 518 -282 q 338 -324 403 -324 q 111 -247 186 -324 q 36 -37 36 -171 l 204 -37 q 240 -133 204 -99 q 346 -168 275 -168 q 393 -158 371 -168 q 433 -128 415 -147 q 460 -82 450 -110 q 471 -21 471 -54 l 471 90 m 343 943 l 156 779 l 92 850 l 269 1036 l 417 1036 l 594 850 l 531 779 l 343 943 z "},"Ÿ":{"ha":829,"x_min":4,"x_max":825,"o":"m 4 0 m 324 0 l 324 349 l 4 922 l 229 922 l 424 547 l 603 922 l 825 922 l 517 346 l 517 0 l 324 0 m 197 1043 l 197 1215 l 378 1215 l 378 1043 l 197 1043 m 475 1043 l 475 1215 l 656 1215 l 656 1043 l 475 1043 z "},"Ź":{"ha":732,"x_min":6,"x_max":726,"o":"m 6 0 m 6 0 l 6 164 l 485 761 l 19 761 l 19 922 l 726 922 l 726 771 l 244 164 l 726 164 l 726 0 l 6 0 m 274 1008 l 231 1085 l 518 1253 l 583 1139 l 274 1008 z "},"ź":{"ha":611,"x_min":13,"x_max":601,"o":"m 13 0 m 13 0 l 13 139 l 361 540 l 36 540 l 36 683 l 592 683 l 592 538 l 243 147 l 601 147 l 601 0 l 13 0 m 214 769 l 171 846 l 458 1014 l 524 900 l 214 769 z "},"Ż":{"ha":732,"x_min":6,"x_max":726,"o":"m 6 0 m 6 0 l 6 164 l 485 761 l 19 761 l 19 922 l 726 922 l 726 771 l 244 164 l 726 164 l 726 0 l 6 0 m 275 1043 l 275 1215 l 456 1215 l 456 1043 l 275 1043 z "},"ż":{"ha":611,"x_min":13,"x_max":601,"o":"m 13 0 m 13 0 l 13 139 l 361 540 l 36 540 l 36 683 l 592 683 l 592 538 l 243 147 l 601 147 l 601 0 l 13 0 m 215 804 l 215 976 l 396 976 l 396 804 l 215 804 z "},"Ž":{"ha":732,"x_min":6,"x_max":726,"o":"m 6 0 m 6 0 l 6 164 l 485 761 l 19 761 l 19 922 l 726 922 l 726 771 l 244 164 l 726 164 l 726 0 l 6 0 m 292 1018 l 114 1204 l 178 1275 l 365 1111 l 553 1275 l 617 1204 l 439 1018 l 292 1018 z "},"ž":{"ha":611,"x_min":13,"x_max":601,"o":"m 13 0 m 13 0 l 13 139 l 361 540 l 36 540 l 36 683 l 592 683 l 592 538 l 243 147 l 601 147 l 601 0 l 13 0 m 233 779 l 56 965 l 119 1036 l 307 872 l 494 1036 l 558 965 l 381 779 l 233 779 z "},"ƒ":{"ha":739,"x_min":31,"x_max":708,"o":"m 31 -240 l 31 -85 l 131 -85 q 190 -58 167 -85 q 221 26 213 -32 l 290 506 l 193 506 l 193 646 l 310 646 l 315 679 q 354 799 325 750 q 425 877 383 847 q 519 920 467 907 q 629 933 572 933 l 708 933 l 708 778 l 607 778 q 548 751 571 778 q 517 667 525 725 l 514 646 l 635 646 l 635 506 l 493 506 l 422 14 q 383 -106 411 -57 q 313 -184 354 -154 q 218 -227 271 -214 q 108 -240 165 -240 l 31 -240 z "},"Ơ":{"ha":1063,"x_min":21,"x_max":1074,"o":"m 1044 975 q 1066 930 1058 960 q 1074 867 1074 900 q 1038 753 1074 788 q 946 718 1003 718 q 843 739 897 718 q 904 449 904 621 q 791 89 904 210 q 464 -32 678 -32 q 135 93 250 -32 q 21 453 21 218 q 50 663 21 569 q 136 820 79 756 q 275 919 193 885 q 464 953 357 953 q 750 858 639 953 q 819 820 783 831 q 893 810 856 810 q 947 837 933 810 q 960 897 960 864 q 956 942 960 921 q 947 975 953 963 l 1044 975 m 464 133 q 561 152 515 133 q 641 209 607 171 q 694 307 675 247 q 714 449 714 367 q 650 697 714 613 q 464 782 586 782 q 276 697 342 782 q 211 449 211 613 q 277 209 211 285 q 464 133 343 133 z "},"ơ":{"ha":899,"x_min":21,"x_max":910,"o":"m 881 754 q 902 709 894 739 q 910 646 910 679 q 904 592 910 618 q 885 544 899 565 q 851 510 872 524 q 799 497 829 497 q 683 517 731 497 q 719 342 719 440 q 695 194 719 260 q 626 81 671 128 q 516 8 581 33 q 372 -18 451 -18 q 224 8 289 -18 q 113 82 158 35 q 44 196 68 129 q 21 342 21 263 q 45 489 21 422 q 115 603 69 556 q 226 676 161 650 q 372 701 290 701 q 586 638 499 701 q 662 598 628 607 q 729 589 696 589 q 783 616 769 589 q 796 676 796 643 q 792 721 796 700 q 783 754 789 742 l 881 754 m 372 133 q 538 342 538 133 q 372 549 538 549 q 207 342 207 549 q 372 133 207 133 z "},"Ư":{"ha":1032,"x_min":32,"x_max":1032,"o":"m 578 922 l 775 922 l 775 821 q 813 812 794 814 q 851 810 832 810 q 905 837 892 810 q 918 897 918 864 q 915 942 918 921 q 906 975 911 963 l 1003 975 q 1024 930 1017 960 q 1032 867 1032 900 q 995 752 1032 788 q 901 717 958 717 q 775 753 840 717 l 775 307 q 676 53 775 139 q 396 -32 578 -32 q 130 49 228 -32 q 32 296 32 129 l 32 922 l 228 922 l 228 314 q 271 178 228 228 q 393 128 314 128 q 578 307 578 128 l 578 922 z "},"ư":{"ha":879,"x_min":36,"x_max":890,"o":"m 481 0 l 481 96 q 268 -18 411 -18 q 174 0 217 -18 q 101 51 132 18 q 53 131 71 85 q 36 233 36 176 l 36 683 l 217 683 l 217 261 q 332 133 217 133 q 437 177 401 133 q 472 289 472 221 l 472 683 l 651 683 l 651 594 q 710 589 678 589 q 763 616 750 589 q 776 676 776 643 q 773 721 776 700 q 764 754 769 742 l 861 754 q 883 709 875 739 q 890 646 890 679 q 854 532 890 567 q 761 497 818 497 q 651 522 710 497 l 651 0 l 481 0 z "},"Ș":{"ha":775,"x_min":8,"x_max":767,"o":"m 8 0 m 554 650 q 503 756 547 721 q 369 790 458 790 q 206 678 206 790 q 240 610 206 638 q 349 565 274 583 q 503 526 438 544 q 622 485 568 508 q 680 453 653 472 q 726 407 707 435 q 756 340 744 379 q 767 246 767 301 q 739 128 767 179 q 664 41 711 76 q 553 -13 617 6 q 418 -32 489 -32 q 115 46 217 -32 q 8 276 14 124 l 194 276 q 252 165 196 206 q 393 124 308 124 q 532 157 485 124 q 579 247 579 190 q 574 288 579 269 q 552 322 568 307 q 508 349 536 338 q 436 371 481 361 q 253 416 331 393 q 126 473 176 439 q 53 556 76 507 q 29 679 29 604 q 50 786 29 736 q 114 873 71 836 q 220 931 157 910 q 369 953 283 953 q 519 931 453 953 q 634 870 586 910 q 708 774 682 831 q 738 650 735 718 l 554 650 m 307 -264 q 396 -174 393 -257 l 307 -174 l 307 -60 l 467 -60 l 467 -135 q 459 -205 467 -172 q 433 -262 451 -237 q 384 -303 415 -287 q 307 -324 353 -319 l 307 -264 z "},"ș":{"ha":649,"x_min":13,"x_max":640,"o":"m 13 0 m 447 476 q 412 545 440 524 q 325 567 383 567 q 241 553 269 567 q 213 508 213 540 q 241 464 213 481 q 324 432 269 447 q 474 390 413 407 q 572 349 535 372 q 624 290 608 325 q 640 194 640 254 q 564 42 640 103 q 338 -18 488 -18 q 204 -1 264 -18 q 102 47 144 15 q 37 122 60 78 q 13 219 14 165 l 199 219 q 237 144 199 171 q 336 118 275 118 q 424 134 388 118 q 461 183 461 150 q 434 238 461 221 q 351 267 407 254 q 190 313 251 289 q 95 367 129 338 q 49 431 61 396 q 38 508 38 465 q 53 582 38 547 q 104 643 69 617 q 194 685 139 669 q 331 701 250 701 q 546 642 478 701 q 621 476 614 582 l 447 476 m 256 -264 q 344 -174 342 -257 l 256 -174 l 256 -60 l 415 -60 l 415 -135 q 408 -205 415 -172 q 382 -262 400 -237 q 333 -303 364 -287 q 256 -324 301 -319 l 256 -264 z "},"Ț":{"ha":763,"x_min":6,"x_max":756,"o":"m 6 0 m 283 0 l 283 761 l 6 761 l 6 922 l 756 922 l 756 761 l 476 761 l 476 0 l 283 0 m 301 -264 q 390 -174 388 -257 l 301 -174 l 301 -60 l 461 -60 l 461 -135 q 453 -205 461 -172 q 428 -262 446 -237 q 378 -303 410 -287 q 301 -324 347 -319 l 301 -264 z "},"ț":{"ha":621,"x_min":36,"x_max":592,"o":"m 36 0 m 424 450 l 592 450 l 592 256 q 576 152 592 201 q 526 65 560 103 q 440 4 492 26 q 315 -18 388 -18 q 188 4 240 -18 q 101 64 135 26 q 51 151 67 101 q 36 257 36 201 l 36 868 l 214 868 l 214 683 l 592 683 l 592 556 l 214 556 l 214 275 q 238 174 214 210 q 318 139 263 139 q 398 174 372 139 q 424 272 424 208 l 424 450 m 231 -264 q 319 -174 317 -257 l 231 -174 l 231 -60 l 390 -60 l 390 -135 q 383 -205 390 -172 q 357 -262 375 -237 q 308 -303 339 -287 q 231 -324 276 -319 l 231 -264 z "},"ˆ":{"ha":642,"x_min":69,"x_max":572,"o":"m 321 943 l 133 779 l 69 850 l 247 1036 l 394 1036 l 572 850 l 508 779 l 321 943 z "},"ˇ":{"ha":642,"x_min":69,"x_max":572,"o":"m 247 779 l 69 965 l 133 1036 l 321 872 l 508 1036 l 572 965 l 394 779 l 247 779 z "},"ˉ":{"ha":668,"x_min":69,"x_max":599,"o":"m 69 836 m 69 836 l 69 963 l 599 963 l 599 836 l 69 836 z "},"˘":{"ha":589,"x_min":69,"x_max":519,"o":"m 519 1036 q 501 935 519 978 q 451 863 482 892 q 378 820 419 835 q 294 806 338 806 q 210 820 251 806 q 138 863 169 835 q 88 935 107 892 q 69 1036 69 978 l 183 1036 q 215 947 186 978 q 294 915 243 915 q 374 947 346 915 q 406 1036 403 978 l 519 1036 z "},"˙":{"ha":319,"x_min":69,"x_max":250,"o":"m 69 804 l 69 976 l 250 976 l 250 804 l 69 804 z "},"˚":{"ha":428,"x_min":69,"x_max":358,"o":"m 358 903 q 325 803 358 838 q 214 769 292 769 q 69 903 69 769 q 105 1001 69 967 q 214 1036 140 1036 q 325 1001 292 1036 q 358 903 358 967 m 286 903 q 214 974 286 974 q 144 903 144 974 q 214 835 144 835 q 286 903 286 835 z "},"˛":{"ha":438,"x_min":69,"x_max":368,"o":"m 368 -287 q 314 -313 349 -303 q 222 -324 279 -324 q 108 -292 147 -324 q 69 -206 69 -260 q 135 -85 69 -137 q 308 0 200 -33 l 368 0 q 284 -41 315 -24 q 237 -73 253 -58 q 216 -101 221 -87 q 211 -128 211 -114 q 235 -162 211 -151 q 300 -174 260 -174 q 338 -170 319 -174 q 368 -162 356 -167 l 368 -287 z "},"˜":{"ha":618,"x_min":69,"x_max":549,"o":"m 549 936 q 483 831 525 861 q 397 800 442 800 q 348 810 371 800 q 304 831 325 819 q 263 853 283 843 q 219 863 242 863 q 194 851 211 863 q 165 801 178 840 l 69 853 q 126 948 92 921 q 204 975 161 975 q 261 965 236 975 q 308 942 286 954 q 350 919 331 929 q 389 908 369 908 q 419 923 401 908 q 444 974 438 938 l 549 936 z "},"˝":{"ha":565,"x_min":69,"x_max":496,"o":"m 69 836 l 258 1040 l 319 989 l 121 790 l 69 836 m 288 790 l 236 836 l 433 1036 l 496 985 l 288 790 z "},"̃":{"ha":517,"x_min":69,"x_max":447,"o":"m 438 1017 q 394 949 425 967 q 329 932 363 932 q 293 936 313 932 q 255 946 274 940 q 219 956 236 951 q 190 960 203 960 q 151 915 168 960 l 83 943 q 122 1010 96 990 q 181 1031 149 1031 q 225 1026 206 1031 q 262 1015 244 1021 q 295 1003 279 1008 q 328 999 311 999 q 353 1006 343 999 q 367 1036 363 1014 l 438 1017 m 400 769 l 258 867 l 118 769 l 69 811 l 203 922 l 314 922 l 447 811 l 400 769 z "},"̉":{"ha":339,"x_min":69,"x_max":269,"o":"m 118 807 q 125 849 118 831 q 153 881 132 868 q 176 897 168 889 q 185 922 185 906 q 151 946 185 946 q 126 942 140 946 q 94 925 113 938 l 69 1001 q 119 1028 90 1019 q 167 1036 147 1036 q 242 1013 215 1036 q 269 951 269 990 q 257 905 269 922 q 228 874 244 888 q 200 847 213 861 q 188 807 188 832 l 118 807 z "},"̣":{"ha":319,"x_min":69,"x_max":250,"o":"m 69 -286 l 69 -114 l 250 -114 l 250 -286 l 69 -286 z "},";":{"ha":214,"x_min":14,"x_max":206,"o":"m 14 0 m 14 -147 q 93 -100 67 -133 q 121 0 119 -67 l 14 0 l 14 188 l 206 188 l 206 46 q 196 -57 206 -12 q 164 -133 186 -101 q 105 -185 142 -164 q 14 -217 68 -206 l 14 -147 m 14 471 l 14 657 l 206 657 l 206 471 l 14 471 z "},"Δ":{"ha":886,"x_min":4,"x_max":882,"o":"m 4 0 l 333 922 l 557 922 l 882 0 l 4 0 m 260 158 l 621 158 l 443 715 l 442 715 l 260 158 z "},"Ω":{"ha":897,"x_min":17,"x_max":881,"o":"m 532 0 l 532 139 q 635 300 599 203 q 672 546 672 397 q 615 738 672 676 q 449 799 558 799 q 283 738 339 799 q 226 546 226 676 q 238 411 226 472 q 267 300 249 350 q 311 210 286 250 q 365 139 336 169 l 365 0 l 33 0 l 33 153 l 171 153 q 111 215 139 176 q 63 306 83 254 q 29 418 42 357 q 17 547 17 479 q 42 717 17 642 q 122 844 68 792 q 256 925 175 897 q 449 953 338 953 q 776 844 671 953 q 881 547 881 736 q 868 418 881 479 q 835 306 856 357 q 785 215 814 254 q 726 153 757 176 l 864 153 l 864 0 l 532 0 z "},"π":{"ha":782,"x_min":18,"x_max":764,"o":"m 488 0 l 488 517 l 290 517 l 290 0 l 111 0 l 111 517 l 18 517 l 18 683 l 764 683 l 764 517 l 667 517 l 667 0 l 488 0 z "},"Ẁ":{"ha":1183,"x_min":4,"x_max":1179,"o":"m 4 0 m 735 0 l 592 600 l 446 0 l 265 0 l 4 922 l 210 922 l 361 325 l 489 922 l 692 922 l 832 325 l 982 922 l 1179 922 l 921 0 l 735 0 m 374 1139 l 439 1253 l 726 1085 l 683 1008 l 374 1139 z "},"ẁ":{"ha":986,"x_min":4,"x_max":981,"o":"m 4 0 m 600 0 l 492 397 l 383 0 l 199 0 l 4 683 l 194 683 l 306 244 l 400 683 l 583 683 l 690 244 l 794 683 l 981 683 l 785 0 l 600 0 m 275 900 l 340 1014 l 628 846 l 585 769 l 275 900 z "},"Ẃ":{"ha":1183,"x_min":4,"x_max":1179,"o":"m 4 0 m 735 0 l 592 600 l 446 0 l 265 0 l 4 922 l 210 922 l 361 325 l 489 922 l 692 922 l 832 325 l 982 922 l 1179 922 l 921 0 l 735 0 m 500 1008 l 457 1085 l 744 1253 l 810 1139 l 500 1008 z "},"ẃ":{"ha":986,"x_min":4,"x_max":981,"o":"m 4 0 m 600 0 l 492 397 l 383 0 l 199 0 l 4 683 l 194 683 l 306 244 l 400 683 l 583 683 l 690 244 l 794 683 l 981 683 l 785 0 l 600 0 m 401 769 l 358 846 l 646 1014 l 711 900 l 401 769 z "},"Ẅ":{"ha":1183,"x_min":4,"x_max":1179,"o":"m 4 0 m 735 0 l 592 600 l 446 0 l 265 0 l 4 922 l 210 922 l 361 325 l 489 922 l 692 922 l 832 325 l 982 922 l 1179 922 l 921 0 l 735 0 m 363 1043 l 363 1215 l 543 1215 l 543 1043 l 363 1043 m 640 1043 l 640 1215 l 821 1215 l 821 1043 l 640 1043 z "},"ẅ":{"ha":986,"x_min":4,"x_max":981,"o":"m 4 0 m 600 0 l 492 397 l 383 0 l 199 0 l 4 683 l 194 683 l 306 244 l 400 683 l 583 683 l 690 244 l 794 683 l 981 683 l 785 0 l 600 0 m 264 804 l 264 976 l 444 976 l 444 804 l 264 804 m 542 804 l 542 976 l 722 976 l 722 804 l 542 804 z "},"Ạ":{"ha":886,"x_min":4,"x_max":882,"o":"m 4 0 m 443 715 l 442 715 l 324 349 l 558 349 l 443 715 m 672 0 l 614 190 l 274 190 l 208 0 l 4 0 l 333 922 l 557 922 l 882 0 l 672 0 m 353 -286 l 353 -114 l 533 -114 l 533 -286 l 353 -286 z "},"ạ":{"ha":668,"x_min":18,"x_max":632,"o":"m 18 0 m 451 335 q 411 313 438 321 q 335 294 385 304 q 228 256 257 279 q 199 188 199 232 q 286 111 199 111 q 351 123 321 111 q 402 155 381 135 q 437 202 424 175 q 450 260 450 229 l 451 335 m 464 0 q 453 61 456 26 q 368 3 421 25 q 246 -18 315 -18 q 73 34 128 -18 q 18 169 18 86 q 42 287 18 243 q 107 356 65 331 q 206 392 149 381 q 332 414 264 404 q 424 440 400 424 q 447 492 447 456 q 416 544 447 525 q 332 563 385 563 q 242 535 269 563 q 208 461 215 507 l 40 461 q 58 558 42 514 q 109 635 74 603 q 201 684 144 667 q 340 701 258 701 q 477 683 421 701 q 567 631 533 665 q 617 547 601 597 q 632 432 632 496 l 632 0 l 464 0 m 236 -286 l 236 -114 l 417 -114 l 417 -286 l 236 -286 z "},"Ả":{"ha":886,"x_min":4,"x_max":882,"o":"m 4 0 m 443 715 l 442 715 l 324 349 l 558 349 l 443 715 m 672 0 l 614 190 l 274 190 l 208 0 l 4 0 l 333 922 l 557 922 l 882 0 l 672 0 m 406 1046 q 413 1088 406 1069 q 440 1119 419 1107 q 464 1136 456 1128 q 472 1161 472 1144 q 439 1185 472 1185 q 414 1181 428 1185 q 382 1164 400 1176 l 357 1240 q 406 1267 378 1258 q 454 1275 435 1275 q 530 1252 503 1275 q 557 1190 557 1229 q 544 1144 557 1161 q 516 1113 532 1126 q 488 1085 500 1100 q 475 1046 475 1071 l 406 1046 z "},"ả":{"ha":668,"x_min":18,"x_max":632,"o":"m 18 0 m 451 335 q 411 313 438 321 q 335 294 385 304 q 228 256 257 279 q 199 188 199 232 q 286 111 199 111 q 351 123 321 111 q 402 155 381 135 q 437 202 424 175 q 450 260 450 229 l 451 335 m 464 0 q 453 61 456 26 q 368 3 421 25 q 246 -18 315 -18 q 73 34 128 -18 q 18 169 18 86 q 42 287 18 243 q 107 356 65 331 q 206 392 149 381 q 332 414 264 404 q 424 440 400 424 q 447 492 447 456 q 416 544 447 525 q 332 563 385 563 q 242 535 269 563 q 208 461 215 507 l 40 461 q 58 558 42 514 q 109 635 74 603 q 201 684 144 667 q 340 701 258 701 q 477 683 421 701 q 567 631 533 665 q 617 547 601 597 q 632 432 632 496 l 632 0 l 464 0 m 296 807 q 303 849 296 831 q 331 881 310 868 q 354 897 346 889 q 363 922 363 906 q 329 946 363 946 q 304 942 318 946 q 272 925 290 938 l 247 1001 q 297 1028 268 1019 q 344 1036 325 1036 q 420 1013 393 1036 q 447 951 447 990 q 435 905 447 922 q 406 874 422 888 q 378 847 390 861 q 365 807 365 832 l 296 807 z "},"Ấ":{"ha":886,"x_min":4,"x_max":993,"o":"m 4 0 m 443 715 l 442 715 l 324 349 l 558 349 l 443 715 m 672 0 l 614 190 l 274 190 l 208 0 l 4 0 l 333 922 l 557 922 l 882 0 l 672 0 m 446 1172 l 285 1032 l 231 1093 l 383 1253 l 510 1253 l 663 1093 l 607 1032 l 446 1172 m 736 1050 l 701 1114 l 939 1253 l 993 1158 l 736 1050 z "},"ấ":{"ha":668,"x_min":18,"x_max":882,"o":"m 18 0 m 451 335 q 411 313 438 321 q 335 294 385 304 q 228 256 257 279 q 199 188 199 232 q 286 111 199 111 q 351 123 321 111 q 402 155 381 135 q 437 202 424 175 q 450 260 450 229 l 451 335 m 464 0 q 453 61 456 26 q 368 3 421 25 q 246 -18 315 -18 q 73 34 128 -18 q 18 169 18 86 q 42 287 18 243 q 107 356 65 331 q 206 392 149 381 q 332 414 264 404 q 424 440 400 424 q 447 492 447 456 q 416 544 447 525 q 332 563 385 563 q 242 535 269 563 q 208 461 215 507 l 40 461 q 58 558 42 514 q 109 635 74 603 q 201 684 144 667 q 340 701 258 701 q 477 683 421 701 q 567 631 533 665 q 617 547 601 597 q 632 432 632 496 l 632 0 l 464 0 m 335 933 l 174 793 l 119 854 l 272 1014 l 399 1014 l 551 854 l 496 793 l 335 933 m 625 811 l 590 875 l 828 1014 l 882 919 l 625 811 z "},"Ầ":{"ha":886,"x_min":-106,"x_max":882,"o":"m 0 0 m 443 715 l 442 715 l 324 349 l 558 349 l 443 715 m 672 0 l 614 190 l 274 190 l 208 0 l 4 0 l 333 922 l 557 922 l 882 0 l 672 0 m 442 1172 l 281 1032 l 225 1093 l 378 1253 l 504 1253 l 657 1093 l 603 1032 l 442 1172 m -106 1158 l -51 1253 l 186 1114 l 151 1050 l -106 1158 z "},"ầ":{"ha":668,"x_min":-219,"x_max":632,"o":"m 0 0 m 451 335 q 411 313 438 321 q 335 294 385 304 q 228 256 257 279 q 199 188 199 232 q 286 111 199 111 q 351 123 321 111 q 402 155 381 135 q 437 202 424 175 q 450 260 450 229 l 451 335 m 464 0 q 453 61 456 26 q 368 3 421 25 q 246 -18 315 -18 q 73 34 128 -18 q 18 169 18 86 q 42 287 18 243 q 107 356 65 331 q 206 392 149 381 q 332 414 264 404 q 424 440 400 424 q 447 492 447 456 q 416 544 447 525 q 332 563 385 563 q 242 535 269 563 q 208 461 215 507 l 40 461 q 58 558 42 514 q 109 635 74 603 q 201 684 144 667 q 340 701 258 701 q 477 683 421 701 q 567 631 533 665 q 617 547 601 597 q 632 432 632 496 l 632 0 l 464 0 m 328 933 l 167 793 l 111 854 l 264 1014 l 390 1014 l 543 854 l 489 793 l 328 933 m -219 919 l -165 1014 l 72 875 l 38 811 l -219 919 z "},"Ẩ":{"ha":886,"x_min":4,"x_max":882,"o":"m 4 0 m 443 715 l 442 715 l 324 349 l 558 349 l 443 715 m 672 0 l 614 190 l 274 190 l 208 0 l 4 0 l 333 922 l 557 922 l 882 0 l 672 0 m 685 1046 q 692 1088 685 1069 q 719 1119 699 1107 q 743 1136 735 1128 q 751 1161 751 1144 q 718 1185 751 1185 q 693 1181 707 1185 q 661 1164 679 1176 l 636 1240 q 685 1267 657 1258 q 733 1275 714 1275 q 809 1252 782 1275 q 836 1190 836 1229 q 824 1144 836 1161 q 795 1113 811 1126 q 767 1085 779 1100 q 754 1046 754 1071 l 685 1046 m 440 1172 l 279 1032 l 224 1093 l 376 1253 l 503 1253 l 656 1093 l 601 1032 l 440 1172 z "},"ẩ":{"ha":668,"x_min":18,"x_max":729,"o":"m 18 0 m 451 335 q 411 313 438 321 q 335 294 385 304 q 228 256 257 279 q 199 188 199 232 q 286 111 199 111 q 351 123 321 111 q 402 155 381 135 q 437 202 424 175 q 450 260 450 229 l 451 335 m 464 0 q 453 61 456 26 q 368 3 421 25 q 246 -18 315 -18 q 73 34 128 -18 q 18 169 18 86 q 42 287 18 243 q 107 356 65 331 q 206 392 149 381 q 332 414 264 404 q 424 440 400 424 q 447 492 447 456 q 416 544 447 525 q 332 563 385 563 q 242 535 269 563 q 208 461 215 507 l 40 461 q 58 558 42 514 q 109 635 74 603 q 201 684 144 667 q 340 701 258 701 q 477 683 421 701 q 567 631 533 665 q 617 547 601 597 q 632 432 632 496 l 632 0 l 464 0 m 578 807 q 585 849 578 831 q 613 881 592 868 q 636 897 628 889 q 644 922 644 906 q 611 946 644 946 q 586 942 600 946 q 554 925 572 938 l 529 1001 q 578 1028 550 1019 q 626 1036 607 1036 q 702 1013 675 1036 q 729 951 729 990 q 717 905 729 922 q 688 874 704 888 q 660 847 672 861 q 647 807 647 832 l 578 807 m 333 933 l 172 793 l 117 854 l 269 1014 l 396 1014 l 549 854 l 494 793 l 333 933 z "},"Ẫ":{"ha":886,"x_min":4,"x_max":882,"o":"m 4 0 m 443 715 l 442 715 l 324 349 l 558 349 l 443 715 m 672 0 l 614 190 l 274 190 l 208 0 l 4 0 l 333 922 l 557 922 l 882 0 l 672 0 m 622 1256 q 578 1188 610 1206 q 514 1171 547 1171 q 478 1175 497 1171 q 440 1185 458 1179 q 404 1194 421 1190 q 375 1199 388 1199 q 336 1154 353 1199 l 268 1182 q 307 1249 281 1229 q 365 1269 333 1269 q 410 1265 390 1269 q 447 1253 429 1260 q 480 1242 464 1247 q 513 1238 496 1238 q 538 1245 528 1238 q 551 1275 547 1253 l 622 1256 m 585 1008 l 443 1106 l 303 1008 l 254 1050 l 388 1161 l 499 1161 l 632 1050 l 585 1008 z "},"ẫ":{"ha":668,"x_min":18,"x_max":632,"o":"m 18 0 m 451 335 q 411 313 438 321 q 335 294 385 304 q 228 256 257 279 q 199 188 199 232 q 286 111 199 111 q 351 123 321 111 q 402 155 381 135 q 437 202 424 175 q 450 260 450 229 l 451 335 m 464 0 q 453 61 456 26 q 368 3 421 25 q 246 -18 315 -18 q 73 34 128 -18 q 18 169 18 86 q 42 287 18 243 q 107 356 65 331 q 206 392 149 381 q 332 414 264 404 q 424 440 400 424 q 447 492 447 456 q 416 544 447 525 q 332 563 385 563 q 242 535 269 563 q 208 461 215 507 l 40 461 q 58 558 42 514 q 109 635 74 603 q 201 684 144 667 q 340 701 258 701 q 477 683 421 701 q 567 631 533 665 q 617 547 601 597 q 632 432 632 496 l 632 0 l 464 0 m 526 1017 q 483 949 514 967 q 418 932 451 932 q 382 936 401 932 q 344 946 363 940 q 308 956 325 951 q 279 960 292 960 q 240 915 257 960 l 172 943 q 211 1010 185 990 q 269 1031 238 1031 q 314 1026 294 1031 q 351 1015 333 1021 q 384 1003 368 1008 q 417 999 400 999 q 442 1006 432 999 q 456 1036 451 1014 l 526 1017 m 489 769 l 347 867 l 207 769 l 158 811 l 292 922 l 403 922 l 536 811 l 489 769 z "},"Ậ":{"ha":886,"x_min":4,"x_max":882,"o":"m 4 0 m 443 715 l 442 715 l 324 349 l 558 349 l 443 715 m 672 0 l 614 190 l 274 190 l 208 0 l 4 0 l 333 922 l 557 922 l 882 0 l 672 0 m 443 1182 l 256 1018 l 192 1089 l 369 1275 l 517 1275 l 694 1089 l 631 1018 l 443 1182 m 353 -286 l 353 -114 l 533 -114 l 533 -286 l 353 -286 z "},"ậ":{"ha":668,"x_min":18,"x_max":632,"o":"m 18 0 m 451 335 q 411 313 438 321 q 335 294 385 304 q 228 256 257 279 q 199 188 199 232 q 286 111 199 111 q 351 123 321 111 q 402 155 381 135 q 437 202 424 175 q 450 260 450 229 l 451 335 m 464 0 q 453 61 456 26 q 368 3 421 25 q 246 -18 315 -18 q 73 34 128 -18 q 18 169 18 86 q 42 287 18 243 q 107 356 65 331 q 206 392 149 381 q 332 414 264 404 q 424 440 400 424 q 447 492 447 456 q 416 544 447 525 q 332 563 385 563 q 242 535 269 563 q 208 461 215 507 l 40 461 q 58 558 42 514 q 109 635 74 603 q 201 684 144 667 q 340 701 258 701 q 477 683 421 701 q 567 631 533 665 q 617 547 601 597 q 632 432 632 496 l 632 0 l 464 0 m 333 943 l 146 779 l 82 850 l 260 1036 l 407 1036 l 585 850 l 521 779 l 333 943 m 229 -286 l 229 -114 l 410 -114 l 410 -286 l 229 -286 z "},"Ắ":{"ha":886,"x_min":4,"x_max":882,"o":"m 4 0 m 443 715 l 442 715 l 324 349 l 558 349 l 443 715 m 672 0 l 614 190 l 274 190 l 208 0 l 4 0 l 333 922 l 557 922 l 882 0 l 672 0 m 597 1167 q 584 1097 597 1126 q 549 1048 571 1068 q 499 1018 528 1028 q 442 1008 471 1008 q 385 1018 413 1008 q 335 1048 357 1028 q 301 1097 314 1068 q 288 1167 288 1126 l 367 1167 q 387 1105 367 1126 q 442 1083 407 1083 q 497 1105 478 1083 q 518 1167 517 1126 l 597 1167 m 403 1133 l 378 1179 l 543 1275 l 581 1210 l 403 1133 z "},"ắ":{"ha":668,"x_min":18,"x_max":632,"o":"m 18 0 m 451 335 q 411 313 438 321 q 335 294 385 304 q 228 256 257 279 q 199 188 199 232 q 286 111 199 111 q 351 123 321 111 q 402 155 381 135 q 437 202 424 175 q 450 260 450 229 l 451 335 m 464 0 q 453 61 456 26 q 368 3 421 25 q 246 -18 315 -18 q 73 34 128 -18 q 18 169 18 86 q 42 287 18 243 q 107 356 65 331 q 206 392 149 381 q 332 414 264 404 q 424 440 400 424 q 447 492 447 456 q 416 544 447 525 q 332 563 385 563 q 242 535 269 563 q 208 461 215 507 l 40 461 q 58 558 42 514 q 109 635 74 603 q 201 684 144 667 q 340 701 258 701 q 477 683 421 701 q 567 631 533 665 q 617 547 601 597 q 632 432 632 496 l 632 0 l 464 0 m 497 928 q 484 858 497 888 q 449 809 471 829 q 399 779 428 789 q 342 769 371 769 q 285 779 313 769 q 235 809 257 789 q 201 858 214 829 q 188 928 188 888 l 267 928 q 287 866 267 888 q 342 844 307 844 q 397 866 378 844 q 418 928 417 888 l 497 928 m 303 894 l 278 940 l 443 1036 l 481 971 l 303 894 z "},"Ằ":{"ha":886,"x_min":4,"x_max":882,"o":"m 4 0 m 443 715 l 442 715 l 324 349 l 558 349 l 443 715 m 672 0 l 614 190 l 274 190 l 208 0 l 4 0 l 333 922 l 557 922 l 882 0 l 672 0 m 597 1167 q 584 1097 597 1126 q 549 1048 571 1068 q 500 1018 528 1028 q 443 1008 472 1008 q 385 1018 414 1008 q 335 1048 357 1028 q 301 1097 314 1068 q 288 1167 288 1126 l 367 1167 q 388 1105 368 1126 q 443 1083 407 1083 q 498 1105 478 1083 q 518 1167 518 1126 l 597 1167 m 304 1210 l 342 1275 l 507 1179 l 482 1133 l 304 1210 z "},"ằ":{"ha":668,"x_min":18,"x_max":632,"o":"m 18 0 m 451 335 q 411 313 438 321 q 335 294 385 304 q 228 256 257 279 q 199 188 199 232 q 286 111 199 111 q 351 123 321 111 q 402 155 381 135 q 437 202 424 175 q 450 260 450 229 l 451 335 m 464 0 q 453 61 456 26 q 368 3 421 25 q 246 -18 315 -18 q 73 34 128 -18 q 18 169 18 86 q 42 287 18 243 q 107 356 65 331 q 206 392 149 381 q 332 414 264 404 q 424 440 400 424 q 447 492 447 456 q 416 544 447 525 q 332 563 385 563 q 242 535 269 563 q 208 461 215 507 l 40 461 q 58 558 42 514 q 109 635 74 603 q 201 684 144 667 q 340 701 258 701 q 477 683 421 701 q 567 631 533 665 q 617 547 601 597 q 632 432 632 496 l 632 0 l 464 0 m 497 928 q 484 858 497 888 q 449 809 471 829 q 400 779 428 789 q 343 769 372 769 q 285 779 314 769 q 235 809 257 789 q 201 858 214 829 q 188 928 188 888 l 267 928 q 288 866 268 888 q 343 844 307 844 q 398 866 378 844 q 418 928 418 888 l 497 928 m 204 971 l 242 1036 l 407 940 l 382 894 l 204 971 z "},"Ẳ":{"ha":886,"x_min":4,"x_max":882,"o":"m 4 0 m 443 715 l 442 715 l 324 349 l 558 349 l 443 715 m 672 0 l 614 190 l 274 190 l 208 0 l 4 0 l 333 922 l 557 922 l 882 0 l 672 0 m 597 1167 q 584 1097 597 1126 q 549 1048 571 1068 q 500 1018 528 1028 q 443 1008 472 1008 q 385 1018 414 1008 q 335 1048 357 1028 q 301 1097 314 1068 q 288 1167 288 1126 l 367 1167 q 388 1105 368 1126 q 443 1083 407 1083 q 498 1105 478 1083 q 518 1167 518 1126 l 597 1167 m 407 1104 q 413 1136 407 1122 q 433 1160 418 1150 q 451 1172 444 1167 q 457 1190 457 1178 q 432 1208 457 1208 q 389 1193 414 1208 l 371 1249 q 407 1269 386 1263 q 443 1275 428 1275 q 499 1258 479 1275 q 519 1213 519 1240 q 510 1178 519 1190 q 489 1155 500 1165 q 468 1133 478 1144 q 458 1104 458 1122 l 407 1104 z "},"ẳ":{"ha":668,"x_min":18,"x_max":632,"o":"m 18 0 m 451 335 q 411 313 438 321 q 335 294 385 304 q 228 256 257 279 q 199 188 199 232 q 286 111 199 111 q 351 123 321 111 q 402 155 381 135 q 437 202 424 175 q 450 260 450 229 l 451 335 m 464 0 q 453 61 456 26 q 368 3 421 25 q 246 -18 315 -18 q 73 34 128 -18 q 18 169 18 86 q 42 287 18 243 q 107 356 65 331 q 206 392 149 381 q 332 414 264 404 q 424 440 400 424 q 447 492 447 456 q 416 544 447 525 q 332 563 385 563 q 242 535 269 563 q 208 461 215 507 l 40 461 q 58 558 42 514 q 109 635 74 603 q 201 684 144 667 q 340 701 258 701 q 477 683 421 701 q 567 631 533 665 q 617 547 601 597 q 632 432 632 496 l 632 0 l 464 0 m 494 928 q 481 858 494 888 q 447 809 468 829 q 397 779 425 789 q 340 769 369 769 q 283 779 311 769 q 233 809 254 789 q 198 858 211 829 q 185 928 185 888 l 264 928 q 285 866 265 888 q 340 844 304 844 q 395 866 375 844 q 415 928 415 888 l 494 928 m 304 865 q 310 897 304 883 q 331 921 315 911 q 348 933 342 928 q 354 951 354 939 q 329 969 354 969 q 286 954 311 969 l 268 1010 q 304 1030 283 1024 q 340 1036 325 1036 q 397 1019 376 1036 q 417 974 417 1001 q 407 939 417 951 q 386 916 397 926 q 365 894 375 906 q 356 865 356 883 l 304 865 z "},"Ẵ":{"ha":886,"x_min":4,"x_max":882,"o":"m 4 0 m 443 715 l 442 715 l 324 349 l 558 349 l 443 715 m 672 0 l 614 190 l 274 190 l 208 0 l 4 0 l 333 922 l 557 922 l 882 0 l 672 0 m 569 1261 q 540 1204 561 1222 q 496 1186 519 1186 q 470 1191 482 1186 q 447 1201 458 1196 q 424 1212 436 1207 q 400 1217 413 1217 q 388 1210 393 1217 q 376 1185 383 1204 l 325 1210 q 354 1258 336 1244 q 396 1272 372 1272 q 422 1267 410 1272 q 445 1256 433 1263 q 469 1245 457 1250 q 494 1240 481 1240 q 515 1275 511 1240 l 569 1261 m 597 1167 q 584 1097 597 1126 q 549 1048 571 1068 q 500 1018 528 1028 q 443 1008 472 1008 q 385 1018 414 1008 q 335 1048 357 1028 q 301 1097 314 1068 q 288 1167 288 1126 l 367 1167 q 388 1105 368 1126 q 443 1083 407 1083 q 498 1105 478 1083 q 518 1167 518 1126 l 597 1167 z "},"ẵ":{"ha":668,"x_min":18,"x_max":632,"o":"m 18 0 m 451 335 q 411 313 438 321 q 335 294 385 304 q 228 256 257 279 q 199 188 199 232 q 286 111 199 111 q 351 123 321 111 q 402 155 381 135 q 437 202 424 175 q 450 260 450 229 l 451 335 m 464 0 q 453 61 456 26 q 368 3 421 25 q 246 -18 315 -18 q 73 34 128 -18 q 18 169 18 86 q 42 287 18 243 q 107 356 65 331 q 206 392 149 381 q 332 414 264 404 q 424 440 400 424 q 447 492 447 456 q 416 544 447 525 q 332 563 385 563 q 242 535 269 563 q 208 461 215 507 l 40 461 q 58 558 42 514 q 109 635 74 603 q 201 684 144 667 q 340 701 258 701 q 477 683 421 701 q 567 631 533 665 q 617 547 601 597 q 632 432 632 496 l 632 0 l 464 0 m 461 1022 q 432 965 453 983 q 388 947 411 947 q 362 952 374 947 q 339 963 350 957 q 316 973 328 968 q 292 978 304 978 q 280 972 285 978 q 268 946 275 965 l 217 971 q 246 1019 228 1006 q 288 1033 264 1033 q 313 1028 301 1033 q 337 1017 325 1024 q 360 1006 349 1011 q 386 1001 372 1001 q 407 1036 403 1001 l 461 1022 m 489 928 q 476 858 489 888 q 441 809 463 829 q 392 779 419 789 q 335 769 364 769 q 277 779 306 769 q 227 809 249 789 q 192 858 206 829 q 179 928 179 888 l 258 928 q 279 866 260 888 q 335 844 299 844 q 390 866 369 844 q 410 928 410 888 l 489 928 z "},"Ặ":{"ha":886,"x_min":4,"x_max":882,"o":"m 4 0 m 443 715 l 442 715 l 324 349 l 558 349 l 443 715 m 672 0 l 614 190 l 274 190 l 208 0 l 4 0 l 333 922 l 557 922 l 882 0 l 672 0 m 668 1275 q 649 1174 668 1217 q 599 1102 631 1131 q 527 1059 568 1074 q 443 1044 486 1044 q 359 1059 400 1044 q 287 1102 318 1074 q 237 1174 256 1131 q 218 1275 218 1217 l 332 1275 q 363 1185 335 1217 q 443 1154 392 1154 q 523 1185 494 1154 q 554 1275 551 1217 l 668 1275 m 353 -286 l 353 -114 l 533 -114 l 533 -286 l 353 -286 z "},"ặ":{"ha":668,"x_min":18,"x_max":632,"o":"m 18 0 m 451 335 q 411 313 438 321 q 335 294 385 304 q 228 256 257 279 q 199 188 199 232 q 286 111 199 111 q 351 123 321 111 q 402 155 381 135 q 437 202 424 175 q 450 260 450 229 l 451 335 m 464 0 q 453 61 456 26 q 368 3 421 25 q 246 -18 315 -18 q 73 34 128 -18 q 18 169 18 86 q 42 287 18 243 q 107 356 65 331 q 206 392 149 381 q 332 414 264 404 q 424 440 400 424 q 447 492 447 456 q 416 544 447 525 q 332 563 385 563 q 242 535 269 563 q 208 461 215 507 l 40 461 q 58 558 42 514 q 109 635 74 603 q 201 684 144 667 q 340 701 258 701 q 477 683 421 701 q 567 631 533 665 q 617 547 601 597 q 632 432 632 496 l 632 0 l 464 0 m 558 1036 q 540 935 558 978 q 490 863 521 892 q 417 820 458 835 q 333 806 376 806 q 249 820 290 806 q 177 863 208 835 q 127 935 146 892 q 108 1036 108 978 l 222 1036 q 253 947 225 978 q 333 915 282 915 q 413 947 385 915 q 444 1036 442 978 l 558 1036 m 229 -286 l 229 -114 l 410 -114 l 410 -286 l 229 -286 z "},"Ẹ":{"ha":732,"x_min":32,"x_max":732,"o":"m 32 0 m 32 0 l 32 922 l 710 922 l 710 761 l 219 761 l 219 564 l 671 564 l 671 401 l 219 401 l 219 164 l 732 164 l 732 0 l 32 0 m 299 -286 l 299 -114 l 479 -114 l 479 -286 l 299 -286 z "},"ẹ":{"ha":692,"x_min":21,"x_max":672,"o":"m 21 0 m 486 408 q 473 474 485 446 q 442 522 461 503 q 397 549 422 540 q 346 558 372 558 q 252 519 292 558 q 207 408 213 479 l 486 408 m 201 294 q 247 171 206 217 q 354 125 288 125 q 433 145 399 125 q 476 201 467 165 l 663 201 q 551 39 631 96 q 363 -18 472 -18 q 21 354 21 -18 q 43 497 21 433 q 108 607 65 561 q 211 677 150 653 q 351 701 272 701 q 591 600 510 701 q 672 294 672 499 l 201 294 m 251 -286 l 251 -114 l 432 -114 l 432 -286 l 251 -286 z "},"Ẻ":{"ha":732,"x_min":32,"x_max":732,"o":"m 32 0 m 32 0 l 32 922 l 710 922 l 710 761 l 219 761 l 219 564 l 671 564 l 671 401 l 219 401 l 219 164 l 732 164 l 732 0 l 32 0 m 354 1046 q 361 1088 354 1069 q 389 1119 368 1107 q 413 1136 404 1128 q 421 1161 421 1144 q 388 1185 421 1185 q 363 1181 376 1185 q 331 1164 349 1176 l 306 1240 q 355 1267 326 1258 q 403 1275 383 1275 q 478 1252 451 1275 q 506 1190 506 1229 q 493 1144 506 1161 q 465 1113 481 1126 q 436 1085 449 1100 q 424 1046 424 1071 l 354 1046 z "},"ẻ":{"ha":692,"x_min":21,"x_max":672,"o":"m 21 0 m 486 408 q 473 474 485 446 q 442 522 461 503 q 397 549 422 540 q 346 558 372 558 q 252 519 292 558 q 207 408 213 479 l 486 408 m 201 294 q 247 171 206 217 q 354 125 288 125 q 433 145 399 125 q 476 201 467 165 l 663 201 q 551 39 631 96 q 363 -18 472 -18 q 21 354 21 -18 q 43 497 21 433 q 108 607 65 561 q 211 677 150 653 q 351 701 272 701 q 591 600 510 701 q 672 294 672 499 l 201 294 m 299 807 q 306 849 299 831 q 333 881 313 868 q 357 897 349 889 q 365 922 365 906 q 332 946 365 946 q 307 942 321 946 q 275 925 293 938 l 250 1001 q 299 1028 271 1019 q 347 1036 328 1036 q 423 1013 396 1036 q 450 951 450 990 q 438 905 450 922 q 409 874 425 888 q 381 847 393 861 q 368 807 368 832 l 299 807 z "},"Ẽ":{"ha":732,"x_min":32,"x_max":732,"o":"m 32 0 m 32 0 l 32 922 l 710 922 l 710 761 l 219 761 l 219 564 l 671 564 l 671 401 l 219 401 l 219 164 l 732 164 l 732 0 l 32 0 m 604 1175 q 539 1069 581 1100 q 453 1039 497 1039 q 403 1049 426 1039 q 360 1070 381 1058 q 318 1092 339 1082 q 275 1101 297 1101 q 250 1090 267 1101 q 221 1040 233 1079 l 125 1092 q 182 1187 147 1160 q 260 1214 217 1214 q 317 1203 292 1214 q 364 1181 342 1193 q 406 1158 386 1168 q 444 1147 425 1147 q 475 1162 457 1147 q 500 1213 493 1176 l 604 1175 z "},"ẽ":{"ha":692,"x_min":21,"x_max":672,"o":"m 21 0 m 486 408 q 473 474 485 446 q 442 522 461 503 q 397 549 422 540 q 346 558 372 558 q 252 519 292 558 q 207 408 213 479 l 486 408 m 201 294 q 247 171 206 217 q 354 125 288 125 q 433 145 399 125 q 476 201 467 165 l 663 201 q 551 39 631 96 q 363 -18 472 -18 q 21 354 21 -18 q 43 497 21 433 q 108 607 65 561 q 211 677 150 653 q 351 701 272 701 q 591 600 510 701 q 672 294 672 499 l 201 294 m 585 936 q 519 831 561 861 q 433 800 478 800 q 384 810 407 800 q 340 831 361 819 q 299 853 319 843 q 256 863 278 863 q 231 851 247 863 q 201 801 214 840 l 106 853 q 163 948 128 921 q 240 975 197 975 q 297 965 272 975 q 344 942 322 954 q 386 919 367 929 q 425 908 406 908 q 456 923 438 908 q 481 974 474 938 l 585 936 z "},"Ế":{"ha":732,"x_min":32,"x_max":926,"o":"m 32 0 m 32 0 l 32 922 l 710 922 l 710 761 l 219 761 l 219 564 l 671 564 l 671 401 l 219 401 l 219 164 l 732 164 l 732 0 l 32 0 m 379 1172 l 218 1032 l 164 1093 l 317 1253 l 443 1253 l 596 1093 l 540 1032 l 379 1172 m 669 1050 l 635 1114 l 872 1253 l 926 1158 l 669 1050 z "},"ế":{"ha":692,"x_min":21,"x_max":894,"o":"m 21 0 m 486 408 q 473 474 485 446 q 442 522 461 503 q 397 549 422 540 q 346 558 372 558 q 252 519 292 558 q 207 408 213 479 l 486 408 m 201 294 q 247 171 206 217 q 354 125 288 125 q 433 145 399 125 q 476 201 467 165 l 663 201 q 551 39 631 96 q 363 -18 472 -18 q 21 354 21 -18 q 43 497 21 433 q 108 607 65 561 q 211 677 150 653 q 351 701 272 701 q 591 600 510 701 q 672 294 672 499 l 201 294 m 347 933 l 186 793 l 132 854 l 285 1014 l 411 1014 l 564 854 l 508 793 l 347 933 m 638 811 l 603 875 l 840 1014 l 894 919 l 638 811 z "},"Ề":{"ha":732,"x_min":-175,"x_max":732,"o":"m 0 0 m 32 0 l 32 922 l 710 922 l 710 761 l 219 761 l 219 564 l 671 564 l 671 401 l 219 401 l 219 164 l 732 164 l 732 0 l 32 0 m 372 1172 l 211 1032 l 156 1093 l 308 1253 l 435 1253 l 588 1093 l 533 1032 l 372 1172 m -175 1158 l -121 1253 l 117 1114 l 82 1050 l -175 1158 z "},"ề":{"ha":692,"x_min":-214,"x_max":672,"o":"m 0 0 m 486 408 q 473 474 485 446 q 442 522 461 503 q 397 549 422 540 q 346 558 372 558 q 252 519 292 558 q 207 408 213 479 l 486 408 m 201 294 q 247 171 206 217 q 354 125 288 125 q 433 145 399 125 q 476 201 467 165 l 663 201 q 551 39 631 96 q 363 -18 472 -18 q 21 354 21 -18 q 43 497 21 433 q 108 607 65 561 q 211 677 150 653 q 351 701 272 701 q 591 600 510 701 q 672 294 672 499 l 201 294 m 333 933 l 172 793 l 117 854 l 269 1014 l 396 1014 l 549 854 l 494 793 l 333 933 m -214 919 l -160 1014 l 78 875 l 43 811 l -214 919 z "},"Ể":{"ha":732,"x_min":32,"x_max":775,"o":"m 32 0 m 32 0 l 32 922 l 710 922 l 710 761 l 219 761 l 219 564 l 671 564 l 671 401 l 219 401 l 219 164 l 732 164 l 732 0 l 32 0 m 624 1046 q 631 1088 624 1069 q 658 1119 638 1107 q 682 1136 674 1128 q 690 1161 690 1144 q 657 1185 690 1185 q 632 1181 646 1185 q 600 1164 618 1176 l 575 1240 q 624 1267 596 1258 q 672 1275 653 1275 q 748 1252 721 1275 q 775 1190 775 1229 q 763 1144 775 1161 q 734 1113 750 1126 q 706 1085 718 1100 q 693 1046 693 1071 l 624 1046 m 379 1172 l 218 1032 l 163 1093 l 315 1253 l 442 1253 l 594 1093 l 540 1032 l 379 1172 z "},"ể":{"ha":692,"x_min":21,"x_max":746,"o":"m 21 0 m 486 408 q 473 474 485 446 q 442 522 461 503 q 397 549 422 540 q 346 558 372 558 q 252 519 292 558 q 207 408 213 479 l 486 408 m 201 294 q 247 171 206 217 q 354 125 288 125 q 433 145 399 125 q 476 201 467 165 l 663 201 q 551 39 631 96 q 363 -18 472 -18 q 21 354 21 -18 q 43 497 21 433 q 108 607 65 561 q 211 677 150 653 q 351 701 272 701 q 591 600 510 701 q 672 294 672 499 l 201 294 m 594 807 q 601 849 594 831 q 629 881 608 868 q 653 897 644 889 q 661 922 661 906 q 628 946 661 946 q 603 942 617 946 q 571 925 589 938 l 546 1001 q 595 1028 567 1019 q 643 1036 624 1036 q 719 1013 692 1036 q 746 951 746 990 q 733 905 746 922 q 705 874 721 888 q 676 847 689 861 q 664 807 664 832 l 594 807 m 350 933 l 189 793 l 133 854 l 286 1014 l 413 1014 l 565 854 l 511 793 l 350 933 z "},"Ễ":{"ha":732,"x_min":32,"x_max":732,"o":"m 32 0 m 32 0 l 32 922 l 710 922 l 710 761 l 219 761 l 219 564 l 671 564 l 671 401 l 219 401 l 219 164 l 732 164 l 732 0 l 32 0 m 558 1256 q 515 1188 546 1206 q 450 1171 483 1171 q 414 1175 433 1171 q 376 1185 394 1179 q 340 1194 357 1190 q 311 1199 324 1199 q 272 1154 289 1199 l 204 1182 q 243 1249 217 1229 q 301 1269 269 1269 q 346 1265 326 1269 q 383 1253 365 1260 q 416 1242 400 1247 q 449 1238 432 1238 q 474 1245 464 1238 q 488 1275 483 1253 l 558 1256 m 521 1008 l 379 1106 l 239 1008 l 190 1050 l 324 1161 l 435 1161 l 568 1050 l 521 1008 z "},"ễ":{"ha":692,"x_min":21,"x_max":672,"o":"m 21 0 m 486 408 q 473 474 485 446 q 442 522 461 503 q 397 549 422 540 q 346 558 372 558 q 252 519 292 558 q 207 408 213 479 l 486 408 m 201 294 q 247 171 206 217 q 354 125 288 125 q 433 145 399 125 q 476 201 467 165 l 663 201 q 551 39 631 96 q 363 -18 472 -18 q 21 354 21 -18 q 43 497 21 433 q 108 607 65 561 q 211 677 150 653 q 351 701 272 701 q 591 600 510 701 q 672 294 672 499 l 201 294 m 525 1017 q 481 949 513 967 q 417 932 450 932 q 381 936 400 932 q 342 946 361 940 q 307 956 324 951 q 278 960 290 960 q 239 915 256 960 l 171 943 q 210 1010 183 990 q 268 1031 236 1031 q 313 1026 293 1031 q 349 1015 332 1021 q 383 1003 367 1008 q 415 999 399 999 q 440 1006 431 999 q 454 1036 450 1014 l 525 1017 m 488 769 l 346 867 l 206 769 l 157 811 l 290 922 l 401 922 l 535 811 l 488 769 z "},"Ệ":{"ha":732,"x_min":32,"x_max":732,"o":"m 32 0 m 32 0 l 32 922 l 710 922 l 710 761 l 219 761 l 219 564 l 671 564 l 671 401 l 219 401 l 219 164 l 732 164 l 732 0 l 32 0 m 376 1182 l 189 1018 l 125 1089 l 303 1275 l 450 1275 l 628 1089 l 564 1018 l 376 1182 m 275 -286 l 275 -114 l 456 -114 l 456 -286 l 275 -286 z "},"ệ":{"ha":692,"x_min":21,"x_max":672,"o":"m 21 0 m 486 408 q 473 474 485 446 q 442 522 461 503 q 397 549 422 540 q 346 558 372 558 q 252 519 292 558 q 207 408 213 479 l 486 408 m 201 294 q 247 171 206 217 q 354 125 288 125 q 433 145 399 125 q 476 201 467 165 l 663 201 q 551 39 631 96 q 363 -18 472 -18 q 21 354 21 -18 q 43 497 21 433 q 108 607 65 561 q 211 677 150 653 q 351 701 272 701 q 591 600 510 701 q 672 294 672 499 l 201 294 m 346 943 l 158 779 l 94 850 l 272 1036 l 419 1036 l 597 850 l 533 779 l 346 943 m 256 -286 l 256 -114 l 436 -114 l 436 -286 l 256 -286 z "},"Ỉ":{"ha":256,"x_min":32,"x_max":243,"o":"m 32 0 m 32 0 l 32 922 l 225 922 l 225 0 l 32 0 m 92 1046 q 99 1088 92 1069 q 126 1119 106 1107 q 150 1136 142 1128 q 158 1161 158 1144 q 125 1185 158 1185 q 100 1181 114 1185 q 68 1164 86 1176 l 43 1240 q 92 1267 64 1258 q 140 1275 121 1275 q 216 1252 189 1275 q 243 1190 243 1229 q 231 1144 243 1161 q 202 1113 218 1126 q 174 1085 186 1100 q 161 1046 161 1071 l 92 1046 z "},"ỉ":{"ha":261,"x_min":40,"x_max":246,"o":"m 40 0 m 40 0 l 40 683 l 221 683 l 221 0 l 40 0 m 94 807 q 101 849 94 831 q 129 881 108 868 q 153 897 144 889 q 161 922 161 906 q 128 946 161 946 q 103 942 117 946 q 71 925 89 938 l 46 1001 q 95 1028 67 1019 q 143 1036 124 1036 q 219 1013 192 1036 q 246 951 246 990 q 233 905 246 922 q 205 874 221 888 q 176 847 189 861 q 164 807 164 832 l 94 807 z "},"Ị":{"ha":256,"x_min":32,"x_max":225,"o":"m 32 0 m 32 0 l 32 922 l 225 922 l 225 0 l 32 0 m 39 -286 l 39 -114 l 219 -114 l 219 -286 l 39 -286 z "},"ị":{"ha":261,"x_min":40,"x_max":222,"o":"m 40 0 m 40 0 l 40 683 l 221 683 l 221 0 l 40 0 m 40 765 l 40 933 l 221 933 l 221 765 l 40 765 m 42 -286 l 42 -114 l 222 -114 l 222 -286 l 42 -286 z "},"Ọ":{"ha":925,"x_min":21,"x_max":904,"o":"m 21 0 m 464 133 q 561 152 515 133 q 641 209 607 171 q 694 307 675 247 q 714 449 714 367 q 650 697 714 613 q 464 782 586 782 q 276 697 342 782 q 211 449 211 613 q 277 209 211 285 q 464 133 343 133 m 464 -32 q 135 93 250 -32 q 21 453 21 218 q 50 663 21 569 q 136 820 79 756 q 275 919 193 885 q 464 953 357 953 q 652 919 569 953 q 790 819 735 885 q 875 660 846 754 q 904 449 904 567 q 791 89 904 210 q 464 -32 678 -32 m 372 -286 l 372 -114 l 553 -114 l 553 -286 l 372 -286 z "},"ọ":{"ha":742,"x_min":21,"x_max":719,"o":"m 21 0 m 372 133 q 538 342 538 133 q 372 549 538 549 q 207 342 207 549 q 372 133 207 133 m 372 -18 q 224 8 289 -18 q 113 82 158 35 q 44 196 68 129 q 21 342 21 263 q 45 489 21 422 q 115 603 69 556 q 226 676 161 650 q 372 701 290 701 q 517 676 453 701 q 626 603 581 650 q 695 490 671 557 q 719 342 719 424 q 695 194 719 260 q 626 81 671 128 q 516 8 581 33 q 372 -18 451 -18 m 281 -286 l 281 -114 l 461 -114 l 461 -286 l 281 -286 z "},"Ỏ":{"ha":925,"x_min":21,"x_max":904,"o":"m 21 0 m 464 133 q 561 152 515 133 q 641 209 607 171 q 694 307 675 247 q 714 449 714 367 q 650 697 714 613 q 464 782 586 782 q 276 697 342 782 q 211 449 211 613 q 277 209 211 285 q 464 133 343 133 m 464 -32 q 135 93 250 -32 q 21 453 21 218 q 50 663 21 569 q 136 820 79 756 q 275 919 193 885 q 464 953 357 953 q 652 919 569 953 q 790 819 735 885 q 875 660 846 754 q 904 449 904 567 q 791 89 904 210 q 464 -32 678 -32 m 425 1046 q 432 1088 425 1069 q 460 1119 439 1107 q 483 1136 475 1128 q 492 1161 492 1144 q 458 1185 492 1185 q 433 1181 447 1185 q 401 1164 419 1176 l 376 1240 q 426 1267 397 1258 q 474 1275 454 1275 q 549 1252 522 1275 q 576 1190 576 1229 q 564 1144 576 1161 q 535 1113 551 1126 q 507 1085 519 1100 q 494 1046 494 1071 l 425 1046 z "},"ỏ":{"ha":742,"x_min":21,"x_max":719,"o":"m 21 0 m 372 133 q 538 342 538 133 q 372 549 538 549 q 207 342 207 549 q 372 133 207 133 m 372 -18 q 224 8 289 -18 q 113 82 158 35 q 44 196 68 129 q 21 342 21 263 q 45 489 21 422 q 115 603 69 556 q 226 676 161 650 q 372 701 290 701 q 517 676 453 701 q 626 603 581 650 q 695 490 671 557 q 719 342 719 424 q 695 194 719 260 q 626 81 671 128 q 516 8 581 33 q 372 -18 451 -18 m 333 807 q 340 849 333 831 q 368 881 347 868 q 392 897 383 889 q 400 922 400 906 q 367 946 400 946 q 342 942 356 946 q 310 925 328 938 l 285 1001 q 334 1028 306 1019 q 382 1036 363 1036 q 458 1013 431 1036 q 485 951 485 990 q 472 905 485 922 q 444 874 460 888 q 415 847 428 861 q 403 807 403 832 l 333 807 z "},"Ố":{"ha":925,"x_min":21,"x_max":1010,"o":"m 21 0 m 464 133 q 561 152 515 133 q 641 209 607 171 q 694 307 675 247 q 714 449 714 367 q 650 697 714 613 q 464 782 586 782 q 276 697 342 782 q 211 449 211 613 q 277 209 211 285 q 464 133 343 133 m 464 -32 q 135 93 250 -32 q 21 453 21 218 q 50 663 21 569 q 136 820 79 756 q 275 919 193 885 q 464 953 357 953 q 652 919 569 953 q 790 819 735 885 q 875 660 846 754 q 904 449 904 567 q 791 89 904 210 q 464 -32 678 -32 m 463 1172 l 301 1032 l 247 1093 l 400 1253 l 526 1253 l 679 1093 l 624 1032 l 463 1172 m 753 1050 l 718 1114 l 956 1253 l 1010 1158 l 753 1050 z "},"ố":{"ha":742,"x_min":21,"x_max":931,"o":"m 21 0 m 372 133 q 538 342 538 133 q 372 549 538 549 q 207 342 207 549 q 372 133 207 133 m 372 -18 q 224 8 289 -18 q 113 82 158 35 q 44 196 68 129 q 21 342 21 263 q 45 489 21 422 q 115 603 69 556 q 226 676 161 650 q 372 701 290 701 q 517 676 453 701 q 626 603 581 650 q 695 490 671 557 q 719 342 719 424 q 695 194 719 260 q 626 81 671 128 q 516 8 581 33 q 372 -18 451 -18 m 383 933 l 222 793 l 168 854 l 321 1014 l 447 1014 l 600 854 l 544 793 l 383 933 m 674 811 l 639 875 l 876 1014 l 931 919 l 674 811 z "},"Ồ":{"ha":925,"x_min":-82,"x_max":904,"o":"m 0 0 m 464 133 q 561 152 515 133 q 641 209 607 171 q 694 307 675 247 q 714 449 714 367 q 650 697 714 613 q 464 782 586 782 q 276 697 342 782 q 211 449 211 613 q 277 209 211 285 q 464 133 343 133 m 464 -32 q 135 93 250 -32 q 21 453 21 218 q 50 663 21 569 q 136 820 79 756 q 275 919 193 885 q 464 953 357 953 q 652 919 569 953 q 790 819 735 885 q 875 660 846 754 q 904 449 904 567 q 791 89 904 210 q 464 -32 678 -32 m 465 1172 l 304 1032 l 249 1093 l 401 1253 l 528 1253 l 681 1093 l 626 1032 l 465 1172 m -82 1158 l -28 1253 l 210 1114 l 175 1050 l -82 1158 z "},"ồ":{"ha":742,"x_min":-176,"x_max":719,"o":"m 0 0 m 372 133 q 538 342 538 133 q 372 549 538 549 q 207 342 207 549 q 372 133 207 133 m 372 -18 q 224 8 289 -18 q 113 82 158 35 q 44 196 68 129 q 21 342 21 263 q 45 489 21 422 q 115 603 69 556 q 226 676 161 650 q 372 701 290 701 q 517 676 453 701 q 626 603 581 650 q 695 490 671 557 q 719 342 719 424 q 695 194 719 260 q 626 81 671 128 q 516 8 581 33 q 372 -18 451 -18 m 371 933 l 210 793 l 154 854 l 307 1014 l 433 1014 l 586 854 l 532 793 l 371 933 m -176 919 l -122 1014 l 115 875 l 81 811 l -176 919 z "},"Ổ":{"ha":925,"x_min":21,"x_max":904,"o":"m 21 0 m 464 133 q 561 152 515 133 q 641 209 607 171 q 694 307 675 247 q 714 449 714 367 q 650 697 714 613 q 464 782 586 782 q 276 697 342 782 q 211 449 211 613 q 277 209 211 285 q 464 133 343 133 m 464 -32 q 135 93 250 -32 q 21 453 21 218 q 50 663 21 569 q 136 820 79 756 q 275 919 193 885 q 464 953 357 953 q 652 919 569 953 q 790 819 735 885 q 875 660 846 754 q 904 449 904 567 q 791 89 904 210 q 464 -32 678 -32 m 704 1046 q 711 1088 704 1069 q 739 1119 718 1107 q 763 1136 754 1128 q 771 1161 771 1144 q 738 1185 771 1185 q 713 1181 726 1185 q 681 1164 699 1176 l 656 1240 q 705 1267 676 1258 q 753 1275 733 1275 q 828 1252 801 1275 q 856 1190 856 1229 q 843 1144 856 1161 q 815 1113 831 1126 q 786 1085 799 1100 q 774 1046 774 1071 l 704 1046 m 460 1172 l 299 1032 l 243 1093 l 396 1253 l 522 1253 l 675 1093 l 621 1032 l 460 1172 z "},"ổ":{"ha":742,"x_min":21,"x_max":775,"o":"m 21 0 m 372 133 q 538 342 538 133 q 372 549 538 549 q 207 342 207 549 q 372 133 207 133 m 372 -18 q 224 8 289 -18 q 113 82 158 35 q 44 196 68 129 q 21 342 21 263 q 45 489 21 422 q 115 603 69 556 q 226 676 161 650 q 372 701 290 701 q 517 676 453 701 q 626 603 581 650 q 695 490 671 557 q 719 342 719 424 q 695 194 719 260 q 626 81 671 128 q 516 8 581 33 q 372 -18 451 -18 m 624 807 q 631 849 624 831 q 658 881 638 868 q 682 897 674 889 q 690 922 690 906 q 657 946 690 946 q 632 942 646 946 q 600 925 618 938 l 575 1001 q 624 1028 596 1019 q 672 1036 653 1036 q 748 1013 721 1036 q 775 951 775 990 q 763 905 775 922 q 734 874 750 888 q 706 847 718 861 q 693 807 693 832 l 624 807 m 379 933 l 218 793 l 163 854 l 315 1014 l 442 1014 l 594 854 l 540 793 l 379 933 z "},"Ỗ":{"ha":925,"x_min":21,"x_max":904,"o":"m 21 0 m 464 133 q 561 152 515 133 q 641 209 607 171 q 694 307 675 247 q 714 449 714 367 q 650 697 714 613 q 464 782 586 782 q 276 697 342 782 q 211 449 211 613 q 277 209 211 285 q 464 133 343 133 m 464 -32 q 135 93 250 -32 q 21 453 21 218 q 50 663 21 569 q 136 820 79 756 q 275 919 193 885 q 464 953 357 953 q 652 919 569 953 q 790 819 735 885 q 875 660 846 754 q 904 449 904 567 q 791 89 904 210 q 464 -32 678 -32 m 642 1256 q 598 1188 629 1206 q 533 1171 567 1171 q 497 1175 517 1171 q 459 1185 478 1179 q 424 1194 440 1190 q 394 1199 407 1199 q 356 1154 372 1199 l 288 1182 q 326 1249 300 1229 q 385 1269 353 1269 q 429 1265 410 1269 q 466 1253 449 1260 q 499 1242 483 1247 q 532 1238 515 1238 q 557 1245 547 1238 q 571 1275 567 1253 l 642 1256 m 604 1008 l 463 1106 l 322 1008 l 274 1050 l 407 1161 l 518 1161 l 651 1050 l 604 1008 z "},"ỗ":{"ha":742,"x_min":21,"x_max":719,"o":"m 21 0 m 372 133 q 538 342 538 133 q 372 549 538 549 q 207 342 207 549 q 372 133 207 133 m 372 -18 q 224 8 289 -18 q 113 82 158 35 q 44 196 68 129 q 21 342 21 263 q 45 489 21 422 q 115 603 69 556 q 226 676 161 650 q 372 701 290 701 q 517 676 453 701 q 626 603 581 650 q 695 490 671 557 q 719 342 719 424 q 695 194 719 260 q 626 81 671 128 q 516 8 581 33 q 372 -18 451 -18 m 550 1017 q 506 949 538 967 q 442 932 475 932 q 406 936 425 932 q 367 946 386 940 q 332 956 349 951 q 303 960 315 960 q 264 915 281 960 l 196 943 q 235 1010 208 990 q 293 1031 261 1031 q 338 1026 318 1031 q 374 1015 357 1021 q 408 1003 392 1008 q 440 999 424 999 q 465 1006 456 999 q 479 1036 475 1014 l 550 1017 m 513 769 l 371 867 l 231 769 l 182 811 l 315 922 l 426 922 l 560 811 l 513 769 z "},"Ộ":{"ha":925,"x_min":21,"x_max":904,"o":"m 21 0 m 464 133 q 561 152 515 133 q 641 209 607 171 q 694 307 675 247 q 714 449 714 367 q 650 697 714 613 q 464 782 586 782 q 276 697 342 782 q 211 449 211 613 q 277 209 211 285 q 464 133 343 133 m 464 -32 q 135 93 250 -32 q 21 453 21 218 q 50 663 21 569 q 136 820 79 756 q 275 919 193 885 q 464 953 357 953 q 652 919 569 953 q 790 819 735 885 q 875 660 846 754 q 904 449 904 567 q 791 89 904 210 q 464 -32 678 -32 m 463 1182 l 275 1018 l 211 1089 l 389 1275 l 536 1275 l 714 1089 l 650 1018 l 463 1182 m 372 -286 l 372 -114 l 553 -114 l 553 -286 l 372 -286 z "},"ộ":{"ha":742,"x_min":21,"x_max":719,"o":"m 21 0 m 372 133 q 538 342 538 133 q 372 549 538 549 q 207 342 207 549 q 372 133 207 133 m 372 -18 q 224 8 289 -18 q 113 82 158 35 q 44 196 68 129 q 21 342 21 263 q 45 489 21 422 q 115 603 69 556 q 226 676 161 650 q 372 701 290 701 q 517 676 453 701 q 626 603 581 650 q 695 490 671 557 q 719 342 719 424 q 695 194 719 260 q 626 81 671 128 q 516 8 581 33 q 372 -18 451 -18 m 371 943 l 183 779 l 119 850 l 297 1036 l 444 1036 l 622 850 l 558 779 l 371 943 m 281 -286 l 281 -114 l 461 -114 l 461 -286 l 281 -286 z "},"Ớ":{"ha":1063,"x_min":21,"x_max":1074,"o":"m 21 0 m 1044 975 q 1066 930 1058 960 q 1074 867 1074 900 q 1038 753 1074 788 q 946 718 1003 718 q 843 739 897 718 q 904 449 904 621 q 791 89 904 210 q 464 -32 678 -32 q 135 93 250 -32 q 21 453 21 218 q 50 663 21 569 q 136 820 79 756 q 275 919 193 885 q 464 953 357 953 q 750 858 639 953 q 819 820 783 831 q 893 810 856 810 q 947 837 933 810 q 960 897 960 864 q 956 942 960 921 q 947 975 953 963 l 1044 975 m 464 133 q 561 152 515 133 q 641 209 607 171 q 694 307 675 247 q 714 449 714 367 q 650 697 714 613 q 464 782 586 782 q 276 697 342 782 q 211 449 211 613 q 277 209 211 285 q 464 133 343 133 m 369 1008 l 326 1085 l 614 1253 l 679 1139 l 369 1008 z "},"ớ":{"ha":899,"x_min":21,"x_max":910,"o":"m 21 0 m 881 754 q 902 709 894 739 q 910 646 910 679 q 904 592 910 618 q 885 544 899 565 q 851 510 872 524 q 799 497 829 497 q 683 517 731 497 q 719 342 719 440 q 695 194 719 260 q 626 81 671 128 q 516 8 581 33 q 372 -18 451 -18 q 224 8 289 -18 q 113 82 158 35 q 44 196 68 129 q 21 342 21 263 q 45 489 21 422 q 115 603 69 556 q 226 676 161 650 q 372 701 290 701 q 586 638 499 701 q 662 598 628 607 q 729 589 696 589 q 783 616 769 589 q 796 676 796 643 q 792 721 796 700 q 783 754 789 742 l 881 754 m 372 133 q 538 342 538 133 q 372 549 538 549 q 207 342 207 549 q 372 133 207 133 m 278 769 l 235 846 l 522 1014 l 588 900 l 278 769 z "},"Ờ":{"ha":1063,"x_min":21,"x_max":1074,"o":"m 21 0 m 1044 975 q 1066 930 1058 960 q 1074 867 1074 900 q 1038 753 1074 788 q 946 718 1003 718 q 843 739 897 718 q 904 449 904 621 q 791 89 904 210 q 464 -32 678 -32 q 135 93 250 -32 q 21 453 21 218 q 50 663 21 569 q 136 820 79 756 q 275 919 193 885 q 464 953 357 953 q 750 858 639 953 q 819 820 783 831 q 893 810 856 810 q 947 837 933 810 q 960 897 960 864 q 956 942 960 921 q 947 975 953 963 l 1044 975 m 464 133 q 561 152 515 133 q 641 209 607 171 q 694 307 675 247 q 714 449 714 367 q 650 697 714 613 q 464 782 586 782 q 276 697 342 782 q 211 449 211 613 q 277 209 211 285 q 464 133 343 133 m 243 1139 l 308 1253 l 596 1085 l 553 1008 l 243 1139 z "},"ờ":{"ha":899,"x_min":21,"x_max":910,"o":"m 21 0 m 881 754 q 902 709 894 739 q 910 646 910 679 q 904 592 910 618 q 885 544 899 565 q 851 510 872 524 q 799 497 829 497 q 683 517 731 497 q 719 342 719 440 q 695 194 719 260 q 626 81 671 128 q 516 8 581 33 q 372 -18 451 -18 q 224 8 289 -18 q 113 82 158 35 q 44 196 68 129 q 21 342 21 263 q 45 489 21 422 q 115 603 69 556 q 226 676 161 650 q 372 701 290 701 q 586 638 499 701 q 662 598 628 607 q 729 589 696 589 q 783 616 769 589 q 796 676 796 643 q 792 721 796 700 q 783 754 789 742 l 881 754 m 372 133 q 538 342 538 133 q 372 549 538 549 q 207 342 207 549 q 372 133 207 133 m 151 900 l 217 1014 l 504 846 l 461 769 l 151 900 z "},"Ở":{"ha":1063,"x_min":21,"x_max":1074,"o":"m 21 0 m 1044 975 q 1066 930 1058 960 q 1074 867 1074 900 q 1038 753 1074 788 q 946 718 1003 718 q 843 739 897 718 q 904 449 904 621 q 791 89 904 210 q 464 -32 678 -32 q 135 93 250 -32 q 21 453 21 218 q 50 663 21 569 q 136 820 79 756 q 275 919 193 885 q 464 953 357 953 q 750 858 639 953 q 819 820 783 831 q 893 810 856 810 q 947 837 933 810 q 960 897 960 864 q 956 942 960 921 q 947 975 953 963 l 1044 975 m 464 133 q 561 152 515 133 q 641 209 607 171 q 694 307 675 247 q 714 449 714 367 q 650 697 714 613 q 464 782 586 782 q 276 697 342 782 q 211 449 211 613 q 277 209 211 285 q 464 133 343 133 m 415 1046 q 422 1088 415 1069 q 450 1119 429 1107 q 474 1136 465 1128 q 482 1161 482 1144 q 449 1185 482 1185 q 424 1181 438 1185 q 392 1164 410 1176 l 367 1240 q 416 1267 388 1258 q 464 1275 444 1275 q 540 1252 513 1275 q 567 1190 567 1229 q 554 1144 567 1161 q 526 1113 542 1126 q 497 1085 510 1100 q 485 1046 485 1071 l 415 1046 z "},"ở":{"ha":899,"x_min":21,"x_max":910,"o":"m 21 0 m 881 754 q 902 709 894 739 q 910 646 910 679 q 904 592 910 618 q 885 544 899 565 q 851 510 872 524 q 799 497 829 497 q 683 517 731 497 q 719 342 719 440 q 695 194 719 260 q 626 81 671 128 q 516 8 581 33 q 372 -18 451 -18 q 224 8 289 -18 q 113 82 158 35 q 44 196 68 129 q 21 342 21 263 q 45 489 21 422 q 115 603 69 556 q 226 676 161 650 q 372 701 290 701 q 586 638 499 701 q 662 598 628 607 q 729 589 696 589 q 783 616 769 589 q 796 676 796 643 q 792 721 796 700 q 783 754 789 742 l 881 754 m 372 133 q 538 342 538 133 q 372 549 538 549 q 207 342 207 549 q 372 133 207 133 m 332 807 q 339 849 332 831 q 367 881 346 868 q 390 897 382 889 q 399 922 399 906 q 365 946 399 946 q 340 942 354 946 q 308 925 326 938 l 283 1001 q 333 1028 304 1019 q 381 1036 361 1036 q 456 1013 429 1036 q 483 951 483 990 q 471 905 483 922 q 442 874 458 888 q 414 847 426 861 q 401 807 401 832 l 332 807 z "},"Ỡ":{"ha":1063,"x_min":21,"x_max":1074,"o":"m 21 0 m 1044 975 q 1066 930 1058 960 q 1074 867 1074 900 q 1038 753 1074 788 q 946 718 1003 718 q 843 739 897 718 q 904 449 904 621 q 791 89 904 210 q 464 -32 678 -32 q 135 93 250 -32 q 21 453 21 218 q 50 663 21 569 q 136 820 79 756 q 275 919 193 885 q 464 953 357 953 q 750 858 639 953 q 819 820 783 831 q 893 810 856 810 q 947 837 933 810 q 960 897 960 864 q 956 942 960 921 q 947 975 953 963 l 1044 975 m 464 133 q 561 152 515 133 q 641 209 607 171 q 694 307 675 247 q 714 449 714 367 q 650 697 714 613 q 464 782 586 782 q 276 697 342 782 q 211 449 211 613 q 277 209 211 285 q 464 133 343 133 m 693 1175 q 628 1069 669 1100 q 542 1039 586 1039 q 492 1049 515 1039 q 449 1070 469 1058 q 407 1092 428 1082 q 364 1101 386 1101 q 339 1090 356 1101 q 310 1040 322 1079 l 214 1092 q 271 1187 236 1160 q 349 1214 306 1214 q 406 1203 381 1214 q 453 1181 431 1193 q 494 1158 475 1168 q 533 1147 514 1147 q 564 1162 546 1147 q 589 1213 582 1176 l 693 1175 z "},"ỡ":{"ha":899,"x_min":21,"x_max":910,"o":"m 21 0 m 881 754 q 902 709 894 739 q 910 646 910 679 q 904 592 910 618 q 885 544 899 565 q 851 510 872 524 q 799 497 829 497 q 683 517 731 497 q 719 342 719 440 q 695 194 719 260 q 626 81 671 128 q 516 8 581 33 q 372 -18 451 -18 q 224 8 289 -18 q 113 82 158 35 q 44 196 68 129 q 21 342 21 263 q 45 489 21 422 q 115 603 69 556 q 226 676 161 650 q 372 701 290 701 q 586 638 499 701 q 662 598 628 607 q 729 589 696 589 q 783 616 769 589 q 796 676 796 643 q 792 721 796 700 q 783 754 789 742 l 881 754 m 372 133 q 538 342 538 133 q 372 549 538 549 q 207 342 207 549 q 372 133 207 133 m 611 936 q 546 831 588 861 q 460 800 504 800 q 410 810 433 800 q 367 831 388 819 q 325 853 346 843 q 282 863 304 863 q 257 851 274 863 q 228 801 240 840 l 132 853 q 189 948 154 921 q 267 975 224 975 q 324 965 299 975 q 371 942 349 954 q 413 919 393 929 q 451 908 432 908 q 482 923 464 908 q 507 974 500 938 l 611 936 z "},"Ợ":{"ha":1063,"x_min":21,"x_max":1074,"o":"m 21 0 m 1044 975 q 1066 930 1058 960 q 1074 867 1074 900 q 1038 753 1074 788 q 946 718 1003 718 q 843 739 897 718 q 904 449 904 621 q 791 89 904 210 q 464 -32 678 -32 q 135 93 250 -32 q 21 453 21 218 q 50 663 21 569 q 136 820 79 756 q 275 919 193 885 q 464 953 357 953 q 750 858 639 953 q 819 820 783 831 q 893 810 856 810 q 947 837 933 810 q 960 897 960 864 q 956 942 960 921 q 947 975 953 963 l 1044 975 m 464 133 q 561 152 515 133 q 641 209 607 171 q 694 307 675 247 q 714 449 714 367 q 650 697 714 613 q 464 782 586 782 q 276 697 342 782 q 211 449 211 613 q 277 209 211 285 q 464 133 343 133 m 371 -286 l 371 -114 l 551 -114 l 551 -286 l 371 -286 z "},"ợ":{"ha":899,"x_min":21,"x_max":910,"o":"m 21 0 m 881 754 q 902 709 894 739 q 910 646 910 679 q 904 592 910 618 q 885 544 899 565 q 851 510 872 524 q 799 497 829 497 q 683 517 731 497 q 719 342 719 440 q 695 194 719 260 q 626 81 671 128 q 516 8 581 33 q 372 -18 451 -18 q 224 8 289 -18 q 113 82 158 35 q 44 196 68 129 q 21 342 21 263 q 45 489 21 422 q 115 603 69 556 q 226 676 161 650 q 372 701 290 701 q 586 638 499 701 q 662 598 628 607 q 729 589 696 589 q 783 616 769 589 q 796 676 796 643 q 792 721 796 700 q 783 754 789 742 l 881 754 m 372 133 q 538 342 538 133 q 372 549 538 549 q 207 342 207 549 q 372 133 207 133 m 279 -286 l 279 -114 l 460 -114 l 460 -286 l 279 -286 z "},"Ụ":{"ha":807,"x_min":32,"x_max":775,"o":"m 32 0 m 578 922 l 775 922 l 775 307 q 676 53 775 139 q 396 -32 578 -32 q 130 49 228 -32 q 32 296 32 129 l 32 922 l 228 922 l 228 314 q 271 178 228 228 q 393 128 314 128 q 578 307 578 128 l 578 922 m 313 -286 l 313 -114 l 493 -114 l 493 -286 l 313 -286 z "},"ụ":{"ha":688,"x_min":36,"x_max":651,"o":"m 36 0 m 481 0 l 481 96 q 268 -18 411 -18 q 174 0 217 -18 q 101 51 132 18 q 53 131 71 85 q 36 233 36 176 l 36 683 l 217 683 l 217 261 q 332 133 217 133 q 437 177 401 133 q 472 289 472 221 l 472 683 l 651 683 l 651 0 l 481 0 m 253 -286 l 253 -114 l 433 -114 l 433 -286 l 253 -286 z "},"Ủ":{"ha":807,"x_min":32,"x_max":775,"o":"m 32 0 m 578 922 l 775 922 l 775 307 q 676 53 775 139 q 396 -32 578 -32 q 130 49 228 -32 q 32 296 32 129 l 32 922 l 228 922 l 228 314 q 271 178 228 228 q 393 128 314 128 q 578 307 578 128 l 578 922 m 365 1046 q 372 1088 365 1069 q 400 1119 379 1107 q 424 1136 415 1128 q 432 1161 432 1144 q 399 1185 432 1185 q 374 1181 388 1185 q 342 1164 360 1176 l 317 1240 q 366 1267 338 1258 q 414 1275 394 1275 q 490 1252 463 1275 q 517 1190 517 1229 q 504 1144 517 1161 q 476 1113 492 1126 q 447 1085 460 1100 q 435 1046 435 1071 l 365 1046 z "},"ủ":{"ha":688,"x_min":36,"x_max":651,"o":"m 36 0 m 481 0 l 481 96 q 268 -18 411 -18 q 174 0 217 -18 q 101 51 132 18 q 53 131 71 85 q 36 233 36 176 l 36 683 l 217 683 l 217 261 q 332 133 217 133 q 437 177 401 133 q 472 289 472 221 l 472 683 l 651 683 l 651 0 l 481 0 m 306 807 q 313 849 306 831 q 340 881 319 868 q 364 897 356 889 q 372 922 372 906 q 339 946 372 946 q 314 942 328 946 q 282 925 300 938 l 257 1001 q 306 1028 278 1019 q 354 1036 335 1036 q 430 1013 403 1036 q 457 951 457 990 q 444 905 457 922 q 416 874 432 888 q 388 847 400 861 q 375 807 375 832 l 306 807 z "},"Ứ":{"ha":1032,"x_min":32,"x_max":1032,"o":"m 32 0 m 578 922 l 775 922 l 775 821 q 813 812 794 814 q 851 810 832 810 q 905 837 892 810 q 918 897 918 864 q 915 942 918 921 q 906 975 911 963 l 1003 975 q 1024 930 1017 960 q 1032 867 1032 900 q 995 752 1032 788 q 901 717 958 717 q 775 753 840 717 l 775 307 q 676 53 775 139 q 396 -32 578 -32 q 130 49 228 -32 q 32 296 32 129 l 32 922 l 228 922 l 228 314 q 271 178 228 228 q 393 128 314 128 q 578 307 578 128 l 578 922 m 319 1008 l 276 1085 l 564 1253 l 629 1139 l 319 1008 z "},"ứ":{"ha":879,"x_min":36,"x_max":890,"o":"m 36 0 m 481 0 l 481 96 q 268 -18 411 -18 q 174 0 217 -18 q 101 51 132 18 q 53 131 71 85 q 36 233 36 176 l 36 683 l 217 683 l 217 261 q 332 133 217 133 q 437 177 401 133 q 472 289 472 221 l 472 683 l 651 683 l 651 594 q 710 589 678 589 q 763 616 750 589 q 776 676 776 643 q 773 721 776 700 q 764 754 769 742 l 861 754 q 883 709 875 739 q 890 646 890 679 q 854 532 890 567 q 761 497 818 497 q 651 522 710 497 l 651 0 l 481 0 m 254 769 l 211 846 l 499 1014 l 564 900 l 254 769 z "},"Ừ":{"ha":1032,"x_min":32,"x_max":1032,"o":"m 32 0 m 578 922 l 775 922 l 775 821 q 813 812 794 814 q 851 810 832 810 q 905 837 892 810 q 918 897 918 864 q 915 942 918 921 q 906 975 911 963 l 1003 975 q 1024 930 1017 960 q 1032 867 1032 900 q 995 752 1032 788 q 901 717 958 717 q 775 753 840 717 l 775 307 q 676 53 775 139 q 396 -32 578 -32 q 130 49 228 -32 q 32 296 32 129 l 32 922 l 228 922 l 228 314 q 271 178 228 228 q 393 128 314 128 q 578 307 578 128 l 578 922 m 194 1139 l 260 1253 l 547 1085 l 504 1008 l 194 1139 z "},"ừ":{"ha":879,"x_min":36,"x_max":890,"o":"m 36 0 m 481 0 l 481 96 q 268 -18 411 -18 q 174 0 217 -18 q 101 51 132 18 q 53 131 71 85 q 36 233 36 176 l 36 683 l 217 683 l 217 261 q 332 133 217 133 q 437 177 401 133 q 472 289 472 221 l 472 683 l 651 683 l 651 594 q 710 589 678 589 q 763 616 750 589 q 776 676 776 643 q 773 721 776 700 q 764 754 769 742 l 861 754 q 883 709 875 739 q 890 646 890 679 q 854 532 890 567 q 761 497 818 497 q 651 522 710 497 l 651 0 l 481 0 m 128 900 l 193 1014 l 481 846 l 438 769 l 128 900 z "},"Ử":{"ha":1032,"x_min":32,"x_max":1032,"o":"m 32 0 m 578 922 l 775 922 l 775 821 q 813 812 794 814 q 851 810 832 810 q 905 837 892 810 q 918 897 918 864 q 915 942 918 921 q 906 975 911 963 l 1003 975 q 1024 930 1017 960 q 1032 867 1032 900 q 995 752 1032 788 q 901 717 958 717 q 775 753 840 717 l 775 307 q 676 53 775 139 q 396 -32 578 -32 q 130 49 228 -32 q 32 296 32 129 l 32 922 l 228 922 l 228 314 q 271 178 228 228 q 393 128 314 128 q 578 307 578 128 l 578 922 m 367 1046 q 374 1088 367 1069 q 401 1119 381 1107 q 425 1136 417 1128 q 433 1161 433 1144 q 400 1185 433 1185 q 375 1181 389 1185 q 343 1164 361 1176 l 318 1240 q 367 1267 339 1258 q 415 1275 396 1275 q 491 1252 464 1275 q 518 1190 518 1229 q 506 1144 518 1161 q 477 1113 493 1126 q 449 1085 461 1100 q 436 1046 436 1071 l 367 1046 z "},"ử":{"ha":879,"x_min":36,"x_max":890,"o":"m 36 0 m 481 0 l 481 96 q 268 -18 411 -18 q 174 0 217 -18 q 101 51 132 18 q 53 131 71 85 q 36 233 36 176 l 36 683 l 217 683 l 217 261 q 332 133 217 133 q 437 177 401 133 q 472 289 472 221 l 472 683 l 651 683 l 651 594 q 710 589 678 589 q 763 616 750 589 q 776 676 776 643 q 773 721 776 700 q 764 754 769 742 l 861 754 q 883 709 875 739 q 890 646 890 679 q 854 532 890 567 q 761 497 818 497 q 651 522 710 497 l 651 0 l 481 0 m 304 807 q 311 849 304 831 q 339 881 318 868 q 363 897 354 889 q 371 922 371 906 q 338 946 371 946 q 313 942 326 946 q 281 925 299 938 l 256 1001 q 305 1028 276 1019 q 353 1036 333 1036 q 428 1013 401 1036 q 456 951 456 990 q 443 905 456 922 q 415 874 431 888 q 386 847 399 861 q 374 807 374 832 l 304 807 z "},"Ữ":{"ha":1032,"x_min":32,"x_max":1032,"o":"m 32 0 m 578 922 l 775 922 l 775 821 q 813 812 794 814 q 851 810 832 810 q 905 837 892 810 q 918 897 918 864 q 915 942 918 921 q 906 975 911 963 l 1003 975 q 1024 930 1017 960 q 1032 867 1032 900 q 995 752 1032 788 q 901 717 958 717 q 775 753 840 717 l 775 307 q 676 53 775 139 q 396 -32 578 -32 q 130 49 228 -32 q 32 296 32 129 l 32 922 l 228 922 l 228 314 q 271 178 228 228 q 393 128 314 128 q 578 307 578 128 l 578 922 m 646 1175 q 581 1069 622 1100 q 494 1039 539 1039 q 445 1049 468 1039 q 401 1070 422 1058 q 360 1092 381 1082 q 317 1101 339 1101 q 292 1090 308 1101 q 263 1040 275 1079 l 167 1092 q 224 1187 189 1160 q 301 1214 258 1214 q 358 1203 333 1214 q 406 1181 383 1193 q 447 1158 428 1168 q 486 1147 467 1147 q 517 1162 499 1147 q 542 1213 535 1176 l 646 1175 z "},"ữ":{"ha":879,"x_min":36,"x_max":890,"o":"m 36 0 m 481 0 l 481 96 q 268 -18 411 -18 q 174 0 217 -18 q 101 51 132 18 q 53 131 71 85 q 36 233 36 176 l 36 683 l 217 683 l 217 261 q 332 133 217 133 q 437 177 401 133 q 472 289 472 221 l 472 683 l 651 683 l 651 594 q 710 589 678 589 q 763 616 750 589 q 776 676 776 643 q 773 721 776 700 q 764 754 769 742 l 861 754 q 883 709 875 739 q 890 646 890 679 q 854 532 890 567 q 761 497 818 497 q 651 522 710 497 l 651 0 l 481 0 m 590 936 q 525 831 567 861 q 439 800 483 800 q 390 810 413 800 q 346 831 367 819 q 304 853 325 843 q 261 863 283 863 q 236 851 253 863 q 207 801 219 840 l 111 853 q 168 948 133 921 q 246 975 203 975 q 303 965 278 975 q 350 942 328 954 q 392 919 372 929 q 431 908 411 908 q 461 923 443 908 q 486 974 479 938 l 590 936 z "},"Ự":{"ha":1032,"x_min":32,"x_max":1032,"o":"m 32 0 m 578 922 l 775 922 l 775 821 q 813 812 794 814 q 851 810 832 810 q 905 837 892 810 q 918 897 918 864 q 915 942 918 921 q 906 975 911 963 l 1003 975 q 1024 930 1017 960 q 1032 867 1032 900 q 995 752 1032 788 q 901 717 958 717 q 775 753 840 717 l 775 307 q 676 53 775 139 q 396 -32 578 -32 q 130 49 228 -32 q 32 296 32 129 l 32 922 l 228 922 l 228 314 q 271 178 228 228 q 393 128 314 128 q 578 307 578 128 l 578 922 m 314 -286 l 314 -114 l 494 -114 l 494 -286 l 314 -286 z "},"ự":{"ha":879,"x_min":36,"x_max":890,"o":"m 36 0 m 481 0 l 481 96 q 268 -18 411 -18 q 174 0 217 -18 q 101 51 132 18 q 53 131 71 85 q 36 233 36 176 l 36 683 l 217 683 l 217 261 q 332 133 217 133 q 437 177 401 133 q 472 289 472 221 l 472 683 l 651 683 l 651 594 q 710 589 678 589 q 763 616 750 589 q 776 676 776 643 q 773 721 776 700 q 764 754 769 742 l 861 754 q 883 709 875 739 q 890 646 890 679 q 854 532 890 567 q 761 497 818 497 q 651 522 710 497 l 651 0 l 481 0 m 243 -286 l 243 -114 l 424 -114 l 424 -286 l 243 -286 z "},"Ỳ":{"ha":829,"x_min":4,"x_max":825,"o":"m 4 0 m 324 0 l 324 349 l 4 922 l 229 922 l 424 547 l 603 922 l 825 922 l 517 346 l 517 0 l 324 0 m 203 1139 l 268 1253 l 556 1085 l 513 1008 l 203 1139 z "},"ỳ":{"ha":688,"x_min":36,"x_max":651,"o":"m 36 0 m 471 90 q 401 19 451 44 q 286 -7 350 -7 q 186 10 232 -7 q 107 60 140 28 q 55 138 74 93 q 36 240 36 183 l 36 683 l 217 683 l 217 267 q 332 139 217 139 q 433 175 394 139 q 471 267 471 211 l 471 683 l 651 683 l 651 -18 q 627 -147 651 -90 q 560 -243 603 -204 q 460 -303 518 -282 q 338 -324 403 -324 q 111 -247 186 -324 q 36 -37 36 -171 l 204 -37 q 240 -133 204 -99 q 346 -168 275 -168 q 393 -158 371 -168 q 433 -128 415 -147 q 460 -82 450 -110 q 471 -21 471 -54 l 471 90 m 125 900 l 190 1014 l 478 846 l 435 769 l 125 900 z "},"–":{"ha":599,"x_min":18,"x_max":581,"o":"m 18 357 l 18 497 l 581 497 l 581 357 l 18 357 z "},"—":{"ha":850,"x_min":18,"x_max":832,"o":"m 18 357 l 18 497 l 832 497 l 832 357 l 18 357 z "},"‘":{"ha":256,"x_min":32,"x_max":224,"o":"m 224 556 q 133 588 169 567 q 74 640 96 608 q 42 715 51 671 q 32 818 32 760 l 32 960 l 224 960 l 224 772 l 117 772 q 144 672 118 706 q 224 625 171 639 l 224 556 z "},"’":{"ha":256,"x_min":33,"x_max":225,"o":"m 33 625 q 113 672 86 639 q 140 772 139 706 l 33 772 l 33 960 l 225 960 l 225 818 q 215 715 225 760 q 183 640 206 671 q 124 588 161 608 q 33 556 88 567 l 33 625 z "},"‚":{"ha":271,"x_min":42,"x_max":233,"o":"m 42 -147 q 121 -100 94 -133 q 149 0 147 -67 l 42 0 l 42 188 l 233 188 l 233 46 q 224 -57 233 -12 q 192 -133 214 -101 q 133 -185 169 -164 q 42 -217 96 -206 l 42 -147 z "},"“":{"ha":511,"x_min":32,"x_max":479,"o":"m 32 556 m 224 556 q 133 588 169 567 q 74 640 96 608 q 42 715 51 671 q 32 818 32 760 l 32 960 l 224 960 l 224 772 l 117 772 q 144 672 118 706 q 224 625 171 639 l 224 556 m 479 556 q 388 588 425 567 q 329 640 351 608 q 297 715 307 671 q 288 818 288 760 l 288 960 l 479 960 l 479 772 l 372 772 q 400 672 374 706 q 479 625 426 639 l 479 556 z "},"”":{"ha":511,"x_min":33,"x_max":481,"o":"m 33 556 m 33 625 q 113 672 86 639 q 140 772 139 706 l 33 772 l 33 960 l 225 960 l 225 818 q 215 715 225 760 q 183 640 206 671 q 124 588 161 608 q 33 556 88 567 l 33 625 m 289 625 q 368 672 342 639 q 396 772 394 706 l 289 772 l 289 960 l 481 960 l 481 818 q 471 715 481 760 q 439 640 461 671 q 380 588 417 608 q 289 556 343 567 l 289 625 z "},"„":{"ha":542,"x_min":42,"x_max":504,"o":"m 42 0 m 42 -147 q 121 -100 94 -133 q 149 0 147 -67 l 42 0 l 42 188 l 233 188 l 233 46 q 224 -57 233 -12 q 192 -133 214 -101 q 133 -185 169 -164 q 42 -217 96 -206 l 42 -147 m 313 -147 q 392 -100 365 -133 q 419 0 418 -67 l 313 0 l 313 188 l 504 188 l 504 46 q 494 -57 504 -12 q 463 -133 485 -101 q 403 -185 440 -164 q 313 -217 367 -206 l 313 -147 z "},"†":{"ha":736,"x_min":49,"x_max":688,"o":"m 303 0 l 303 604 l 49 604 l 49 715 l 303 715 l 303 922 l 444 922 l 444 715 l 688 715 l 688 604 l 444 604 l 444 0 l 303 0 z "},"‡":{"ha":736,"x_min":49,"x_max":688,"o":"m 444 207 l 444 0 l 303 0 l 303 207 l 49 207 l 49 318 l 303 318 l 303 604 l 49 604 l 49 715 l 303 715 l 303 922 l 444 922 l 444 715 l 688 715 l 688 604 l 444 604 l 444 318 l 688 318 l 688 207 l 444 207 z "},"•":{"ha":581,"x_min":63,"x_max":515,"o":"m 515 476 q 498 399 515 435 q 450 336 481 363 q 378 294 419 310 q 290 279 338 279 q 200 294 242 279 q 128 336 158 310 q 80 399 97 363 q 63 476 63 435 q 80 556 63 519 q 128 619 97 593 q 200 660 158 646 q 290 675 242 675 q 378 660 338 675 q 450 619 419 646 q 498 556 481 593 q 515 476 515 519 z "},"…":{"ha":1278,"x_min":32,"x_max":1247,"o":"m 32 0 m 32 0 l 32 188 l 225 188 l 225 0 l 32 0 m 543 0 l 543 188 l 736 188 l 736 0 l 543 0 m 1054 0 l 1054 188 l 1247 188 l 1247 0 l 1054 0 z "},"‰":{"ha":1197,"x_min":25,"x_max":1181,"o":"m 25 0 m 185 533 q 234 572 218 533 q 250 706 250 611 q 234 841 250 801 q 185 881 218 881 q 136 842 153 881 q 119 707 119 803 q 136 572 119 611 q 185 533 153 533 m 182 460 q 66 519 107 460 q 25 708 25 578 q 66 896 25 839 q 182 953 107 953 q 299 896 257 953 q 342 710 342 839 q 299 520 342 581 q 182 460 257 460 m 38 -28 l 678 950 l 772 950 l 131 -28 l 38 -28 m 632 43 q 681 82 665 43 q 697 215 697 121 q 681 351 697 311 q 632 390 665 390 q 583 351 600 390 q 567 217 567 313 q 583 82 567 121 q 632 43 600 43 m 629 -31 q 513 28 554 -31 q 472 218 472 88 q 513 406 472 349 q 629 463 554 463 q 747 406 704 463 q 789 219 789 349 q 747 30 789 90 q 629 -31 704 -31 m 1024 43 q 1073 82 1057 43 q 1089 215 1089 121 q 1073 351 1089 311 q 1024 390 1057 390 q 975 351 992 390 q 958 217 958 313 q 975 82 958 121 q 1024 43 992 43 m 1021 -31 q 905 28 946 -31 q 864 218 864 88 q 905 406 864 349 q 1021 463 946 463 q 1138 406 1096 463 q 1181 219 1181 349 q 1138 30 1181 90 q 1021 -31 1096 -31 z "},"‹":{"ha":322,"x_min":18,"x_max":304,"o":"m 18 440 l 217 682 l 304 588 l 174 440 l 304 294 l 217 201 l 18 440 z "},"›":{"ha":322,"x_min":18,"x_max":304,"o":"m 18 294 l 149 440 l 18 588 l 106 682 l 304 440 l 106 201 l 18 294 z "},"⁄":{"ha":182,"x_min":-276,"x_max":458,"o":"m -276 -28 l 364 950 l 458 950 l -183 -28 l -276 -28 z "},"⁰":{"ha":378,"x_min":32,"x_max":349,"o":"m 32 460 m 192 533 q 241 572 225 533 q 257 706 257 611 q 241 841 257 801 q 192 881 225 881 q 143 842 160 881 q 126 707 126 803 q 143 572 126 611 q 192 533 160 533 m 189 460 q 73 519 114 460 q 32 708 32 578 q 73 896 32 839 q 189 953 114 953 q 306 896 264 953 q 349 710 349 839 q 306 520 349 581 q 189 460 264 460 z "},"⁴":{"ha":368,"x_min":24,"x_max":344,"o":"m 24 476 m 204 810 l 110 647 l 204 647 l 204 810 m 203 476 l 203 576 l 24 576 l 24 656 l 192 938 l 293 938 l 293 647 l 344 647 l 344 576 l 293 576 l 293 476 l 203 476 z "},"⁵":{"ha":378,"x_min":39,"x_max":351,"o":"m 39 460 m 40 657 l 50 938 l 333 938 l 333 861 l 131 861 l 126 738 q 168 763 144 757 q 218 769 192 769 q 313 732 275 769 q 351 625 351 694 q 307 505 351 550 q 192 460 263 460 q 133 469 160 460 q 85 497 106 479 q 52 540 64 515 q 39 594 40 565 l 129 594 q 148 550 132 567 q 192 533 164 533 q 245 557 229 533 q 261 621 261 581 q 245 677 261 657 q 197 697 229 697 q 133 657 153 697 l 40 657 z "},"⁶":{"ha":376,"x_min":31,"x_max":344,"o":"m 31 460 m 192 533 q 240 558 224 533 q 256 621 256 583 q 238 684 256 661 q 190 707 219 707 q 140 683 160 707 q 121 622 121 660 q 140 558 121 582 q 192 533 158 533 m 247 838 q 199 881 243 881 q 142 845 161 881 q 119 735 124 810 q 158 766 136 754 q 214 778 179 778 q 307 738 269 778 q 344 625 344 697 q 303 507 344 554 q 193 460 261 460 q 31 692 31 460 q 73 892 31 831 q 203 953 115 953 q 294 923 258 953 q 336 838 329 893 l 247 838 z "},"⁷":{"ha":369,"x_min":24,"x_max":346,"o":"m 24 476 m 86 476 q 135 675 94 576 q 249 857 175 774 l 24 857 l 24 938 l 346 938 l 346 868 q 226 681 268 781 q 179 476 185 581 l 86 476 z "},"⁸":{"ha":382,"x_min":31,"x_max":350,"o":"m 31 460 m 190 535 q 242 555 226 535 q 257 611 257 575 q 241 663 257 643 q 190 683 225 683 q 140 663 156 683 q 125 611 125 643 q 190 535 125 535 m 190 754 q 233 772 218 754 q 247 817 247 789 q 233 862 247 844 q 190 879 218 879 q 149 862 163 879 q 135 817 135 844 q 149 772 135 789 q 190 754 163 754 m 282 728 q 332 682 314 714 q 350 611 350 650 q 311 502 350 544 q 192 460 272 460 q 71 502 111 460 q 31 607 31 544 q 49 677 31 647 q 103 724 67 707 q 63 767 75 739 q 51 825 51 796 q 91 917 51 881 q 192 953 131 953 q 294 917 260 953 q 329 828 329 881 q 319 769 329 797 q 282 728 308 742 z "},"⁹":{"ha":376,"x_min":31,"x_max":344,"o":"m 31 460 m 186 706 q 235 729 217 706 q 254 790 254 753 q 236 855 254 831 q 185 879 218 879 q 136 854 153 879 q 119 792 119 829 q 138 728 119 751 q 186 706 156 706 m 129 575 q 178 532 132 532 q 256 678 247 532 q 218 647 240 658 q 161 635 196 635 q 69 675 107 635 q 31 788 31 715 q 72 906 31 858 q 183 953 114 953 q 344 721 344 953 q 302 521 344 582 q 174 460 260 460 q 81 490 117 460 q 39 575 46 519 l 129 575 z "},"₀":{"ha":378,"x_min":32,"x_max":349,"o":"m 192 43 q 241 82 225 43 q 257 215 257 121 q 241 351 257 311 q 192 390 225 390 q 143 351 160 390 q 126 217 126 313 q 143 82 126 121 q 192 43 160 43 m 189 -31 q 73 28 114 -31 q 32 218 32 88 q 73 406 32 349 q 189 463 114 463 q 306 406 264 463 q 349 219 349 349 q 306 30 349 90 q 189 -31 264 -31 z "},"₁":{"ha":244,"x_min":24,"x_max":208,"o":"m 118 -14 l 118 304 l 24 304 l 24 367 q 107 387 83 367 q 135 447 131 407 l 208 447 l 208 -14 l 118 -14 z "},"₂":{"ha":361,"x_min":24,"x_max":338,"o":"m 24 -14 q 28 46 24 18 q 49 101 33 74 q 91 156 64 128 q 163 215 118 183 q 229 274 211 251 q 247 325 247 296 q 229 372 247 360 q 183 385 211 385 q 135 367 153 385 q 117 303 117 350 l 29 303 q 69 420 29 378 q 179 463 108 463 q 293 429 250 463 q 336 328 336 396 q 329 280 336 301 q 306 238 322 258 q 265 195 290 217 q 203 147 240 174 q 158 105 175 128 q 139 64 140 82 l 338 64 l 338 -14 l 24 -14 z "},"₃":{"ha":371,"x_min":29,"x_max":343,"o":"m 149 256 q 224 274 207 256 q 242 319 242 293 q 182 390 242 390 q 138 370 156 390 q 121 314 121 350 l 38 314 q 78 422 38 381 q 186 463 119 463 q 288 428 246 463 q 329 336 329 393 q 316 276 329 304 q 275 233 303 249 q 325 192 307 219 q 343 119 343 164 q 299 9 343 49 q 181 -31 254 -31 q 69 10 108 -31 q 29 121 29 50 l 117 121 q 185 44 117 44 q 232 65 213 44 q 251 121 251 85 q 228 177 251 161 q 149 193 206 193 l 149 256 z "},"₄":{"ha":368,"x_min":24,"x_max":344,"o":"m 204 319 l 110 157 l 204 157 l 204 319 m 203 -14 l 203 86 l 24 86 l 24 165 l 192 447 l 293 447 l 293 157 l 344 157 l 344 86 l 293 86 l 293 -14 l 203 -14 z "},"₅":{"ha":378,"x_min":39,"x_max":351,"o":"m 40 167 l 50 447 l 333 447 l 333 371 l 131 371 l 126 247 q 168 273 144 267 q 218 279 192 279 q 313 242 275 279 q 351 135 351 204 q 307 15 351 60 q 192 -31 263 -31 q 133 -21 160 -31 q 85 7 106 -11 q 52 50 64 25 q 39 104 40 75 l 129 104 q 148 60 132 76 q 192 43 164 43 q 245 67 229 43 q 261 131 261 90 q 245 187 261 167 q 197 207 229 207 q 133 167 153 207 l 40 167 z "},"₆":{"ha":376,"x_min":31,"x_max":344,"o":"m 192 43 q 240 68 224 43 q 256 131 256 93 q 238 194 256 171 q 190 217 219 217 q 140 193 160 217 q 121 132 121 169 q 140 67 121 92 q 192 43 158 43 m 247 347 q 199 390 243 390 q 142 355 161 390 q 119 244 124 319 q 158 276 136 264 q 214 288 179 288 q 307 247 269 288 q 344 135 344 207 q 303 17 344 64 q 193 -31 261 -31 q 31 201 31 -31 q 73 401 31 340 q 203 463 115 463 q 294 433 258 463 q 336 347 329 403 l 247 347 z "},"₇":{"ha":369,"x_min":24,"x_max":346,"o":"m 86 -14 q 135 185 94 86 q 249 367 175 283 l 24 367 l 24 447 l 346 447 l 346 378 q 226 190 268 290 q 179 -14 185 90 l 86 -14 z "},"₈":{"ha":382,"x_min":31,"x_max":350,"o":"m 190 44 q 242 65 226 44 q 257 121 257 85 q 241 173 257 153 q 190 193 225 193 q 140 173 156 193 q 125 121 125 153 q 190 44 125 44 m 190 264 q 233 281 218 264 q 247 326 247 299 q 233 372 247 354 q 190 389 218 389 q 149 372 163 389 q 135 326 135 354 q 149 281 135 299 q 190 264 163 264 m 282 238 q 332 192 314 224 q 350 121 350 160 q 311 12 350 54 q 192 -31 272 -31 q 71 12 111 -31 q 31 117 31 54 q 49 187 31 157 q 103 233 67 217 q 63 277 75 249 q 51 335 51 306 q 91 426 51 390 q 192 463 131 463 q 294 426 260 463 q 329 338 329 390 q 319 279 329 307 q 282 238 308 251 z "},"₉":{"ha":376,"x_min":31,"x_max":344,"o":"m 186 215 q 235 239 217 215 q 254 300 254 263 q 236 365 254 340 q 185 389 218 389 q 136 364 153 389 q 119 301 119 339 q 138 238 119 261 q 186 215 156 215 m 129 85 q 178 42 132 42 q 256 188 247 42 q 218 156 240 168 q 161 144 196 144 q 69 185 107 144 q 31 297 31 225 q 72 415 31 368 q 183 463 114 463 q 344 231 344 463 q 302 31 344 92 q 174 -31 260 -31 q 81 -1 117 -31 q 39 85 46 29 l 129 85 z "},"₫":{"ha":740,"x_min":40,"x_max":707,"o":"m 436 153 l 435 222 q 369 158 408 178 q 281 138 331 138 q 184 158 228 138 q 108 219 140 179 q 58 315 76 258 q 40 444 40 372 q 56 563 40 508 q 100 656 71 617 q 172 717 129 696 q 268 739 214 739 q 432 650 369 739 l 432 790 l 264 790 l 264 872 l 432 872 l 432 933 l 576 933 l 576 872 l 707 872 l 707 790 l 576 790 l 576 153 l 436 153 m 314 260 q 402 306 367 260 q 438 424 438 351 q 315 610 438 610 q 189 433 189 610 q 224 308 189 357 q 314 260 258 260 m 43 0 l 43 82 l 665 82 l 665 0 l 43 0 z "},"€":{"ha":863,"x_min":13,"x_max":836,"o":"m 836 140 q 697 14 783 60 q 501 -32 610 -32 q 363 -12 429 -32 q 244 49 297 8 q 151 149 190 89 q 93 288 113 208 l 13 288 l 38 393 l 76 393 q 75 421 75 407 q 75 450 75 435 q 75 474 75 463 q 76 494 75 485 l 13 494 l 38 603 l 89 603 q 235 860 133 768 q 504 953 336 953 q 632 935 574 953 q 744 883 690 917 l 656 721 q 587 770 628 754 q 506 786 546 786 q 371 738 426 786 q 289 603 315 690 l 593 603 l 536 494 l 269 494 q 270 438 269 467 q 274 393 271 408 l 481 393 l 424 288 l 300 288 q 378 176 329 215 q 494 136 428 136 q 675 231 622 136 l 836 140 z "},"℗":{"ha":925,"x_min":21,"x_max":904,"o":"m 463 -12 q 291 25 371 -12 q 151 127 211 63 q 56 278 90 192 q 21 463 21 364 q 56 647 21 560 q 151 797 90 733 q 291 899 211 861 q 463 936 371 936 q 635 899 554 936 q 775 797 715 861 q 869 647 835 733 q 904 463 904 560 q 869 278 904 364 q 775 127 835 192 q 635 25 715 63 q 463 -12 554 -12 m 465 61 q 610 92 542 61 q 728 178 678 124 q 809 305 779 232 q 839 461 839 378 q 809 616 839 543 q 728 744 779 689 q 610 831 678 799 q 465 863 542 863 q 319 831 388 863 q 201 744 251 799 q 122 616 151 689 q 93 461 93 543 q 122 305 93 378 q 201 178 151 232 q 319 92 251 124 q 465 61 388 61 m 493 475 q 551 494 533 475 q 568 543 568 514 q 551 588 568 571 q 493 606 533 606 l 404 606 l 404 475 l 493 475 m 311 239 l 311 683 l 507 683 q 611 642 572 683 q 650 539 650 600 q 611 439 650 478 q 507 400 572 400 l 404 400 l 404 239 l 311 239 z "},"™":{"ha":643,"x_min":21,"x_max":613,"o":"m 113 565 l 113 851 l 21 851 l 21 922 l 276 922 l 276 851 l 188 851 l 188 565 l 113 565 m 540 565 l 540 763 l 464 565 l 379 771 l 379 567 l 308 567 l 308 922 l 394 922 l 463 739 l 529 922 l 613 922 l 613 565 l 540 565 z "}}}
